<svg xmlns="http://www.w3.org/2000/svg" version="1.0" viewBox="0 0 175 33"><path fill="#FFF" fill-opacity=".2" d="M56 11.4c0 .2.8 1 1.8 1.7 1.5 1.3 1.6 1.2.3-.4S56 10.6 56 11.4M43.3 20c0 4.7.2 6.6.4 4.2.2-2.3.2-6.1 0-8.5-.2-2.3-.4-.4-.4 4.3m93.3-3.1c-.4.5.3.7 1.4.4 2.3-.6 2.6-1.3.6-1.3-.8 0-1.7.4-2 .9m-83.3 5.6c0 3.3.2 4.5.4 2.7s.2-4.5 0-6-.4 0-.4 3.3m23.8-2.9c0 1.1.3 1.4.6.6.3-.7.2-1.6-.1-1.9-.3-.4-.6.2-.5 1.3"/><path fill="#FFF" fill-opacity=".4" d="M96.4 5.3c-.2.7-.3 6.2-.2 12.3.3 10 .5 10.9 2.3 11.1 1.6.1 1.6.1.3-.3-1.6-.5-1.8-2-1.8-11.9 0-10 .2-11.4 1.8-11.8s1.6-.5-.1-.6c-1 0-2 .5-2.3 1.2m4.9 5.2c0 3.3.2 4.5.4 2.7s.2-4.5 0-6-.4 0-.4 3.3m-55.5 1.2c.7.3 1.6.2 1.9-.1.4-.3-.2-.6-1.3-.5-1.1 0-1.4.3-.6.6m62 0c.6.2 1.8.2 2.5 0 .6-.3.1-.5-1.3-.5s-1.9.2-1.2.5m25 0c.7.3 1.6.2 1.9-.1.4-.3-.2-.6-1.3-.5-1.1 0-1.4.3-.6.6m-71.7 7.9c0 1.1.3 1.4.6.6.3-.7.2-1.6-.1-1.9-.3-.4-.6.2-.5 1.3m66.9.2c0 .7-1.9 1.3-4.7 1.4l-4.8.1 4.4.4c4.1.4 7.3-.9 5.8-2.4-.4-.3-.7-.1-.7.5m-58.2 1.9c1.2.2 3.2.2 4.5 0 1.2-.2.2-.4-2.3-.4s-3.5.2-2.2.4m86.3 1.9c0 1.1.3 1.4.6.6.3-.7.2-1.6-.1-1.9-.3-.4-.6.2-.5 1.3M101.2 26c0 1.4.2 1.9.5 1.2.2-.6.2-1.8 0-2.5-.3-.6-.5-.1-.5 1.3m-55.4 2.7c.7.3 1.6.2 1.9-.1.4-.3-.2-.6-1.3-.5-1.1 0-1.4.3-.6.6m10 0c.7.3 1.6.2 1.9-.1.4-.3-.2-.6-1.3-.5-1.1 0-1.4.3-.6.6m35 0c.7.3 1.6.2 1.9-.1.4-.3-.2-.6-1.3-.5-1.1 0-1.4.3-.6.6m17.5 0c.9.2 2.3.2 3 0 .6-.3-.1-.5-1.8-.5-1.6 0-2.2.2-1.2.5m24.5 0c.7.3 1.6.2 1.9-.1.4-.3-.2-.6-1.3-.5-1.1 0-1.4.3-.6.6"/><path fill="#FFF" d="M97 16.5c0 9.6.3 11.5 1.5 11.5.9 0 1.5-.9 1.5-2.4 0-1.3.7-3 1.6-3.7 1.4-1.2 1.9-1.1 3 .6 3.1 4.7 4.3 6 4.9 5.3.4-.3-.5-2.4-1.9-4.7-3.1-4.9-3.1-4.9-.4-7.8 1.7-1.8 1.8-2.3.6-2.3-.9 0-2.3 1.1-3.2 2.5-3 4.6-4.6 3.2-4.6-4 0-5.1-.3-6.5-1.5-6.5S97 6.9 97 16.5M30 14c-2.6 2.6-1.3 5.6 2.9 6.5 3.3.7 5.6 2.9 4.6 4.5-.8 1.3-6.2 1.3-7 0-.3-.6-1.2-1-1.8-1-1.6.1 3.2 4 4.9 4 2.6 0 6.4-2.4 6.4-4 0-2.1-1.5-3.4-5.5-4.7-1.9-.6-3.1-1.7-3.3-3.1-.3-1.9.1-2.2 2.7-2.2 1.7 0 3.1.4 3.1 1 0 .5.8 1 1.8 1 1.4-.1 1.3-.4-.7-2-3-2.5-5.6-2.5-8.1 0m21.6-1.1c-.3.5.3 1.1 1.4 1.4 1.7.4 2 1.4 2 7.1 0 5.2.3 6.6 1.5 6.6 2.4 0 2.1-12.1-.3-14.3-2.1-1.9-3.8-2.2-4.6-.8m13.8 1.4c-2 1.7-2.7 3.3-2.7 5.7s.7 4 2.7 5.7c3.2 2.7 5.5 2.9 8.2.7 1.8-1.5 1.8-1.5-.4-.9-3.6 1-7.2-.2-7.2-2.5 0-1.7.7-2 5-2 4.4 0 5-.3 5-2 0-2.4-4.2-7-6.4-7-.8 0-2.7 1.1-4.2 2.3m7.4 2.4c.3 2-.1 2.3-3.2 2.3-2.8 0-3.6-.4-3.6-1.8 0-2.6 1-3.3 4-3 1.7.2 2.6 1 2.8 2.5M83.4 13c-2.8 1.1-4 3-2 3 .8 0 1.8-.5 2.1-1 .3-.6 1.7-1 3.1-1 1.9 0 2.4.5 2.4 2.5 0 1.8-.5 2.5-2 2.5-3.7 0-7 2.2-7 4.7 0 2.9 4.4 5.3 6.2 3.5.9-.9.7-1.2-1.1-1.2s-2.2-.5-1.9-2.8c.2-2.1.9-2.8 3.2-3 2.6-.3 2.8-.1 2.4 2.5-.4 2.7 1 5.3 2.9 5.3.4 0 .6-2.9.5-6.5-.3-5.3-.8-6.8-2.5-8-2.4-1.7-3.3-1.8-6.3-.5m33.1 1.5c-5.6 5.5-1 14.6 6.6 13 3.8-.9 3.8-2.3-.1-1.7-3.2.5-6-1.1-6-3.4 0-1 1.5-1.4 5.6-1.4 4.7 0 5.5-.3 5-1.6-.3-.9-.6-2-.6-2.5 0-1.7-4-4.9-6-4.9-1.2 0-3.2 1.1-4.5 2.5m7.3.7c2.4 2.4 1.3 3.8-2.8 3.8-2.6 0-4-.5-4-1.3 0-1.8 2.1-3.7 4-3.7.9 0 2.1.5 2.8 1.2m14.5-2.5c-1.8.7-1.6 2.3.2 2.3.8 0 1.5-.7 1.5-1.5s-.1-1.5-.2-1.4c-.2 0-.9.3-1.5.6m8.1.3c-4.9 1.9-3.3 5.9 3.1 8 2.5.8 3.5 1.7 3.3 2.8-.4 2-5.7 2.9-6.8 1.2-.4-.7-1.4-1-2.1-.8-.9.3-.5 1 1.3 2.2 3.2 2.1 8.3 1.4 9.7-1.3 1.3-2.4 0-4-4.5-5.6-2.6-.9-3.9-1.9-3.9-3.2 0-2.1 4.1-3.1 5.8-1.4 1.3 1.3 2.7 1.4 2.7.3 0-.9-4.5-3.3-5.8-3.1-.4 0-1.6.4-2.8.9M45 20.4c0 6.1.3 7.6 1.5 7.6s1.5-1.4 1.5-6.5c0-3.6 0-6.8.1-7.3 0-.4-.7-.8-1.5-1-1.3-.3-1.6.9-1.6 7.2m87 .1c0 5.8.3 7.5 1.4 7.5s1.5-1.7 1.8-6.5c.4-7.5.2-8.5-1.8-8.5-1.1 0-1.4 1.7-1.4 7.5M20.2 25.9c.2.7.7 1.2 1.1 1.2 1.2-.1.9-1.5-.3-2-.7-.2-1.1.2-.8.8"/><path fill="#BFBFBF" fill-opacity=".9" d="M100.3 11.5c0 3.8.2 5.3.4 3.2.2-2 .2-5.2 0-7-.2-1.7-.4-.1-.4 3.8m-54.5 1.2c.7.3 1.6.2 1.9-.1.4-.3-.2-.6-1.3-.5-1.1 0-1.4.3-.6.6m3.6 1.5-1.9 2.3 2.3-1.9c2.1-1.8 2.7-2.6 1.9-2.6-.2 0-1.2 1-2.3 2.2m5.6-1.8c0 .2.8 1 1.8 1.7 1.5 1.3 1.6 1.2.3-.4S55 11.6 55 12.4m52.8.3c.7.3 1.6.2 1.9-.1.4-.3-.2-.6-1.3-.5-1.1 0-1.4.3-.6.6m25 0c.7.3 1.6.2 1.9-.1.4-.3-.2-.6-1.3-.5-1.1 0-1.4.3-.6.6m-68.9 2c-1.3 1.6-1.2 1.7.4.4s2.1-2.1 1.3-2.1c-.2 0-1 .8-1.7 1.7m42.7 1.2c-1 1.1-1.6 2.6-1.3 3.3.4 1 .6 1 .6-.1.1-.8.8-2.3 1.8-3.3.9-1 1.4-1.8 1.1-1.8s-1.3.9-2.2 1.9m28.7-.4c0 .8.4 1.2.9.9.4-.3.8-.9.8-1.5 0-.5-.4-.9-.8-.9-.5 0-.9.7-.9 1.5m-32.4 1.2c-1.3 1.6-1.2 1.7.4.4s2.1-2.1 1.3-2.1c-.2 0-1 .8-1.7 1.7m21.2.9c0 1.1.3 1.4.6.6.3-.7.2-1.6-.1-1.9-.3-.4-.6.2-.5 1.3M102 21.4c0 .2.7.7 1.6 1 .8.3 1.2.2.9-.4-.6-1-2.5-1.4-2.5-.6m50.1 2.2c0 1.1.3 1.4.6.6.3-.7.2-1.6-.1-1.9-.3-.4-.6.2-.5 1.3m-51.9 1.9c0 1.6.2 2.2.5 1.2.2-.9.2-2.3 0-3-.3-.6-.5.1-.5 1.8M63 24.4c0 .2.8 1 1.8 1.7 1.5 1.3 1.6 1.2.3-.4S63 23.6 63 24.4m-44 1.5c0 .6.4 1.3 1 1.6s.7-.1.4-.9c-.7-1.8-1.4-2.1-1.4-.7m67.6 1c-.4.5.3.7 1.4.4 2.3-.6 2.6-1.3.6-1.3-.8 0-1.7.4-2 .9"/><path fill="#FFF" fill-opacity=".1" d="M141.1 13.6c0 1.1.3 1.4.6.6.3-.7.2-1.6-.1-1.9-.3-.4-.6.2-.5 1.3m-31.2 1.1c-1.3 1.6-1.2 1.7.4.4s2.1-2.1 1.3-2.1c-.2 0-1 .8-1.7 1.7M84.5 16c-.3.5-1.5 1-2.6 1s-1.8.4-1.5.8c.3.5 1.9.7 3.7.4 1.9-.3 2.6-.7 1.9-1.2-.9-.6-.9-.9.1-1.3.9-.3 1-.6.2-.6-.6-.1-1.5.3-1.8.9m-25.2 6c0 3.6.2 5 .4 3.2.2-1.7.2-4.7 0-6.5-.2-1.7-.4-.3-.4 3.3m-21.5-4.3c.7.3 1.6.2 1.9-.1.4-.3-.2-.6-1.3-.5-1.1 0-1.4.3-.6.6m11.5 4.8c0 3.3.2 4.5.4 2.7s.2-4.5 0-6-.4 0-.4 3.3m103.5-4.8c.6.2 1.8.2 2.5 0 .6-.3.1-.5-1.3-.5s-1.9.2-1.2.5M136.3 23c0 3 .2 4.3.4 2.8.2-1.6.2-4 0-5.5-.2-1.6-.4-.3-.4 2.7M28.5 22c-1.9.8-1.9.9.3.9 1.2.1 2.2-.4 2.2-.9 0-.6-.1-1-.2-.9-.2 0-1.2.4-2.3.9m114.8 0c-1.3.5-2.3 1.5-2.2 2.2q0 1.5.6 0c.2-.6 1.3-1.2 2.4-1.2 1 0 1.9-.5 1.9-1 0-.6-.1-1-.2-.9-.2 0-1.3.4-2.5.9"/><path fill="#BFBFBF" fill-opacity=".5" d="M68.8 18.7c.7.3 1.6.2 1.9-.1.4-.3-.2-.6-1.3-.5-1.1 0-1.4.3-.6.6m51 0c.6.2 1.8.2 2.5 0 .6-.3.1-.5-1.3-.5s-1.9.2-1.2.5"/><path fill="#BFBFBF" fill-opacity=".6" d="M140.1 13.6c0 1.1.3 1.4.6.6.3-.7.2-1.6-.1-1.9-.3-.4-.6.2-.5 1.3m-60.3 2.6c.5.5 1.6.8 2.3.6.8-.3.3-.7-1-1.1-1.7-.4-2.1-.3-1.3.5m72 0c.6.6 1.8.8 2.8.6 1.4-.3 1.2-.5-.9-1-1.9-.3-2.5-.2-1.9.4m-114 .5c.7.3 1.6.2 1.9-.1.4-.3-.2-.6-1.3-.5-1.1 0-1.4.3-.6.6m97.5 6.3c0 3 .2 4.3.4 2.8.2-1.6.2-4 0-5.5-.2-1.6-.4-.3-.4 2.7m-66.5 5.7c.7.3 1.6.2 1.9-.1.4-.3-.2-.6-1.3-.5-1.1 0-1.4.3-.6.6m52 0c.7.3 1.6.2 1.9-.1.4-.3-.2-.6-1.3-.5-1.1 0-1.4.3-.6.6m28 0c.7.3 1.6.2 1.9-.1.4-.3-.2-.6-1.3-.5-1.1 0-1.4.3-.6.6"/><path fill="#FFF" fill-opacity=".3" d="M130.3 20.5c0 4.4.2 6.1.4 3.7.2-2.3.2-5.9 0-8-.2-2-.4-.1-.4 4.3"/><path fill="#BFBFBF" fill-opacity=".3" d="M93.3 20.5c0 2.2.2 3 .4 1.7.2-1.2.2-3 0-4-.3-.9-.5.1-.4 2.3"/><path fill="#FFF" fill-opacity=".7" d="M44.3 20.5c0 4.4.2 6.1.4 3.7.2-2.3.2-5.9 0-8-.2-2-.4-.1-.4 4.3m10 2.5c0 3 .2 4.3.4 2.8.2-1.6.2-4 0-5.5-.2-1.6-.4-.3-.4 2.7m21.8-3.4c0 1.1.3 1.4.6.6.3-.7.2-1.6-.1-1.9-.3-.4-.6.2-.5 1.3"/><path fill="#BFBFBF" fill-opacity=".8" d="M136 13c-.9.6-1 1-.3 1 .6 0 1.5-.5 1.8-1 .8-1.2.4-1.2-1.5 0m-87 1c.8.5 2.2.9 3 .9 1 0 .8-.3-.5-.9-2.7-1.2-4.3-1.2-2.5 0m82.3 6.5c0 4.4.2 6.1.4 3.7.2-2.3.2-5.9 0-8-.2-2-.4-.1-.4 4.3m-62.5-5.8c.7.3 1.6.2 1.9-.1.4-.3-.2-.6-1.3-.5-1.1 0-1.4.3-.6.6m23.5 5.8c0 2.7.2 3.8.4 2.2.2-1.5.2-3.7 0-5-.2-1.2-.4 0-.4 2.8m-13.2 3.1c0 1.1.3 1.4.6.6.3-.7.2-1.6-.1-1.9-.3-.4-.6.2-.5 1.3"/><path fill="#BFBFBF" fill-opacity=".7" d="M137.8 15.7c.7.3 1.6.2 1.9-.1.4-.3-.2-.6-1.3-.5-1.1 0-1.4.3-.6.6"/><path fill="#FFF" fill-opacity=".6" d="M48.3 22.5c0 3.3.2 4.5.4 2.7s.2-4.5 0-6-.4 0-.4 3.3m10 0c0 3.3.2 4.5.4 2.7s.2-4.5 0-6-.4 0-.4 3.3m-29.5 1.2c.7.3 1.6.2 1.9-.1.4-.3-.2-.6-1.3-.5-1.1 0-1.4.3-.6.6m115 0c.7.3 1.6.2 1.9-.1.4-.3-.2-.6-1.3-.5-1.1 0-1.4.3-.6.6"/></svg>