<svg xmlns="http://www.w3.org/2000/svg" version="1.0" viewBox="0 0 640 640"><path fill="#4040BF" fill-opacity=".7" d="M100.9 101.7c-1.3 1.6-1.2 1.7.4.4s2.1-2.1 1.3-2.1c-.2 0-1 .8-1.7 1.7"/><path fill="#4040BF" fill-opacity=".9" d="M184.8 64.7c1.2.2 3 .2 4 0 .9-.3-.1-.5-2.3-.4-2.2 0-3 .2-1.7.4m266 0c1.2.2 3 .2 4 0 .9-.3-.1-.5-2.3-.4-2.2 0-3 .2-1.7.4M108.4 95.2l-1.9 2.3 2.3-1.9c2.1-1.8 2.7-2.6 1.9-2.6-.2 0-1.2 1-2.3 2.2m-14 14-1.9 2.3 2.3-1.9c2.1-1.8 2.7-2.6 1.9-2.6-.2 0-1.2 1-2.3 2.2m-30.1 77.3c0 2.2.2 3 .4 1.7.2-1.2.2-3 0-4-.3-.9-.5.1-.4 2.3"/><path fill="#4040BF" d="M181.2 65C124.1 69.9 78 111.7 66.3 169.4c-1.5 7.2-1.7 22.1-1.9 137.1-.1 74.9.2 125.2.7 119.8 5.1-55.8 30-108.5 70-148.3 18.9-18.8 38.2-32.6 62.4-44.5 36.4-18 69.6-25.5 112.6-25.5h14.6l2.7-6.3c9.5-22.4 30.7-42.8 53.6-51.6 14.2-5.5 19.7-6.1 55.7-6.1 31 0 33 .1 36.1 2 1.8 1.1 4.1 3.4 5.2 5.2 1.8 3 2 5.1 2 26 0 12.6.4 22.8.8 22.8 2.4 0 13.6-8.6 19.9-15.3 15.9-16.8 22.7-41.4 17.7-64-.9-4-3.6-11.5-6.1-16.7-3.9-8.2-5.9-10.8-13.7-18.6-7.4-7.4-10.7-9.9-17.6-13.3-16.6-8.1-3.3-7.5-155-7.7-74.5-.1-139.7.2-144.8.6m293.7 154.7c-1.3 1.6-1.2 1.7.4.4.9-.7 1.7-1.5 1.7-1.7 0-.8-.8-.3-2.1 1.3"/><path fill="#0040BF" d="M498.5 85c1 1.1 2 2 2.3 2s-.3-.9-1.3-2-2-2-2.3-2 .3.9 1.3 2m-.1 102.2-1.9 2.3 2.3-1.9c1.2-1.1 2.2-2.1 2.2-2.3 0-.8-.8-.2-2.6 1.9"/><path fill="#004080" fill-opacity=".9" d="M533.5 98c1 1.1 2 2 2.3 2s-.3-.9-1.3-2-2-2-2.3-2 .3.9 1.3 2m8 8c1 1.1 2 2 2.3 2s-.3-.9-1.3-2-2-2-2.3-2 .3.9 1.3 2m33.7 84c0 1.4.2 1.9.5 1.2.2-.6.2-1.8 0-2.5-.3-.6-.5-.1-.5 1.3m-511 260c0 1.4.2 1.9.5 1.2.2-.6.2-1.8 0-2.5-.3-.6-.5-.1-.5 1.3m511.1 3.5c0 2.2.2 3 .4 1.7.2-1.2.2-3 0-4-.3-.9-.5.1-.4 2.3m-31.4 78.2c-1.3 1.6-1.2 1.7.4.4s2.1-2.1 1.3-2.1c-.2 0-1 .8-1.7 1.7M97.5 534c1 1.1 2 2 2.3 2s-.3-.9-1.3-2-2-2-2.3-2 .3.9 1.3 2m8 8c1 1.1 2 2 2.3 2s-.3-.9-1.3-2-2-2-2.3-2 .3.9 1.3 2m425.4 2.7c-1.3 1.6-1.2 1.7.4.4s2.1-2.1 1.3-2.1c-.2 0-1 .8-1.7 1.7m-342.1 31c.7.3 1.6.2 1.9-.1.4-.3-.2-.6-1.3-.5-1.1 0-1.4.3-.6.6m263.5 0c.9.2 2.5.2 3.5 0 .9-.3.1-.5-1.8-.5s-2.7.2-1.7.5"/><path fill="#004080" fill-opacity=".7" d="M537.9 538.7c-1.3 1.6-1.2 1.7.4.4s2.1-2.1 1.3-2.1c-.2 0-1 .8-1.7 1.7"/><path fill="#004080" d="M475.5 69.1c7.8 3.5 17.6 10.1 23.3 15.8 32.6 32.6 26.9 86.7-12 111.8l-6.8 4.4v6.1c0 7.1-2.2 11.6-7.4 14.7-3.1 2-4.9 2.1-29.7 2.1-14.5 0-28.2.5-30.3 1-5.1 1.1-10.5 6.5-11.6 11.6-.5 2.1-1 18.2-1 35.6V304h32.5c35.7 0 35.8 0 40.8 6 4.4 5.2 4.3 7.6-1.6 36.9-5.8 28.8-6.4 30.6-12.7 34.8-3.2 2.3-3.9 2.3-31.1 2.3H400v192.3l30.8-.6c21.7-.3 33.2-.9 39.3-2.1 53.1-9.8 93.5-50.3 103.7-104 1.6-8.3 1.7-21 1.7-149.1 0-153.9.3-146.4-6.1-166.6-10.2-32.6-34.3-60.8-65-76.2-6.8-3.4-23.9-9.3-29.4-10.1l-4.5-.7zM289 208.7c-75.9 5.3-143.3 44.5-185.4 107.8-7.8 11.8-20 35.9-25.1 49.8-15.4 42.2-18.3 90.1-7.2 122.2 13.4 38.9 43 67.9 82.2 80.8 17.7 5.8 18.9 5.9 95.8 6.4l70.7.5V384h-26.6c-25.1 0-26.9-.1-30-2.1-1.8-1.1-4.2-3.5-5.3-5.3-2-3.2-2.1-4.8-2.1-32.6s.1-29.4 2.1-32.6c1.1-1.8 3.5-4.2 5.3-5.3 3.1-2 4.9-2.1 29.9-2.1h26.6l.3-40.8c.4-37.8.5-41.2 2.5-48l2.1-7.2-15.7.2c-8.6.1-17.6.3-20.1.5"/><path fill="#004080" fill-opacity=".8" d="M575.1 186.6c0 1.1.3 1.4.6.6.3-.7.2-1.6-.1-1.9-.3-.4-.6.2-.5 1.3m-511 267c0 1.1.3 1.4.6.6.3-.7.2-1.6-.1-1.9-.3-.4-.6.2-.5 1.3m121.7 122.1c.7.3 1.6.2 1.9-.1.4-.3-.2-.6-1.3-.5-1.1 0-1.4.3-.6.6"/><path fill="#4080BF" d="M475 148.5c1.3 1.4 2.6 2.5 2.8 2.5.3 0-.5-1.1-1.8-2.5s-2.6-2.5-2.8-2.5c-.3 0 .5 1.1 1.8 2.5m-124.1 20.2-2.4 2.8 2.8-2.4c2.5-2.3 3.2-3.1 2.4-3.1-.2 0-1.4 1.2-2.8 2.7m-7 7-2.4 2.8 2.8-2.4c2.5-2.3 3.2-3.1 2.4-3.1-.2 0-1.4 1.2-2.8 2.7"/><path fill="#8080BF" d="M470 307.4c0 .2.8 1 1.8 1.7 1.5 1.3 1.6 1.2.3-.4s-2.1-2.1-2.1-1.3"/><path fill="#BFBFBF" d="M409.8 144.7c1.2.2 3 .2 4 0 .9-.3-.1-.5-2.3-.4-2.2 0-3 .2-1.7.4m55 0c.7.3 1.6.2 1.9-.1.4-.3-.2-.6-1.3-.5-1.1 0-1.4.3-.6.6m9.7 4.3c1 1.1 2 2 2.3 2s-.3-.9-1.3-2-2-2-2.3-2 .3.9 1.3 2m4.6 9.6c0 1.1.3 1.4.6.6.3-.7.2-1.6-.1-1.9-.3-.4-.6.2-.5 1.3M348 172.7l-6.5 6.8 6.8-6.5c6.2-6 7.2-7 6.4-7-.1 0-3.2 3-6.7 6.7m131.1 36.9c0 1.1.3 1.4.6.6.3-.7.2-1.6-.1-1.9-.3-.4-.6.2-.5 1.3m-4.7 9.6-1.9 2.3 2.3-1.9c2.1-1.8 2.7-2.6 1.9-2.6-.2 0-1.2 1-2.3 2.2m-9.6 4.5c.7.3 1.6.2 1.9-.1.4-.3-.2-.6-1.3-.5-1.1 0-1.4.3-.6.6m-60.9 5-2.4 2.8 2.8-2.4c2.5-2.3 3.2-3.1 2.4-3.1-.2 0-1.4 1.2-2.8 2.7m-83.6 7.3c0 2.5.2 3.5.4 2.2.2-1.2.2-3.2 0-4.5-.2-1.2-.4-.2-.4 2.3m-50.5 68.7c.7.3 1.6.2 1.9-.1.4-.3-.2-.6-1.3-.5-1.1 0-1.4.3-.6.6m192 0c.7.3 1.6.2 1.9-.1.4-.3-.2-.6-1.3-.5-1.1 0-1.4.3-.6.6m-201.4 4.5-1.9 2.3 2.3-1.9c1.2-1.1 2.2-2.1 2.2-2.3 0-.8-.8-.2-2.6 1.9m-4.3 9.4c0 1.1.3 1.4.6.6.3-.7.2-1.6-.1-1.9-.3-.4-.6.2-.5 1.3m0 51c0 1.1.3 1.4.6.6.3-.7.2-1.6-.1-1.9-.3-.4-.6.2-.5 1.3m4.4 9.4c1 1.1 2 2 2.3 2s-.3-.9-1.3-2-2-2-2.3-2 .3.9 1.3 2m200.4.7c-1.3 1.6-1.2 1.7.4.4.9-.7 1.7-1.5 1.7-1.7 0-.8-.8-.3-2.1 1.3m-191.1 4c.7.3 1.6.2 1.9-.1.4-.3-.2-.6-1.3-.5-1.1 0-1.4.3-.6.6m182 0c.7.3 1.6.2 1.9-.1.4-.3-.2-.6-1.3-.5-1.1 0-1.4.3-.6.6"/><path fill="#FFF" d="M410.5 144.7c-12.4.8-25.4 4.3-37 10.1-9.4 4.6-14.4 8.2-22.6 16-14.7 13.8-23.7 29.7-28.5 50.2-1.2 4.9-1.7 15.7-2.1 44.7l-.6 38.3h-23.1c-12.7 0-24.9.5-27 1-4.9 1.1-8.5 3.7-11.1 8.1-1.8 3.1-2 5.6-2.3 26.4-.2 12.6-.1 25.3.3 28.2.8 6.2 3.7 10.9 8.5 13.7 3.2 1.9 5.4 2.1 29.3 2.4l25.7.3V576h80V384.1l27.3-.3c38.4-.4 35.9 1.7 43.7-37.6l5.4-26.9-1.8-4.7c-1.3-3.4-3-5.5-5.9-7.4l-4-2.7-32.4-.3-32.3-.3v-34.7c0-32.9.1-34.9 2-38 1.1-1.8 3.4-4.1 5.2-5.2 3.1-1.9 5.1-2 29.3-2 14.3 0 27.8-.5 29.9-1 4.9-1.1 8.5-3.7 11.1-8.1 1.9-3.2 2-5.2 2-30.9s-.1-27.7-2-30.9c-2.6-4.4-6.2-7-11.1-8.1-3.6-.9-43.9-1.1-55.9-.3"/></svg>