<svg xmlns="http://www.w3.org/2000/svg" version="1.0" viewBox="0 0 625 500"><path fill="#FFF" fill-opacity=".5" d="M62.5 250c0 110.3.1 155.4.2 100.2.2-55.1.2-145.3 0-200.5-.1-55.1-.2-10-.2 100.3m500 0c0 110.3.1 155.4.2 100.2.2-55.1.2-145.3 0-200.5-.1-55.1-.2-10-.2 100.3"/><g fill="#FFF" stroke-width="0"><path d="M63 250v200h499V50H63zM291.9 99.1c-1.1.7-1 .9.6 1 3.7.2 7-.3 7.6-1.2.5-.9 4-.7 12.9.6 3.3.5 4.1.4 3-.4-1.2-.8-.8-1.1 1.8-1.1 1.7 0 3.2.4 3.2 1 0 .5 1.1 1 2.4 1 1.4 0 2.8-.5 3.1-1 1-1.6 4.5-1.2 4.5.5 0 1 1 1.5 2.8 1.5l2.7-.1-2.5-1.4-2.5-1.4 2.6-.1c1.5 0 4.8.9 7.3 2.1 3.1 1.3 7 2.1 11.2 2.1 5.9.1 6.4.3 6.4 2.4 0 2 .3 2.1 3.4 1.4 5-1.1 8.4-.2 8.8 2.4.2 1.3.9 2 1.9 1.8.9-.1 2.4.7 3.4 1.8s2.8 2 4.1 2 2.8.9 3.4 2c.7 1.3 2.1 2 4 2 2.2 0 2.9.5 3.2 2.2.2 1.9.9 2.3 3.5 2.2 2.3-.1 3 .2 2.6 1.2-.3.8.5 1.6 2.2 2 1.5.4 2.2 1 1.6 1.3-.6.4.3 1.5 2.2 2.6 1.7 1 3.6 2.4 4 3.2.4.7 1.7 1.3 2.8 1.3 2.5 0 4.7 2.1 4.1 3.9-.3 1 .2 1.1 1.8.6 1.3-.4 2-.3 1.7.2s.7.8 2.3.5c2.8-.4 2.9-.3 2.3 3.2-.4 2.5-.2 3.6.6 3.6 1.6 0 4.2 2.6 3.4 3.4-.4.3.2.6 1.3.7 1.1 0 1.3.3.6.6-.6.2-1 .9-.7 1.3.3.5 1.2.7 2 .3 1.1-.3 1.7.4 2.1 2.5.5 2.7 1.1 3.1 5 3.7 2.9.4 4.4 1.1 4.4 2.1 0 .8.5 1.4 1 1.4 1.4 0 1.3 8.3-.2 9.8-.9.9-.3 1.5 2.5 2.7 2 .8 4.3 1.5 5.2 1.5.8 0 1.5.4 1.5 1 0 .5 1 1 2.1 1 2.1 0 2.1.4 1.7 8-.4 6.2-.2 8 .9 8 .7 0 1.3.4 1.3 1 0 .5.9 1 2 1s2 .4 2 1c0 .5-.4 1-1 1-1.9 0-1 3.2 1 3.7 2.5.7 2.6 2.3.3 2.3-3 0-4.7 1.6-3.8 3.6.4 1.1.9 2.6 1 3.4.9 7.2 1.8 11 2.5 11 1.2 0 2.4 6.4 1.3 6.7-.6.2-.7 2-.2 4.6 1 5.6.9 32.6-.2 35.5-.5 1.4-.5 3 0 4 .6 1 .5 2.4-.2 3.7-.6 1.1-1.2 2.7-1.3 3.5s-.6 2.5-.9 3.7c-.6 1.9-.4 2.3 1.4 2.3 1.4 0 2.1.6 2.1 1.9 0 1.1.6 2.2 1.3 2.5 1 .5 1 .7 0 1.2-1.7.7-1.7 3.1 0 3.7.8.4.7.6-.4.6-.9.1-2.6 2.3-3.9 5.1-1.3 2.7-3.1 5.8-4.1 6.9-2.2 2.3-1.4 6.1 1.2 6.1 1.5 0 1.9.7 1.9 4v4h-4.5c-3.8 0-4.5-.3-4.5-2 0-1.8-2.9-3-3.1-1.3 0 .5-.2 2.8-.4 5.3-.1 2.5-.9 6.2-1.6 8.2-1.1 3-1.8 3.6-3.4 3.2-1.9-.5-2.1 0-2.3 5s0 5.6 1.8 5.6c1.7 0 2 .7 2 4s-.3 4-2 4c-1.1 0-2 .4-2 1 0 .5-1.8 1-4 1h-4v10h-6.7c-8.1 0-11.3.8-11.3 2.6 0 .8.5 1.4 1 1.4.6 0 1 2.7 1 6v6h-4.5c-3.8 0-4.5-.3-4.5-2 0-1.3-.7-2-2-2-1.1 0-2-.6-2-1.4 0-2.4-1.8-2.8-4.2-1.2-2.1 1.5-2.1 1.6-.3 1.7 1.6.1 1.7.2.3.6-1 .2-1.9 1.9-2.3 4.4-.6 3.2-1.1 3.9-3 3.9-1.7 0-2.4-.7-2.9-3.1-1.2-6.2-2.6-1.6-2.6 8.7V402h-10.5c-9.8 0-10.5-.1-10.5-2 0-1.1-.7-2-1.5-2-.9 0-1.5-.9-1.5-2.1 0-1.8-.4-2-2.7-1.4-1.6.4-4 .8-5.5.8-1.4.1-2.4.6-2 1.1.3.5-.5.7-1.6.4-1.2-.4-2.5-.2-2.8.4-.3.5-1.8.8-3.2.7-1.5-.1-4.2.1-6 .5-3.1.7-3.2.9-1.5 2.3 1.6 1.3 1.2 1.4-3.7.8-6.7-.8-10.2-.8-15.9.1-3.1.4-4.2.3-3.7-.5s-1-1.1-5.1-.9c-5.6.1-5.7.1-1.8.8 4 .8 3 .7-7.5-.2-.8-.1-2.6.2-4 .6-1.9.5-2.1.5-1-.3 1.2-.9.9-1.1-1.5-1.1-2.3 0-2.7.3-1.5 1 1.2.8 1 1-1 .9-1.4-.1-3.3.2-4.2.6-1.1.4-1.8.3-1.8-.4 0-.6.8-1.1 1.8-1.2 1.4 0 1.4-.2-.3-.9-2.8-1.2-5.5-1.2-5.5.1 0 1.9-2.8 3.9-5.4 3.9-1.4 0-2.6-.5-2.6-1 0-.6-1.6-1-3.5-1s-3.5-.5-3.5-1c0-.6-.7-1-1.5-1s-1.8-1.4-2.3-3.3c-.8-3.2-.9-3.2-6-2.9-4.7.4-5.2.2-5.2-1.7 0-1.4-.9-2.5-2.5-3.1-1.4-.5-2.5-1.6-2.5-2.4 0-1.1-1.2-1.3-6-.9-5.6.5-6 .4-6-1.6 0-1.8-.6-2.1-4-2.1h-4.1l.4-4c.3-2.5 0-4-.7-4s-1.8-.9-2.6-2-2.4-2-3.6-2c-1.3 0-3.1-1-4.1-2.3s-2.4-2.2-3.2-1.9-1.1 0-.7-.7c.4-.6.2-1.1-.4-1.1s-.8-.5-.5-1c.4-.6-1.8-1-5.8-1-6.4 0-6.5 0-7.1-3.2-.3-1.7-.2-3.6.3-4.1 1.5-1.5.1-4.8-1.9-4.2-1.1.3-2-.1-2.4-1q-.6-1.5 1.5-1.5c1.1 0 1.7-.5 1.4-1s-1.9-1-3.4-1c-2.1 0-2.7-.5-2.8-2.3-.1-5.6-.2-5.9-2.5-5.1-2 .6-2.1.5-1-.9 1.1-1.3 1-1.9-.7-3.6-1.2-1.2-2.5-2.1-3.1-2.1-.5 0-.8-1.2-.7-2.8.2-2.2-.3-2.8-2.2-3-1.9-.3-2.1-.6-1-1.3 1-.6 1-.9.2-.9-.7 0-1.3-1.1-1.3-2.5s-.9-3.5-2-4.7-1.9-2.9-1.8-3.7c.2-.8-.8-2.1-2.2-2.8s-2-1.3-1.4-1.3 1.1-.7 1.1-1.5-.5-1.5-1-1.5-.7-.8-.5-1.8c.3-1-.1-2.3-.9-3-1-1-1.3-1-1.3.3 0 .8-.4 1.5-1 1.5-.5 0-1-1.1-1-2.5s.4-2.5 1-2.5c.5 0 .8-1 .6-2.3-.3-1.2-.5-2.2-.6-2.2s-.4-1.6-.7-3.5c-.4-3.4-2.3-6.7-2.3-4.2 0 .7-.4 1.2-1 1.2-.5 0-1-.9-1-2s.5-2 1-2c1.4 0 1.2-2.7-.2-3.3-1-.4-.9-.8.2-1.6.8-.6 1-1.1.4-1.1s-1.1-2.9-1.2-7.2c-.1-4-.6-7.6-1.1-8.1s-.7-1.6-.4-2.3c.4-1 0-1.2-1.1-.8-1.8.7-1.9-.4-.7-7.9.4-2.6.4-4.7-.1-4.7-.4 0-.8-1.6-.8-3.6 0-2.8.3-3.5 1.5-3.1 2.1.9 2.4-.1 2.6-8.4.1-4.1.7-7.7 1.3-8.1.8-.6.7-.8-.1-.8-.7 0-1.3-.7-1.3-1.5s.6-1.5 1.3-1.5c.8 0 .7-.4-.3-1.1-1.1-.8-1.2-1.2-.2-1.6.6-.2 1.2-1.1 1.2-1.8s.6-1.5 1.3-1.8c.7-.2 1.1-2.1 1-5-.1-3.8.2-4.7 1.5-4.7 1.5-.1 1.4-.3-.2-1.5-1.4-1.1-1.6-1.5-.5-1.5 1.2 0 1.2-.2 0-.9-1.1-.7-.9-1 1-1.3 2-.2 2.4-.8 2.3-3.7-.1-2.4.3-3.5 1.7-3.8 1.9-.5 3.2-2.9 2.4-4.3-.3-.5-.1-1.1.4-1.5.6-.3.7-1.3.4-2.2-.5-1.2-.2-1.5.8-1.1.9.4 1.9-.3 2.6-1.8.6-1.3.7-2.4.2-2.4s.5-1.5 2.2-3.2c1.7-1.8 2.6-3.4 2-3.6-2.5-.8-1.1-4 2-4.6 2.6-.5 2.9-.9 2-2-1-1.2-.8-1.5 1.1-1.8 1.3-.2 2.3-1 2.3-1.8s.5-1.8 1-2.2c.6-.4.2-.8-.7-.8-1 0-1.8-.5-1.8-1 0-.6.5-1 1.1-1 1.6 0 3.9-2.6 3.1-3.5-.4-.4.4-.4 1.8 0 2.2.7 2.3.6 1.1-.9-1.5-1.8-.1-2.2 1.7-.4 1.5 1.5 1.6.3.1-2.4-1.3-2.4-.5-3.5 1.5-1.9 1.8 1.5 4 .5 3.2-1.5-.3-.8 0-1.6.7-1.8 4.7-1.5 5.1-1.7 3.8-2.5-.9-.6-1-1.1-.2-1.5.6-.4 1.6-.4 2.1-.1.6.4 1-.7 1-2.4 0-3.3.6-3.8 2.4-1.8.6.7 1 1 .9.8-.2-.2.2-1 .8-1.8.9-1 .8-1.3-.1-1.3-1 0-1-.3-.1-1.4.8-1 2.3-1.3 4.7-.9 3 .5 3.6.3 4.1-1.5.2-1.1 1.6-2.3 3-2.7 1.9-.4 2.2-.9 1.4-1.9s-.3-1.3 2.5-1.4c3.4-.1 6.9-2.3 5.7-3.6-.4-.3.1-.6 1.1-.6.9 0 1.5-.4 1.2-.9s.2-1.2 1.1-1.5c1.5-.6 1.5-.9.3-1.7-1.2-.9-1.2-1 .3-.5 1 .3 2.6.6 3.5.6 1.2.1 1 .5-.8 1.5-1.4.8-1.9 1.4-1.1 1.5.7 0 2.8-1.6 4.6-3.6 2.2-2.4 4.1-3.5 5.6-3.4 5 .4 6.7 0 7.2-2 .4-1.7 1.4-2 6-2 3.1 0 5.9-.5 6.2-1 .3-.6.1-1-.5-1s-.8-.5-.4-1.1c.3-.6 3.1-1 6.3-.9 8.9.4 11.8.1 10.2-.9-2.2-1.4-.4-2.9 3.5-2.9 2.5 0 3.3.3 2.3.9m4.8-.5c-.3.3-1.2.4-1.9.1-.8-.3-.5-.6.6-.6 1.1-.1 1.7.2 1.3.5m28 0c-.3.3-1.2.4-1.9.1-.8-.3-.5-.6.6-.6 1.1-.1 1.7.2 1.3.5M463 218.5c0 .8-.4 1.5-1 1.5-.5 0-1-.7-1-1.5s.5-1.5 1-1.5c.6 0 1 .7 1 1.5m0 63.5c0 .5-.4 1-1 1-.5 0-1-.5-1-1 0-.6.5-1 1-1 .6 0 1 .4 1 1"/><path d="M308.8 103.7c1.7.2 4.7.2 6.5 0 1.7-.2.3-.4-3.3-.4s-5 .2-3.2.4M290 106c0 1.3 2 1.3 4 0 1.2-.8.9-1-1.2-1-1.6 0-2.8.4-2.8 1m21.8-.3c.7.3 1.6.2 1.9-.1.4-.3-.2-.6-1.3-.5-1.1 0-1.4.3-.6.6m8 0c.7.3 1.6.2 1.9-.1.4-.3-.2-.6-1.3-.5-1.1 0-1.4.3-.6.6m10 0c.6.2 1.8.2 2.5 0 .6-.3.1-.5-1.3-.5s-1.9.2-1.2.5m-46.8 1.4c0 .5 1.1.9 2.5.9s2.5-.2 2.5-.4-1.1-.6-2.5-.8c-1.4-.3-2.5-.1-2.5.3m53.5-.1c-.3.5.3 1 1.5 1s1.8-.5 1.5-1c-.3-.6-1-1-1.5-1s-1.2.4-1.5 1m5.1.9c-.3.4.6.6 1.9.3 1.4-.2 2.5-.6 2.5-.8 0-.8-3.9-.4-4.4.5m21.4-.5c0 .2.7.6 1.5 1 .8.3 1.5.1 1.5-.4 0-.6-.7-1-1.5-1s-1.5.2-1.5.4m-84.7 1.3c.9.2 2.3.2 3 0 .6-.3-.1-.5-1.8-.5-1.6 0-2.2.2-1.2.5m68.7.3c0 .5.5 1 1.1 1 .5 0 .7-.5.4-1-.3-.6-.8-1-1.1-1-.2 0-.4.4-.4 1m9.8 2.7c.7.3 1.6.2 1.9-.1.4-.3-.2-.6-1.3-.5-1.1 0-1.4.3-.6.6m-95 1c.7.3 1.6.2 1.9-.1.4-.3-.2-.6-1.3-.5-1.1 0-1.4.3-.6.6M370 117c2 1.3 3.3 1.3 2.5 0-.3-.6-1.4-1-2.3-1-1.5 0-1.5.2-.2 1m-122 2c-.9.6-1 1-.3 1 .6 0 1.5-.5 1.8-1 .8-1.2.4-1.2-1.5 0m134.5 4c2.7 1.2 4.3 1.2 2.5 0-.8-.5-2.2-.9-3-.9-1 0-.8.3.5.9m23.5 16.4c0 .2.7.7 1.6 1 .8.3 1.2.2.9-.4-.6-1-2.5-1.4-2.5-.6m30 24.6c0 .5.5 1 1.1 1 .5 0 .7-.5.4-1-.3-.6-.8-1-1.1-1-.2 0-.4.4-.4 1m12.8 21.7c.7.3 1.6.2 1.9-.1.4-.3-.2-.6-1.3-.5-1.1 0-1.4.3-.6.6m-272.1 9c-.4.3-.7 1.1-.7 1.7s.5.5 1.2-.2c.6-.6.9-1.4.7-1.7-.3-.3-.9-.2-1.2.2M312 211.6c3.4.7 10.8.8 10.3.1-.2-.4-3-.6-6.1-.6-3.1.1-5 .3-4.2.5M169.7 216c-.3 1.1-.1 2 .4 2s.9-.9.9-2-.2-2-.4-2-.6.9-.9 2m136.4 1.9c-1 .6-.9 1 .3 1.4.8.3 1.8.2 2.1-.3.8-1.3-.9-2-2.4-1.1m-9.7.9c.3.6.2 1.3-.4 1.7s-1 5.9-1 13.6c0 7.4.4 12.8.9 12.5s.7-4.3.4-8.8c-.3-4.6-.1-10.7.5-13.6.6-3.5.6-5.5-.1-5.9-.5-.3-.7-.1-.3.5m15.6 2.1c0 .6.4 1.3 1 1.6s.7-.1.4-.9c-.7-1.8-1.4-2.1-1.4-.7m3.5 6.1c-.3.6.1.7.9.4 1.8-.7 2.1-1.4.7-1.4-.6 0-1.3.4-1.6 1m-148.4 7.6c0 1.1.3 1.4.6.6.3-.7.2-1.6-.1-1.9-.3-.4-.6.2-.5 1.3m290.2 8.9c0 2.2.2 3 .4 1.7.2-1.2.2-3 0-4-.3-.9-.5.1-.4 2.3m-140.1.5c0 1.4.2 1.9.5 1.2.2-.6.2-1.8 0-2.5-.3-.6-.5-.1-.5 1.3m9.6-1.3c.7.3 1.6.2 1.9-.1.4-.3-.2-.6-1.3-.5-1.1 0-1.4.3-.6.6M300 251c-1 .7 1.3 1 7.5 1s8.5-.3 7.5-1c-.8-.5-4.2-1-7.5-1s-6.7.5-7.5 1m156.1 13.6c0 1.1.3 1.4.6.6.3-.7.2-1.6-.1-1.9-.3-.4-.6.2-.5 1.3m-228.3 1.1c.6.2 1.8.2 2.5 0 .6-.3.1-.5-1.3-.5s-1.9.2-1.2.5m121.8.1c-.2.4 1.1.6 3 .4s3.4-.6 3.4-.8c0-.8-5.9-.4-6.4.4m-10.4 2.2c0 1.4.2 1.9.5 1.2.2-.6.2-1.8 0-2.5-.3-.6-.5-.1-.5 1.3m22.6-1.3c.7.3 1.6.2 1.9-.1.4-.3-.2-.6-1.3-.5-1.1 0-1.4.3-.6.6M222 268.1c0 .5.5.7 1 .4.6-.3 1-.8 1-1.1 0-.2-.4-.4-1-.4-.5 0-1 .5-1 1.1m35.5-.1c-.3.5-.2 1 .4 1 .5 0 1.3-.5 1.6-1 .3-.6.2-1-.4-1-.5 0-1.3.4-1.6 1m138.5 2.1c0 .5.5.7 1 .4.6-.3 1-.8 1-1.1 0-.2-.4-.4-1-.4-.5 0-1 .5-1 1.1m-114.2 9.6c.7.3 1.6.2 1.9-.1.4-.3-.2-.6-1.3-.5-1.1 0-1.4.3-.6.6m-23.8 1.8c0 .8.2 1.5.4 1.5s.6-.7 1-1.5c.3-.8.1-1.5-.4-1.5-.6 0-1 .7-1 1.5m7.8-.8c.7.3 1.6.2 1.9-.1.4-.3-.2-.6-1.3-.5-1.1 0-1.4.3-.6.6m114.7.3c-.3.6.1.7.9.4 1.8-.7 2.1-1.4.7-1.4-.6 0-1.3.4-1.6 1m72.2 23.7c-.4.3-.7 1.1-.7 1.7s.5.5 1.2-.2c.6-.6.9-1.4.7-1.7-.3-.3-.9-.2-1.2.2m-16.2 20.4c-.4.6-.5 1.2-.2 1.5.2.3.7-.2 1-1.1.7-1.7.1-2-.8-.4M420 346.5c-1.9 2.3-.8 2.5 1.4.4 1.1-1.1 1.5-1.9.9-1.9s-1.6.7-2.3 1.5m-188.8 32c.9 1 2.1 1.6 2.8 1.3.7-.2-.1-1-1.6-1.7-2.7-1.2-2.8-1.1-1.2.4m18.8 3.9c2.8 1.7 5 2.1 3.5.7-.6-.5-2.1-1.2-3.5-1.5l-2.5-.7zm118.9 1.3c-1.3 1.6-1.2 1.7.4.4s2.1-2.1 1.3-2.1c-.2 0-1 .8-1.7 1.7M277 391c0 .5.5 1 1.1 1 .5 0 .7-.5.4-1-.3-.6-.8-1-1.1-1-.2 0-.4.4-.4 1m70 0c0 .6.7 1 1.5 1s1.5-.2 1.5-.4-.7-.6-1.5-1c-.8-.3-1.5-.1-1.5.4m-18 3c-1.2.8-.9 1 1.2 1 1.5 0 3-.5 3.3-1 .8-1.3-2.5-1.3-4.5 0m-34 1c0 .6.7 1 1.5 1s1.5-.2 1.5-.4-.7-.6-1.5-1c-.8-.3-1.5-.1-1.5.4m12 0c0 .5 1.4.7 3.3.3 4.5-.8 4.7-1.3.4-1.3-2 0-3.7.4-3.7 1m11.5 0c1.9.8 7.3 1.4 6.4.6-.2-.2-2.2-.6-4.4-.9-2.8-.5-3.4-.4-2 .3m-44.2 1.7c.9.2 2.3.2 3 0 .6-.3-.1-.5-1.8-.5-1.6 0-2.2.2-1.2.5"/></g><g fill="#BFBFBF" stroke-width="0"><path d="M285.4 99.2c-1 1.6 1.7 2.7 5.1 2.1 3.6-.7 4.5-1.3 1.9-1.3-1.5 0-1.6-.2-.5-.9 1-.6.2-.9-2.3-.9-2 0-3.9.5-4.2 1m9.4-.5c.7.3 1.6.2 1.9-.1.4-.3-.2-.6-1.3-.5-1.1 0-1.4.3-.6.6m5.2.2c0 .5 2.8 1 6.1 1 3.4 0 5.9-.2 5.7-.4-.9-1-11.8-1.5-11.8-.6m16 .1c2 1.3 5 1.3 5 0 0-.6-1.5-1-3.2-1-2.5 0-2.9.3-1.8 1m6.8-.3c.7.3 1.6.2 1.9-.1.4-.3-.2-.6-1.3-.5-1.1 0-1.4.3-.6.6m3.9 0c-1.4 1.3-.6 2.3 1.8 2.3 1.6 0 2.5-.6 2.5-1.5 0-1.5-3.1-2.1-4.3-.8m7.1.6c1.2.7 2 1.6 1.6 1.9-.3.4.2.7 1.2.7 1.1 0 3.3.3 4.9.7 1.7.3 4.2.7 5.7.8 1.4 0 2.5.3 2.2.5-.2.2 4 1.9 9.4 3.6 5.3 1.8 12.3 4.4 15.5 5.8 3.1 1.4 5.7 2.3 5.7 1.9s.4-.2.8.3c.4.6 3 2.4 5.8 4.1 5 3.1 5.1 3.1 4.6.8-.3-1.9-1.1-2.4-3.3-2.4-1.8 0-3.2-.7-3.9-2-.6-1.1-2.1-2-3.4-2s-3.1-.9-4.1-2-2.5-1.9-3.4-1.8c-1 .2-1.7-.5-1.9-1.8-.4-2.6-3.8-3.5-8.8-2.4-3.1.7-3.4.6-3.4-1.4 0-2.1-.5-2.3-6.4-2.4-4.2 0-8.1-.8-11.2-2.1-2.5-1.2-5.8-2.1-7.3-2.1l-2.6.1zM366 108c0 .5-.7.7-1.5.4-.8-.4-1.5-.8-1.5-1s.7-.4 1.5-.4 1.5.4 1.5 1m-70.2-7.3c.7.3 1.6.2 1.9-.1.4-.3-.2-.6-1.3-.5-1.1 0-1.4.3-.6.6m-26.3 2.3c-.3.5-.1 1 .5 1s.9.4.6.9c-.7 1.1 7.5-.8 8.9-2 .5-.5-1.3-.9-4.2-.9s-5.5.4-5.8 1m32.5 1.1c0 .3-2.4.5-5.2.3-2.9-.2-4.4-.1-3.4.2 1.5.5 1.6.8.5 1.5-.9.7.5.8 4.1.4 9-1 24.1-.9 31 .3 5.5.8 6.7.8 8-.5 1.3-1.4 1-1.5-3.5-.9-3.7.4-4.5.3-3-.4 1.6-.8 1.1-.9-2.2-.6-2.3.2-4.5.1-4.8-.2-.8-.8-21.5-.9-21.5-.1m-17 1.9c-1.3.8-1.3 1 .2 1 .9 0 2.3.3 3.2.6 1.1.4 1.6.1 1.6-1 0-1.8-2.7-2.1-5-.6m-26.7 1.5c-.8 2.2-.2 2.4 2.7 1.2 1.4-.5 3.4-1.2 4.4-1.4 3.7-.7 2.9-1.3-1.8-1.3-3.3 0-4.8.5-5.3 1.5m21.2-.8c-7.2 1.6-16.4 4.7-15.9 5.4.3.5-.5.8-1.8.7-2.1-.1-12.2 3.6-14.1 5.2-.4.4.6.7 2.3.8 1.6 0 3-.4 3-.9s.3-.8.8-.8c2.5.4 4.2-.3 4.3-1.9 0-.9.3-1.2.5-.5.4.9 1.3.9 3.7.1 1.8-.6 3.4-1.4 3.7-1.7s1-.6 1.5-.6c.6-.1 3.6-.7 6.9-1.5 4.6-1.1 5.5-1.6 4-2.2-1.3-.6-.7-.7 1.8-.4 2.9.4 3.6.1 3.1-1-.3-.8-.8-1.3-1.2-1.3-.3.1-1.5.3-2.6.6m60.1.8c.5 1.3.9 1.3 2.3.3.9-.7 1.8-1.4 2-1.5.2-.2-.8-.3-2.2-.3-2 0-2.5.4-2.1 1.5"/><path d="m344 107.9-2.5.7 2.4.8c1.5.5 2.6.4 3.1-.4.6-.9 1-.9 1.6.2.5.8 4.7 2.8 9.4 4.3 9.8 3.2 25.6 10.7 32.5 15.5 2.7 1.8 5.4 3.3 6.1 3.3s1.2.5 1.1 1.1.6 1 1.6.8c.9-.2 1.6.1 1.5.6-.2.5 2.9 3.8 6.8 7.3s9.7 9.4 13 13.1c3.2 3.7 6.5 6.8 7.2 6.8s1.1.4.7.9c-.5.9 6.6 12.7 9.9 16.3.9 1 1.4 1.8 1.2 1.8-.3 0 1.2 3.7 3.3 8.2 4.9 10.6 8.5 21.4 10.2 30.5.7 4 1.7 6.9 2.3 6.6.5-.3.7-.2.4.3s-.3 9.4.1 19.9c.4 10.6.3 19.3-.2 19.6s-.8 1.5-.6 2.5c.4 2.6-1.7 12.1-4.8 22.4-1.4 4.7-2.6 9.3-2.5 10.2 0 1-.4 1.8-.9 1.8-.6 0-.7.4-.4 1 .3.5.2 1-.4 1-.5 0-1.4 1.5-2 3.3-1.6 4.8-10.6 20.2-15.8 27-2.4 3.2-4.1 6.3-3.7 6.9s.3.8-.3.5c-.6-.4-3 1.5-5.4 4.1s-7.5 7.6-11.4 11.1c-3.8 3.5-6.9 6.8-6.7 7.3.1.5-.3.8-1 .6-.7-.1-4.4 1.9-8.3 4.4-3.8 2.5-9.9 6-13.5 7.8s-6.8 3.7-7.1 4.2-1 .9-1.5.9c-1.8-.2-10.4 3.1-10.4 4 0 .5-.8.8-1.7.7-2.8-.3-9.3 1.3-9.3 2.3 0 1.7 6.1 1.3 7.2-.4.4-.6 1-.8 1.4-.5.7.8 9.4-2.4 18.8-6.7 4.3-2 5.5-3 4.5-3.7s-.8-.8.7-.3c1.4.3 2.8-.1 3.8-1 .9-.9 1.6-1.4 1.6-1 0 .8 6.1-3.4 7.8-5.5 1.2-1.3 1.3-1.3.7 0-.4.8.3.4 1.5-1s2.5-2.4 2.9-2.3c1.3.3 10-7.1 9.4-8-.3-.6-.2-.7.4-.4.5.3 4.1-2.5 7.9-6.4s6-6.7 5-6.3c-1.3.5-1.7.4-1.2-.4.4-.7 1.4-1.2 2.2-1.2 2 0 14.4-17 13.6-18.8-.4-1.1-.1-1.3.8-.7q1.35.75.6-.3c-.4-.7-.2-1.2.3-1.2 1.5 0 8.3-13.9 7.5-15.2-.4-.6-.3-.8.3-.5 1.5 1 8.7-21.7 10.6-33.3 2-11.8 3.2-31 1.9-29.2-.6.9-.9-2.2-.9-8.5 0-7.4-.6-12.5-2.7-21.1-1.5-6.1-3.2-11.2-3.7-11.2-.4 0-.6-.6-.3-1.4s0-1.7-.5-2.1c-.6-.3-.9-1.1-.6-1.6.4-.5.2-.9-.4-.9s-.8-.6-.6-1.3c.7-1.6-11.8-26.3-13.2-26-.6.1-1-.5-.9-1.5 0-.9-.5-1.6-1.2-1.4-.8.1-1.1-.2-.7-.8.9-1.5-4.2-8-6.3-8-1.5 0-1.5-.2-.2-1s1.1-1.1-.7-1.6c-1.3-.4-2.1-1-1.8-1.4.8-1.3-10.6-13.1-11.9-12.3-.6.3-.8.2-.3-.2 1.1-1.3-2.3-4.4-4.1-3.8-1 .4-1.3.2-.8-.5 1.2-1.9-18.2-16-21.1-15.4-.8.2-1.2-.1-.9-.6.4-.6-.3-.8-1.6-.5-1.5.3-1.9.2-1.1-.4.9-.6-.4-1.7-4.3-3.6-3-1.5-5.3-2.3-4.9-1.7.8 1.3-.5 1.3-2.5 0-1.3-.9-1.3-1 0-1 1.2-.1 1.1-.3-.3-1.1-.9-.5-2.2-.7-2.7-.4-.6.3-1 .2-1-.4s-.7-.7-1.7-.4c-1.1.4-1.4.3-.9-.5.8-1.3-.9-1.7-5.4-1.3-1.8.1-2.1-.1-1.2-.7 1-.7.8-1.1-.9-1.5-1.4-.4-2.7-.1-3.1.6-.5.8-.8.7-.8-.6 0-.9-.6-1.7-1.4-1.7s-2-.2-2.8-.4c-.7-.2-2.4-.1-3.8.3m-97.6 4.5c-1.3 2.1-1.9 2.3-4.7 1.5-4-1.1-4.6-1.1-2.7.1 1.2.8 1.2 1-.3 1.6-.9.3-1.4 1-1.1 1.5s-.2.9-1.1.9-1.3.4-1 1c.3.5.1 1-.6 1s-1 .3-.6.6c.9.9 6.7-2.8 6-4-.4-.5.1-.7 1.1-.3.9.4 1.5.3 1.1-.3-.3-.5.3-.9 1.2-.8 1 0 4.5-1.1 7.7-2.5l5.9-2.4-4.6-.1c-3.9-.1-5 .3-6.3 2.2m-2.2 7.3c-.6.3-.9 1-.5 1.6s0 .8-1 .4c-1.1-.4-5.3 1.8-12.4 6.5-12.9 8.6-29.3 24.5-37.6 36.5-7.4 10.5-15.1 24.9-14.1 26.4q.6 1.05-.3.6c-.6-.4-1.3.1-1.5 1.1-.8 3 2 2.2 3.1-.9.5-1.5.7-3 .4-3.3-.4-.3-.1-.6.5-.6 1 0 2.8-3.8 2.4-5.3-.1-.4.3-.7.9-.7.5 0 .7-.5.4-1-.3-.6-.2-1 .3-1 1.7 0 5.2-6.8 3.9-7.4-.7-.3-.6-.5.3-.5.8-.1 3.2-2.6 5.3-5.5 2-3 6-8 8.8-11 2.8-3.1 4.8-5.6 4.5-5.6s.2-.8 1.2-1.8c.9-1 1.9-1.7 2.1-1.5.8.6 9-8 8.5-8.9-.4-.5 0-.8.7-.6.8.1 4.3-1.8 7.9-4.4 3.6-2.5 10-6.5 14.3-8.8 4.2-2.3 7.7-4.2 7.7-4.3 0-.4-4.6-.4-5.8 0m-17.1 3.9c.8 1 .5 1.5-1.5 2-1.4.3-2.6 1.3-2.6 2.2 0 1.4.2 1.4 1.8 0 .9-.9 3.3-2.5 5.2-3.7l3.5-2.1-3.8.2c-2.9.1-3.4.4-2.6 1.4m167.7-.8c-1.4.6-1.2 1.1 1.6 2.9 1.9 1.2 3.8 1.8 4.5 1.3.9-.5.4-1-1.4-1.4q-2.7-.75-2.1-2.1c.6-1.6.1-1.7-2.6-.7m8.7 7.7c1.7 1.5 6.1 5.4 9.9 8.8 3.7 3.3 10.2 10.1 14.4 15.1s7.9 9.1 8.3 9.1 1.1.3 1.5.7c.4.5.2.8-.4.8-.7 0-.3 1.4 1 3.5 1.3 1.9 2.8 3.3 3.3 3.2 1.4-.5 1.9-9.7.6-9.7-.6 0-1.1-.6-1.1-1.4 0-1-1.5-1.7-4.4-2.1-3.9-.6-4.5-1-5-3.7-.4-2.1-1-2.8-2.1-2.5-.8.4-1.7.2-2-.3-.3-.4.1-1.1.7-1.3.7-.3.5-.6-.6-.6-1.1-.1-1.7-.4-1.3-.7.8-.8-1.8-3.4-3.4-3.4-.8 0-1-1.1-.6-3.6.6-3.5.5-3.6-2.3-3.2-1.6.3-2.6 0-2.3-.5s-.4-.6-1.7-.2c-1.6.5-2.1.4-1.8-.6.6-1.8-1.6-3.9-4.1-3.9-1.1 0-2.4-.6-2.8-1.3s-2.1-2.1-3.8-3l-3-1.8zm-189.5 0c-1 1.2-1 1.5 0 1.5.9 0 1 .3.1 1.3-.6.8-1 1.6-.8 1.8.1.2-.3-.1-.9-.8-1.8-2-2.4-1.5-2.4 1.8 0 1.7-.4 2.8-1 2.4-.5-.3-1.5-.3-2.1.1-.8.4-.7.9.2 1.5 1.4.8 1.4.8-3.6 2.4-.8.2-1.2 1.1-.9 1.9.8 2-1.4 3-3.2 1.5-2-1.6-2.8-.5-1.4 2.1 1.1 2 1.5 1.8 9.3-5.6 4.5-4.3 8.4-8.2 8.6-8.7.2-.4 1.4-1.3 2.8-1.8 2.9-1.1 2.8-1.4-.8-2.2-1.8-.5-3.1-.2-3.9.8m-17.9 20.1c1.2 1.5 1.1 1.6-1.1.9-1.4-.4-2.2-.4-1.8 0 .8.9-1.5 3.5-3.1 3.5-.6 0-1.1.4-1.1 1 0 .5.8 1 1.8 1 1.3 0 1.4.2.3.9-.8.5-.9 1.1-.3 1.5 1.4.8 3.5-2 2.6-3.5q-.6-1.05.3-.6c1.5.9 4.7-2.9 4-4.8-.4-.8-1.2-1.5-1.8-1.5-.8 0-.7.5.2 1.6m-9.3 12.6c.9.9 1.5.9 2.4 0s.7-1.2-1.2-1.2-2.1.3-1.2 1.2m-2.5 2.5c-1.5.3-2.3 1.2-2.3 2.4 0 1.4.6 1.9 1.8 1.7.9-.2 1.6-.7 1.4-1.2-.2-.4.5-1.4 1.5-2.2 1.8-1.4 1.5-1.5-2.4-.7m-3.5 8.3c-1.5 1.7-2.2 3-1.5 3s2.1-1.4 3-3c2.3-3.8 1.9-3.8-1.5 0m263.7 5.2c2 3.9 3.6 5.8 5 5.9 1.5.1 1.6.2.4.6-1.5.3-1.3 1.2 1.2 7.1 1.5 3.7 3.9 10.5 5.3 15.2s2.4 6.9 2.2 5-.7-4.3-1.1-5.4c-.9-2 .8-3.6 3.8-3.6 2.3 0 2.2-1.6-.3-2.3-2-.5-2.9-3.7-1-3.7.6 0 1-.5 1-1 0-.6-.9-1-2-1s-2-.5-2-1c0-.6-.6-1-1.3-1-1.1 0-1.3-1.8-.9-8 .4-7.5.3-8-1.6-8-1.1 0-2.2-.3-2.4-.8-.1-.4-2.3-1.4-4.8-2.2l-4.5-1.6zm-266-.1c-.4.6-.5 1.2-.2 1.5.2.3.7-.2 1-1.1.7-1.7.1-2-.8-.4m-3.2 3.4c.4.8.2 1.7-.4 2-.5.4-.6 1.1-.3 1.7.4.6 1.2.1 2-1.3 1.3-2.5 1-3.9-.8-3.9-.5 0-.8.7-.5 1.5m-4.4 7.7c0 .2-.3 1.5-.5 3-.6 3.7 1.1 3.6 2.5-.2.8-2.4.7-3-.5-3-.7 0-1.4.1-1.5.2m2.8 11.1c-.9 2.8-1.4 5.4-1.1 5.9.3.4.1.8-.4.8-1.4 0-2.1 5-1.2 7.4l.9 2.1v-2.1c.1-1.1 1.4-5.9 3-10.5 2-6 2.5-8.6 1.6-8.6-.7 0-1.9 2.3-2.8 5M168 198c-1.4.4-1.8.9-1 .9 1.2.1 1.2.3.2 1-1.1.6-1 1 .4 1.5.9.3 1.8.5 1.9.4.5-.5 1.6-4.8 1.3-4.7-.2.1-1.4.5-2.8.9m-2 6.9c0 1.1.5 2.3 1 2.6.6.3 1 .2 1-.4 0-.5.3-1.6.6-2.5.4-1.1.1-1.6-1-1.6-.9 0-1.6.8-1.6 1.9m139.7 5.8c-.4.3-.7 1.9-.7 3.5 0 2.7-.2 2.8-5 2.8-6.2 0-6.2-.2-5.8 19.5l.3 15 3-.4c4.3-.5 16.6-.5 19 0 1.6.3 2.1-.2 2.3-2.9.3-2.9.7-3.2 3.8-3.4 5.6-.2 5.9-.3 6.6-1.3.4-.6.8-6.4.8-13v-12.1l-4.3-4.2c-4.3-4.2-4.3-4.2-11.8-4.2-4.2 0-7.9.3-8.2.7m16.6 1c.3.5-1.6.7-4.1.5-7.3-.5-8.2-1-2-1.1 3.1 0 5.9.2 6.1.6m-7.7 1.3h4.4v4c0 2.2.4 4 .9 4 .6 0 .7-1.6.4-3.5-.7-4.1.5-4.4 3.6-1.1 2.2 2.3 2.2 2.5.4 3.5-1.6 1-1.6 1 .5 1.1 2.3 0 2.3.1 2 10.5-.2 6.3.1 10.6.7 10.8s.1.3-1 .1-3.2-.4-4.7-.4H319v-8.3c0-8.1-.1-8.4-3.2-11.3-2.4-2.3-3-2.5-2.4-.9.4 1.1.3 1.6-.1 1.1-.4-.4-.8-1.8-.8-2.9 0-1.5-.7-2.3-2.1-2.5-1.9-.3-2.1.2-2.1 5.5 0 3.7.1 4.4.4 2 .5-4.4 1.1-4.6 4.3-1.2 1.3 1.4 3.1 2.5 3.9 2.6 1.1 0 1.2.2.4.6-1.6.6-1.8 22-.3 22.5.6.1-3.4.2-8.7 0-6.9-.3-10.1-.8-10.9-1.8-.6-.7-1.4-1.1-1.7-.7-.4.3-.7-5.3-.7-12.5 0-7.8.4-13.3 1-13.7s.7-1.2.4-1.8c-.5-.8-.3-.8.7 0 .7.7 3.3 1.3 5.9 1.3 2.8 0 4-.3 3.2-.9-1.1-.6-1-1 .3-1.5 1.2-.4 1.6-1.4 1.2-3.2-.3-1.9-.1-2.4 1-2 .8.3 3.5.6 5.9.6m3.1 32.2c-.3.7-.5.2-.5-1.2s.2-1.9.5-1.3c.2.7.2 1.9 0 2.5"/><path d="M296.3 234c0 4.7.2 6.6.4 4.2.2-2.3.2-6.1 0-8.5-.2-2.3-.4-.4-.4 4.3m15-6.3c.9.2 2.3.2 3 0 .6-.3-.1-.5-1.8-.5-1.6 0-2.2.2-1.2.5M164 214.4c0 .8-.6 1.7-1.2 1.9-1 .4-.9.8.2 1.6 1 .7 1.1 1.1.3 1.1-.7 0-1.3.7-1.3 1.5 0 2.9 1.9 1.5 2.9-2.3 1.3-4.6 1.3-5.2.1-5.2-.5 0-1 .6-1 1.4m297 4.1c0 .8.5 1.5 1 1.5.6 0 1-.7 1-1.5s-.4-1.5-1-1.5c-.5 0-1 .7-1 1.5m-292.4 1.2c-2.4 7.9-3.6 33.1-2.3 45.3 1.4 11.8 1.8 14.5 2.5 15 .4.3.8 2 .9 3.9.3 4.6 6.2 22.1 7.4 22.1.6 0 .8.4.5.8-1.5 2.4 11.4 24.4 21.4 36.7 10.1 12.4 29.1 28.8 31 26.9.6-.6-1.2-2.6-4.9-5.2-3.2-2.4-10.1-8.5-15.2-13.7-5.1-5.1-9.7-9.1-10.2-8.8-.4.3-.7-.3-.5-1.3.2-1.1-.6-2.3-1.9-2.9-1.3-.7-2.1-1.4-1.8-1.7s-1.5-3.6-4-7.4c-10.4-15.6-19.1-37.8-21.9-55.9-1.7-10.9-2.6-40.6-1.2-39.8.4.3.7-1.3.4-3.6-.2-2.2-.1-4.2.3-4.3 1.1-.5 2.1-7.8 1-7.8-.5 0-1.2.8-1.5 1.7m290.5-.1c0 1.1.3 1.4.6.6.3-.7.2-1.6-.1-1.9-.3-.4-.6.2-.5 1.3m1.3 5.6c.3 1.7.8 3.4 1.1 3.6 1.1 1.1 1.6-.9 1-3.7-.9-4.2-2.9-4.1-2.1.1m-298.4-.7c0 .8.5 1.5 1 1.5.6 0 1-.7 1-1.5s-.4-1.5-1-1.5c-.5 0-1 .7-1 1.5m.2 5.5c0 1.9.2 2.7.5 1.7.2-.9.2-2.5 0-3.5-.3-.9-.5-.1-.5 1.8m299 2c0 1.4.2 1.9.5 1.2.2-.6.2-1.8 0-2.5-.3-.6-.5-.1-.5 1.3M158 242.6c0 1.9.4 3.4.8 3.4.5 0 .5 2.1.1 4.7-1.2 7.5-1.1 8.6.7 7.9 1.2-.4 1.5-.2 1.1.9-.4.8-.2 1.7.3 2 .6.4 1-3.8 1-10.7 0-10.7-.1-11.4-2-11.5-1.6-.1-2 .4-2 3.3m304.4 7.9c0 6.6.1 9.2.3 5.7.2-3.4.2-8.8 0-12-.2-3.1-.3-.3-.3 6.3m-97.9 12.2c-.4 1.3-1.5 2.3-2.4 2.4-1.2 0-1.1.2.4.8l2 .8-2 .5c-1.6.5-1.7.6-.2.7 1.4.1 1.7 1.1 1.7 5.4 0 3.1.6 6.1 1.5 7.3.8 1 1.5 1.4 1.5.9 0-.6.4-.5.8.2.8 1.3 5.2.7 5.2-.8 0-.4-1.5-.9-3.2-1.1-3.3-.3-3.3-.4-3.6-6.1-.3-5.5-.2-5.7 2.3-5.7 1.6 0 2.5-.6 2.5-1.5s-.9-1.5-2.4-1.5c-1.8 0-2.6-.7-2.9-2.3l-.4-2.2zM224 265.3c-1.3.7-3 2.8-3.8 4.8-2.6 6.9 2.3 13.5 9.1 12.2 5.7-1.1 2.3-2.6-5.8-2.6-.5 0-1.1-.9-1.2-2.1s-.3-2.8-.4-3.6-.1-2.7-.1-4.1c.2-2.3.6-2.6 4.4-2.7 2.3-.1 4.6-.6 5.1-1.1s-.4-.7-2-.4c-2.2.4-2.5.2-1.3-.6 1.3-1 1.3-1.1 0-1.1-.8 0-2.6.6-4 1.3m16.4-.3c-8.7 3.5-6.2 17.2 3 17.2q8.1 0 8.1-8.7c0-6.7-5.5-10.9-11.1-8.5m7.6 3c1.4.4 2 .8 1.3.9-.8.1-.8.8 0 3 2.1 5.7-3.6 10.1-9.4 7.1-1-.6-1.9-1.8-1.9-2.8 0-1.5-.2-1.5-1-.2-1.6 2.4 0-4.1 1.6-6.8 1.5-2.3 4.6-2.7 9.4-1.2m15-3.2c-3.9 1.3-8.2 9.2-5 9.2.6 0 1-1 1-2.3 0-3.1 1.8-4.7 5.1-4.7 4.9 0 7.5 6.2 4.4 10.6-.8 1.2-1.1 2.5-.7 2.9 1 1.1-6.1-.5-7.5-1.7-.7-.6-1.3-1.7-1.3-2.4 0-.8-.4-1.4-1-1.4s-1 3.2-1 7.5c0 4.9.4 7.5 1.1 7.5.8 0 1-1.6.6-5-.3-2.8-.5-5-.3-5s1.7.7 3.4 1.6c3.5 1.7 6 .9 8.6-2.8 1.8-2.5 2.2-8.8.6-8.8-.5 0-.9-.3-.9-.8.4-2.1-.4-3.1-2.8-3.9-1.6-.6-3.5-.8-4.3-.5m47.5.9c-1.4 1.4-2 1.4-3.7.4-2.3-1.4-3.7-.6-2 1.1.8.8 1.2 5 1.2 12 0 6.5.4 10.8 1 10.8s1-2 1-4.4v-4.4l4.3.5c5.5.7 8.2-2 8.2-8.2 0-4.6-2.8-9-5.2-8.1-.7.3-1.3.1-1.3-.4 0-1.5-1.7-1.2-3.5.7m6.3 1c-.1.5.4 2.1 1 3.6 1.3 3 .7 7-1.1 8.5-2 1.6-6.3 1.9-7.5.6-.7-.7-1.2-3.6-1.2-6.3 0-5.4-.4-5 6.5-6.4 1.1-.3 2.1-.5 2.3-.6q.15 0 0 .6M331 265c0 .6-.4.9-.9.5-.5-.3-1.9.7-3 2.1-2.4 3-2.7 9-.7 11.6 1.6 2.2 6.6 4.2 6.6 2.7 0-.6.5-.7 1-.4.6.4 1.7.1 2.5-.5 1.2-1 1.8-1 3 0 1.9 1.6 3.2.6 1.7-1.2-.6-.8-1.2-4.3-1.4-8-.2-5.1-.6-6.6-1.8-6.6-.8.1-2.7-.3-4.2-.7-1.9-.5-2.8-.3-2.8.5m6.8 7.6c.3 5.8-1.1 7.7-5.8 7.8-1.5.1-2.8-.1-2.7-.4s-.5-1.6-1.3-3c-1.2-2.3-2.2-7.5-1.1-6.5.2.3 1.1-.4 1.9-1.6 1-1.5 2.3-1.9 5-1.7 3.7.3 3.7.3 4 5.4m14-7.9c.6.2 1.8.2 2.5 0 .6-.3.1-.5-1.3-.5s-1.9.2-1.2.5m29.7.3c-.4.6-1 .8-1.4.5-1.8-1.1-4.6 3.8-4.6 8 0 4 2.9 9.4 4.3 8 .3-.3 1-.1 1.6.4 1.4 1.1 6.6.2 6.6-1.1 0-.6-1.4-.8-3.5-.5-2.9.5-3.8.1-5.5-2-2.5-3.1-1.4-4.3 3.7-3.8 1.8.2 3.5-.1 3.8-.6.3-.4 1.3-.5 2.2-.2 1.4.5 1.5.1 1-2.8-1-5-6.4-8.8-8.2-5.9m6 4c1.5 1.7 1.6 2 .3 2.5-.9.4-3.6.5-6.2.3-4.6-.3-4.6-.3-3.1-2.6 2-2.8 6.5-2.9 9-.2m12.5-3c-2.4 2.4-3 2.5-3 .5 0-.8-.4-1.5-1-1.5s-1 3.5-1 8.5c0 9.6 1.6 11.6 2.2 2.6.1-3.3 0-5.7-.4-5.4-.5.2-.8 0-.8-.5s1.8-1.5 4-2.2 4-1.9 4-2.7c0-1.9-1.7-1.6-4 .7m-144.8.1c.2.7 1 1.5 1.7 1.7.8.3 1.2-.1.9-.9-.2-.7-1-1.5-1.7-1.7-.8-.3-1.2.1-.9.9m19.7 1.1c.5 1.3 2.3 5.3 4 9 2.5 5.2 3 7.2 2.2 8.6-.6 1.1-.8 2.2-.5 2.5s-.1.5-.8.4c-3.5-.1-5.8.4-5.8 1.3 0 .5 1.4 1 3 1 2.3 0 3.5-.7 5-3.3 1.1-1.7 1.8-3.8 1.5-4.5s-.1-1.1.3-.8c.7.4 4.7-9.5 4.7-11.6 0-.3.3-1 .8-1.4.9-1 .9-3.4-.1-3.4-.4 0-1.8 2.9-3 6.4-1.8 4.9-2.8 6.4-4.1 6.3-1.2-.1-1.8-.9-1.8-2.5 0-1.3-.7-2.8-1.4-3.3-.8-.5-1.1-.9-.6-.9.4 0 .1-1.4-.8-3-1.8-3.5-3.9-4.1-2.6-.8m8.8 12.4c-.3.3-1.2.4-1.9.1-.8-.3-.5-.6.6-.6 1.1-.1 1.7.2 1.3.5m64.4-13.1c-.4.5-.8 2-.9 3.3-.1 1.8.9 2.8 4.3 4.4 2.4 1.2 4.7 2.8 4.9 3.5.7 1.7-3.5 2.7-7.5 1.9-2.2-.4-2.9-.2-2.6.7.2.6 1.3 1.2 2.5 1.1 1.2 0 1.9.3 1.6.8s.7.6 2.3.2c6.8-1.7 7.1-6.8.5-9.9-5.2-2.4-5.3-4.9-.2-5.3 5.3-.5 5.6-1.8.4-1.7-2.5 0-4.9.4-5.3 1m113.5 0c-.3.9-.6 2.2-.5 2.8 0 .7.5.1 1-1.2s.8-2.6.5-2.8c-.2-.2-.6.3-1 1.2m-299.4 3c0 1.6.2 2.2.5 1.2.2-.9.2-2.3 0-3-.3-.6-.5.1-.5 1.8m298.2 4.8c-.8 3.4.1 4.6 1.4 2 .6-1.1.7-2.5.2-3.3-.6-1-1-.7-1.6 1.3M162 275.5c0 .8.5 1.5 1 1.5.6 0 1-.7 1-1.5s-.4-1.5-1-1.5c-.5 0-1 .7-1 1.5m0 3.5c0 .5.5 1 1 1 .6 0 1 .7 1 1.5s-.4 1.5-1 1.5c-.5 0-1 .9-1 2s.5 2 1 2c.6 0 1-.5 1-1.1 0-.5.5-.7 1.1-.3.7.4.9-.1.5-1.5-.3-1.1-.9-3-1.2-4.1-.5-2-2.4-2.8-2.4-1m297.7.7c-.4.3-.7 1.3-.7 2.2.1 1.3.3 1.3 1.1-.2 1.1-1.9.8-3.3-.4-2m1.3 2.3c0 .5.5 1 1 1 .6 0 1-.5 1-1 0-.6-.4-1-1-1-.5 0-1 .4-1 1m-2.9 3.2c-.1 1-1.4 5.8-3 10.8-1.6 4.9-2.4 8.7-1.9 8.4.6-.4.8-.1.6.7-.3.8-1.1 1.3-1.7 1.1-.6-.1-1.1.5-1.1 1.4s.5 1.2 1.2.8.8-.3.4.5c-.4.6-1.1.9-1.5.7-.4-.3-1.5 1-2.4 2.9-1.2 2.5-1.3 3.5-.4 3.9.7.3.6.5-.4.5-1.5.1-6.4 8.6-6.2 10.8 0 .7-.2 1.1-.6.9-.3-.3-1.7 1.2-3 3.1-1.2 1.9-1.7 3.2-.9 2.8.7-.3 0 .3-1.5 1.5-2 1.6-2.6 2.8-2.2 4.4.5 1.5.4 1.7-.3.7-.8-1-1.3-.9-2.5.9-.9 1.2-1.3 3-1 3.9.4 1.2.3 1.3-.5.2-1.2-1.6-2.7.3-1.6 2.1.5.8.2.9-.9.5-1-.4-1.7-.1-1.7.6s-.9 1.8-2 2.5c-1.2.7-1.8 1.8-1.4 2.4s.3.8-.3.5c-1.3-.8-4.6 2.7-3.6 3.8.5.4.3.5-.4.2-.6-.4-2.2.5-3.5 2.1-1.2 1.5-2.6 2.8-3.1 3-2 .5-8.6 6.6-8 7.5.3.6.1.7-.4.4-.6-.4-4.1 1.4-7.9 3.9-8.4 5.5-24.4 13.4-33.9 16.5-3.8 1.3-7.2 2.6-7.5 2.9s-2 .6-3.9.8c-1.8.1-4.1.7-5 1.2-1.3.8-1.1.9 1.1 1 1.5 0 2.9-.4 3.3-1 .3-.5 1.2-.7 1.9-.4s3.3-.2 5.7-1c5.8-2.1 6.9-2 6.9.4 0 1.1.7 2 1.5 2s1.5.9 1.5 2c0 1.9.7 2 10.5 2H387v-10.4c0-10.3 1.4-14.9 2.6-8.7.5 2.4 1.2 3.1 2.9 3.1 1.9 0 2.4-.7 3-3.9.4-2.5 1.3-4.2 2.3-4.4 1.4-.4 1.3-.5-.3-.6-1.8-.1-1.8-.2.3-1.7 2.4-1.6 4.2-1.2 4.2 1.2 0 .8.9 1.4 2 1.4 1.3 0 2 .7 2 2 0 1.7.7 2 4.5 2h4.5v-6c0-3.3-.4-6-1-6-.5 0-1-.6-1-1.4 0-1.8 3.2-2.6 11.3-2.6h6.7v-10h4c2.2 0 4-.5 4-1 0-.6.9-1 2-1 1.7 0 2-.7 2-4s-.3-4-2-4c-1.8 0-2-.6-1.8-5.6s.4-5.5 2.3-5c1.6.4 2.3-.2 3.4-3.2.7-2 1.5-5.7 1.6-8.2.2-2.5.4-4.8.4-5.3.2-1.7 3.1-.5 3.1 1.3 0 1.7.7 2 4.5 2h4.5v-4c0-3.3-.4-4-1.9-4-2.6 0-3.4-3.8-1.2-6.1 1-1.1 2.8-4.2 4.1-6.9 1.3-2.8 3-5 3.9-5.1 1.1 0 1.2-.2.4-.6-.7-.2-1.3-1.1-1.3-1.8s.6-1.6 1.3-1.9c1-.5 1-.7 0-1.2-.7-.3-1.3-1.4-1.3-2.5 0-1.2-.7-1.9-1.9-1.9-1.1 0-2.2-.6-2.4-1.3-.3-.7-.6-.5-.6.5m-292 4.4c0 1.1.3 1.4.6.6.3-.7.2-1.6-.1-1.9-.3-.4-.6.2-.5 1.3m.4 3.4c.3.5.8 1 1.1 1 .2 0 .4-.5.4-1 0-.6-.5-1-1.1-1-.5 0-.7.4-.4 1m1.1 3.5c.4.8.1 1.5-.5 1.5s-1.1 1.1-1.1 2.5c0 2.8 2 3.5 2.1.7 0-1 .3-1.2.6-.5 1.1 2.9 2 1 1-2.2-.6-1.9-1.4-3.5-1.8-3.5-.5 0-.6.7-.3 1.5m2.4 7.8c0 .9.5 1.7 1 1.7 1.1 0 .9 2.2-.2 3-.3.3.4 1 1.7 1.6l2.3 1.1-1.5-3.6c-1.8-4.4-3.3-6.1-3.3-3.8m4 9.4c.1 1.1 2.6 4.3 3.3 4.3.4 0 .1-1.1-.5-2.5-1-2.3-2.8-3.5-2.8-1.8m4 7.6c0 1.5.6 2.7 1.3 2.7.9 0 .9.2-.1.9-1 .6-.7 1 1.1 1.3l2.4.5-2-3.6c-2.8-4.8-2.7-4.8-2.7-1.8m4.3 8.7c-.1 1.1.2 2 .8 2 .5 0 1.8.9 3 2.1 1.6 1.6 1.8 2.3.8 3.5-1.2 1.5-.2 1.9 1.7.6.8-.5.5-1.7-1.1-3.9-1.2-1.8-2.5-3-2.8-2.6-.4.3-.7-.3-.7-1.5 0-2.8-1.5-2.9-1.7-.2m8.1 12.4c.1 3.2.4 3.6 2.8 3.6 1.5 0 3 .4 3.3 1 .3.5-.3 1-1.4 1q-2.1 0-1.5 1.5c.4.9 1.3 1.3 2.4 1 2-.6 3.4 2.7 1.9 4.2-.5.5-.6 2.4-.3 4.1.6 3.2.7 3.2 7.1 3.2 4 0 6.2.4 5.8 1-.3.5-.1 1 .5 1s.8.5.4 1.1c-.4.7-.1 1 .7.7s2.2.6 3.2 1.9 2.8 2.3 4 2.3c1.8 0 1.6-.5-1.8-3.2-2.2-1.8-6.7-5.8-10.1-9-3.3-3.2-6.4-5.5-6.9-5-.4.4-.5.2-.2-.4s-1.2-3.3-3.4-6c-6.6-8.1-6.7-8.1-6.5-4m40.2 28.5c-.7 1.1 8.9 7.3 9.8 6.4.3-.4.6-.2.6.4 0 1.3 6 3.9 7.9 3.5.7-.2 1.1.1.8.6-.4.4.4.8 1.6.8 1.3-.1 2.1.4 2 1.1-.2.7.2 1.4.7 1.4 1.9.3 2.5.5 4.8 1.8 1.3.7 3 1 3.8.7s1.3-.2 1 .3c-.7 1 14.1 5.3 18.7 5.5 1.7.1 3.4.4 3.7.7.9 1.1 9 2 9 1 0-.6 1.6-.3 3.5.5 3.9 1.6 26.6 2 23 .4-1.3-.6.1-.8 4.5-.5 3.6.2 5.4.1 4.1-.1-1.9-.5-2.1-.8-1-1.6 1-.6.2-.7-2.5-.3-2.2.4-6.6.8-9.8 1s-6.7.7-7.8 1c-1.2.4-2 .2-2-.5s-1.5-1.1-3.7-.9c-2.1.1-4.6-.2-5.6-.6-.9-.4-2.7-.5-3.9-.2-1.2.4-2.8.1-3.5-.5-.8-.6-1.6-.8-1.9-.5s-1.6.2-2.8-.2c-4.5-1.7-7.8-2.2-7.1-1.1.3.5.2 1-.3 1-.6 0-1.2-.6-1.5-1.4-.7-1.8-5.3-2.6-6.7-1.2-.8.8-1.1.8-.8-.2.2-.8-2.2-2.2-6.2-3.6-3.6-1.3-8.3-3.2-10.5-4.3s-4.7-1.8-5.5-1.5c-.8.2-1.2.1-.8-.3s-2.7-2.7-6.9-5.1c-8.6-4.9-8-4.7-8.7-3.5m-7.2 1.6c.8.8 1.8 1.5 2.2 1.5.3 0 .1-.7-.6-1.5s-1.7-1.5-2.2-1.5-.3.7.6 1.5m3.3 2.3c-.2.4-.4 2.2-.5 3.9-.2 3.2-.1 3.3 3.8 3.3 3.3 0 4 .3 4 2s.7 2 4.3 2c4.2 0 9-1.8 5.7-2.1-.8-.1-1.8-.1-2.2 0-.5 0-.8-.4-.8-1 0-.5-.5-.7-1-.4-.6.3-1.3-.1-1.6-.9-.3-.9-1-1.3-1.5-1s-.9.1-.9-.4c0-.6-.8-.8-1.8-.5-1 .2-2.5-.3-3.3-1.3-1.3-1.6-1.2-1.6.9-.5 3.5 1.9 2.6.5-1.3-1.8-1.9-1.1-3.6-1.7-3.8-1.3m19.3 11.8c0 .8 1.1 1.9 2.5 2.4 1.6.6 2.5 1.7 2.5 3.1 0 1.9.5 2.1 5.2 1.7 5.1-.3 5.2-.3 6 2.9.5 1.9 1.5 3.3 2.3 3.3s1.5.4 1.5 1c0 .5 1.6 1 3.5 1s3.5.4 3.5 1c0 .5 1.2 1 2.6 1 2.6 0 5.4-2 5.4-3.9 0-1.3 2.7-1.3 5.5-.1 1.7.7 1.7.9.3.9-1 .1-1.8.6-1.8 1.2 0 .7.7.8 1.8.4.9-.4 2.8-.7 4.2-.6 2 .1 2.2-.1 1-.9-1.2-.7-.8-1 1.5-1 2.4 0 2.7.2 1.5 1.1s-1.2 1 .3.5c1-.3 2.4-.6 3-.6.8 0 .8-.3 0-1.1-.6-.6-3-1-5.2-.7-2.3.2-4.1 0-4.1-.3 0-.9-9.5-2.3-13.5-2-2.4.1-2.7 0-1.5-.9s.9-1-1.5-.5c-1.6.4-2.6.3-2.2-.1.9-1-9.1-4.6-10.4-3.8-.5.3-.9.1-.9-.4 0-1.4-8.7-4.5-10.1-3.6q-1.05.6-.6-.3c.4-.6 0-1.3-.8-1.7-.9-.3-1.5 0-1.5 1m98 4.3c0 .5-.9.7-2 .4s-2-.1-2 .4-1.3.8-2.9.5c-1.9-.3-3 .1-3.4 1.2-.8 1.9 1 2 6.8.5 2.2-.6 4.8-1 5.7-1 1.1 0 1.5-.6 1.1-1.5-.6-1.5-3.3-2-3.3-.5m-14 8-4.5.6 3.4 1.3c1.9.6 5 1.2 7 1.2 3.3-.1 3.4-.2 1.8-1.4-1.8-1.4-1.8-1.4 0-1.9 2.6-.7-2.1-.5-7.7.2m-27.5 2.1c1.9.8 10.3 1.4 9.4.6-.2-.2-2.9-.6-5.9-.9-3.4-.3-4.7-.2-3.5.3m12 0c-.8 1.3 5.5 1.3 7.5 0 1.1-.7.4-1-2.7-1-2.3 0-4.5.4-4.8 1"/></g><path fill="gray" d="M298.8 100.7c.7.3 1.6.2 1.9-.1.4-.3-.2-.6-1.3-.5-1.1 0-1.4.3-.6.6m25 0c.7.3 1.6.2 1.9-.1.4-.3-.2-.6-1.3-.5-1.1 0-1.4.3-.6.6m-24 3c.7.3 1.6.2 1.9-.1.4-.3-.2-.6-1.3-.5-1.1 0-1.4.3-.6.6m24 0c.7.3 1.6.2 1.9-.1.4-.3-.2-.6-1.3-.5-1.1 0-1.4.3-.6.6m-25 3c.6.2 1.8.2 2.5 0 .6-.3.1-.5-1.3-.5s-1.9.2-1.2.5m25 0c.7.3 1.6.2 1.9-.1.4-.3-.2-.6-1.3-.5-1.1 0-1.4.3-.6.6m76.2 21.7c0 .2.8 1 1.8 1.7 1.5 1.3 1.6 1.2.3-.4s-2.1-2.1-2.1-1.3m-183.1 9.3c-1.3 1.6-1.2 1.7.4.4.9-.7 1.7-1.5 1.7-1.7 0-.8-.8-.3-2.1 1.3m188.1-1.3c0 .2.8 1 1.8 1.7 1.5 1.3 1.6 1.2.3-.4s-2.1-2.1-2.1-1.3m-200 8.1c-4.1 4.1-7.2 7.5-6.9 7.5.2 0 3.8-3.4 7.9-7.5s7.2-7.5 6.9-7.5c-.2 0-3.8 3.4-7.9 7.5m208-5c1.3 1.4 2.6 2.5 2.8 2.5.3 0-.5-1.1-1.8-2.5s-2.6-2.5-2.8-2.5c-.3 0 .5 1.1 1.8 2.5m-194.1.2c-1.3 1.6-1.2 1.7.4.4s2.1-2.1 1.3-2.1c-.2 0-1 .8-1.7 1.7m184.1-1.3c0 .2.8 1 1.8 1.7 1.5 1.3 1.6 1.2.3-.4s-2.1-2.1-2.1-1.3m-195.1 7.3-2.4 2.8 2.8-2.4c2.5-2.3 3.2-3.1 2.4-3.1-.2 0-1.4 1.2-2.8 2.7m205.1-2.3c0 .2.8 1 1.8 1.7 1.5 1.3 1.6 1.2.3-.4s-2.1-2.1-2.1-1.3m9 5.1c1.3 1.4 2.6 2.5 2.8 2.5.3 0-.5-1.1-1.8-2.5s-2.6-2.5-2.8-2.5c-.3 0 .5 1.1 1.8 2.5m-213.1.2c-1.3 1.6-1.2 1.7.4.4s2.1-2.1 1.3-2.1c-.2 0-1 .8-1.7 1.7m214.6 6.3c1 1.1 2 2 2.3 2s-.3-.9-1.3-2-2-2-2.3-2 .3.9 1.3 2m-224.6.7c-1.3 1.6-1.2 1.7.4.4.9-.7 1.7-1.5 1.7-1.7 0-.8-.8-.3-2.1 1.3m2 2c-1.3 1.6-1.2 1.7.4.4.9-.7 1.7-1.5 1.7-1.7 0-.8-.8-.3-2.1 1.3m226.1 1.7c0 .2.8 1 1.8 1.7 1.5 1.3 1.6 1.2.3-.4s-2.1-2.1-2.1-1.3m-230.1 3.3c-1.3 1.6-1.2 1.7.4.4.9-.7 1.7-1.5 1.7-1.7 0-.8-.8-.3-2.1 1.3m228.1-1.3c0 .2.8 1 1.8 1.7 1.5 1.3 1.6 1.2.3-.4s-2.1-2.1-2.1-1.3m13 19.5c0 .6.4 1.3 1 1.6s.7-.1.4-.9c-.7-1.8-1.4-2.1-1.4-.7m8 9.6c0 .5.5 1.7 1 2.5s1 1 1 .5c0-.6-.5-1.7-1-2.5s-1-1.1-1-.5m7.1 20.1c0 1.1.3 1.4.6.6.3-.7.2-1.6-.1-1.9-.3-.4-.6.2-.5 1.3M325.5 214c2.1 2.2 4.1 4 4.4 4s-1.3-1.8-3.4-4-4.1-4-4.4-4 1.3 1.8 3.4 4m128.6.6c0 1.1.3 1.4.6.6.3-.7.2-1.6-.1-1.9-.3-.4-.6.2-.5 1.3m-133.9 2.1c.2 1.8 1 2.9 2.2 3.1 2.8.6 4-1.3 1.9-2.9-1.6-1.3-1.7-1.2-.4.3 1.2 1.6 1.1 1.8-.9 1.8-1.8 0-2.1-.4-1.8-2.5.3-1.4.1-2.5-.4-2.5s-.8 1.2-.6 2.7m-152.1 1.9c0 1.1.3 1.4.6.6.3-.7.2-1.6-.1-1.9-.3-.4-.6.2-.5 1.3m287 0c0 1.1.3 1.4.6.6.3-.7.2-1.6-.1-1.9-.3-.4-.6.2-.5 1.3m-142.1.7c0 .2 1.5 1.6 3.3 3.3l3.2 2.9-2.9-3.3c-2.8-3-3.6-3.7-3.6-2.9m-148.9 2.3c0 1.1.3 1.4.6.6.3-.7.2-1.6-.1-1.9-.3-.4-.6.2-.5 1.3m133.1 12.1c-.1 7.8.1 14.4.6 14.6.4.3.6-3.8.4-9.1-.5-17.9-.8-19.8-1-5.5m-127.1-11.1c0 1.1.3 1.4.6.6.3-.7.2-1.6-.1-1.9-.3-.4-.6.2-.5 1.3m139.1 1.4c0 1.9.2 2.7.5 1.7.2-.9.2-2.5 0-3.5-.3-.9-.5-.1-.5 1.8m17 6.7-.2 10.2-3.7.4-3.8.4 3.8.1c2.3.1 4-.3 4.3-1.1s.3-5.6.1-10.8l-.3-9.4zm126.9-8.1c0 1.1.3 1.4.6.6.3-.7.2-1.6-.1-1.9-.3-.4-.6.2-.5 1.3m-286 1c0 1.1.3 1.4.6.6.3-.7.2-1.6-.1-1.9-.3-.4-.6.2-.5 1.3m289 0c0 1.1.3 1.4.6.6.3-.7.2-1.6-.1-1.9-.3-.4-.6.2-.5 1.3m-293 4c0 1.1.3 1.4.6.6.3-.7.2-1.6-.1-1.9-.3-.4-.6.2-.5 1.3m6.1.4c0 1.4.2 1.9.5 1.2.2-.6.2-1.8 0-2.5-.3-.6-.5-.1-.5 1.3m291 0c0 1.4.2 1.9.5 1.2.2-.6.2-1.8 0-2.5-.3-.6-.5-.1-.5 1.3m-6 1c0 1.4.2 1.9.5 1.2.2-.6.2-1.8 0-2.5-.3-.6-.5-.1-.5 1.3m-288 1c0 1.4.2 1.9.5 1.2.2-.6.2-1.8 0-2.5-.3-.6-.5-.1-.5 1.3m144.6-1.3c1.2.2 3 .2 4 0 .9-.3-.1-.5-2.3-.4-2.2 0-3 .2-1.7.4m146.4 1.3c0 1.4.2 1.9.5 1.2.2-.6.2-1.8 0-2.5-.3-.6-.5-.1-.5 1.3m-294.9 6.5c0 2.2.2 3 .4 1.7.2-1.2.2-3 0-4-.3-.9-.5.1-.4 2.3m5.9 0c0 1.6.2 2.2.5 1.2.2-.9.2-2.3 0-3-.3-.6-.5.1-.5 1.8m287 0c0 1.6.2 2.2.5 1.2.2-.9.2-2.3 0-3-.3-.6-.5.1-.5 1.8m6 0c0 1.6.2 2.2.5 1.2.2-.9.2-2.3 0-3-.3-.6-.5.1-.5 1.8M165.3 241c0 3 .2 4.3.4 2.7.2-1.5.2-3.9 0-5.5-.2-1.5-.4-.2-.4 2.8m293-.5c0 2.7.2 3.8.4 2.2.2-1.5.2-3.7 0-5-.2-1.2-.4 0-.4 2.8m-293 18.5c0 3 .2 4.3.4 2.7.2-1.5.2-3.9 0-5.5-.2-1.5-.4-.2-.4 2.8m293 1c0 2.5.2 3.5.4 2.2.2-1.2.2-3.2 0-4.5-.2-1.2-.4-.2-.4 2.3m-92.1 2.5c0 1.6.2 2.2.5 1.2.2-.9.2-2.3 0-3-.3-.6-.5.1-.5 1.8m89 .5c0 1.9.2 2.7.5 1.7.2-.9.2-2.5 0-3.5-.3-.9-.5-.1-.5 1.8m6.1.5c0 2.2.2 3 .4 1.7.2-1.2.2-3 0-4-.3-.9-.5.1-.4 2.3m-293.1.5c0 1.9.2 2.7.5 1.7.2-.9.2-2.5 0-3.5-.3-.9-.5-.1-.5 1.8m-6 .5c0 1.6.2 2.2.5 1.2.2-.9.2-2.3 0-3-.3-.6-.5.1-.5 1.8m241.9 1.1c0 1.1.3 1.4.6.6.3-.7.2-1.6-.1-1.9-.3-.4-.6.2-.5 1.3m-146.4.5c.7.7 1.5 1 1.8.7s-.2-.9-1.2-1.2c-1.4-.6-1.5-.5-.6.5m45.3-.4c0 .7.5 1.5 1 1.8.6.3 1.1 5.7 1.2 11.8l.2 11.2.3-10.8c.3-8.4 0-11.2-1.2-13-.8-1.2-1.5-1.6-1.5-1m4 .7c.7.7 1.3.7 2 0 .6-.6.3-1-1-1s-1.6.4-1 1m10-1c0 .2.8 1 1.8 1.7 1.5 1.3 1.6 1.2.3-.4s-2.1-2.1-2.1-1.3m9.9 1.3c-1.3 1.6-1.2 1.7.4.4s2.1-2.1 1.3-2.1c-.2 0-1 .8-1.7 1.7m13.4 5.3c0 4.1.2 5.8.4 3.7.2-2 .2-5.4 0-7.5-.2-2-.4-.3-.4 3.8m6.9-5.8c-.7.7-1.1 2.1-1.1 3.2.1 2.1.1 2.1.6.1.3-1.1 1-2.6 1.5-3.3 1.3-1.5.6-1.6-1 0m29.7.5c-1.3 1.6-1.2 1.7.4.4.9-.7 1.7-1.5 1.7-1.7 0-.8-.8-.3-2.1 1.3m20.1-.4c0 .9.5 1.7 1.1 1.7.5 0 .7.5.3 1.2s-.3.8.5.4c.9-.6.9-1.2-.1-2.4-.7-1-1.4-1.9-1.5-2.1-.2-.2-.3.3-.3 1.2m-126.4 2c.3 1 .9 1.5 1.2 1.2s0-1.1-.7-1.8c-1-.9-1.1-.8-.5.6m44.4-.9c0 .2.8 1 1.8 1.7 1.5 1.3 1.6 1.2.3-.4s-2.1-2.1-2.1-1.3m71.1 1.3c.7 1.2 1.5 2 1.8 1.7.3-.2-.3-1.2-1.3-2.2-1.7-1.6-1.8-1.6-.5.5M166.2 270c0 1.4.2 1.9.5 1.2.2-.6.2-1.8 0-2.5-.3-.6-.5-.1-.5 1.3m90.2 9c0 6.3.1 8.9.3 5.7.2-3.1.2-8.3 0-11.5-.2-3.1-.3-.5-.3 5.8m109.7-5.8c0 3.1.2 5.9.7 6.1.4.3.6-1.6.4-4.1-.5-7.3-1-8.2-1.1-2m91.1-3.2c0 1.4.2 1.9.5 1.2.2-.6.2-1.8 0-2.5-.3-.6-.5-.1-.5 1.3m-198 2c0 1.9.2 2.7.5 1.7.2-.9.2-2.5 0-3.5-.3-.9-.5-.1-.5 1.8m-90 0c0 1.4.2 1.9.5 1.2.2-.6.2-1.8 0-2.5-.3-.6-.5-.1-.5 1.3m285 0c0 1.4.2 1.9.5 1.2.2-.6.2-1.8 0-2.5-.3-.6-.5-.1-.5 1.3m6 0c0 1.4.2 1.9.5 1.2.2-.6.2-1.8 0-2.5-.3-.6-.5-.1-.5 1.3m-297.1.6c0 1.1.3 1.4.6.6.3-.7.2-1.6-.1-1.9-.3-.4-.6.2-.5 1.3m74.1.4c0 1.4.2 1.9.5 1.2.2-.6.2-1.8 0-2.5-.3-.6-.5-.1-.5 1.3m32 .5c0 1.6.2 2.2.5 1.2.2-.9.2-2.3 0-3-.3-.6-.5.1-.5 1.8m128.1 3c0 3.3.2 4.5.4 2.7s.2-4.5 0-6-.4 0-.4 3.3M249.2 274c0 1.4.2 1.9.5 1.2.2-.6.2-1.8 0-2.5-.3-.6-.5-.1-.5 1.3m68.9-.4c0 1.1.3 1.4.6.6.3-.7.2-1.6-.1-1.9-.3-.4-.6.2-.5 1.3m63.7 1.1c.7.3 1.6.2 1.9-.1.4-.3-.2-.6-1.3-.5-1.1 0-1.4.3-.6.6m5 0c.6.2 1.8.2 2.5 0 .6-.3.1-.5-1.3-.5s-1.9.2-1.2.5m-219.7 1.9c0 1.1.3 1.4.6.6.3-.7.2-1.6-.1-1.9-.3-.4-.6.2-.5 1.3m289 0c0 1.1.3 1.4.6.6.3-.7.2-1.6-.1-1.9-.3-.4-.6.2-.5 1.3m-286 1c0 1.1.3 1.4.6.6.3-.7.2-1.6-.1-1.9-.3-.4-.6.2-.5 1.3m188 0c0 1.1.3 1.4.6.6.3-.7.2-1.6-.1-1.9-.3-.4-.6.2-.5 1.3m95 0c0 1.1.3 1.4.6.6.3-.7.2-1.6-.1-1.9-.3-.4-.6.2-.5 1.3m-289 1c0 1.1.3 1.4.6.6.3-.7.2-1.6-.1-1.9-.3-.4-.6.2-.5 1.3m82.8.1c-1.3 1.6-1.2 1.7.4.4.9-.7 1.7-1.5 1.7-1.7 0-.8-.8-.3-2.1 1.3m69 0c-1.3 1.6-1.2 1.7.4.4s2.1-2.1 1.3-2.1c-.2 0-1 .8-1.7 1.7m62.1-1.3c0 .2.8 1 1.8 1.7 1.5 1.3 1.6 1.2.3-.4s-2.1-2.1-2.1-1.3m81.1 1.2c0 1.1.3 1.4.6.6.3-.7.2-1.6-.1-1.9-.3-.4-.6.2-.5 1.3m-190.2 2.1c-1.3 1.6-1.2 1.7.4.4s2.1-2.1 1.3-2.1c-.2 0-1 .8-1.7 1.7m107.1-1.3c0 .2.8 1 1.8 1.7 1.5 1.3 1.6 1.2.3-.4s-2.1-2.1-2.1-1.3m11.6 1.1c.4.8.8 1.5 1 1.5s.4-.7.4-1.5-.4-1.5-1-1.5c-.5 0-.7.7-.4 1.5m-50.6-.1c0 .2.7.7 1.6 1 .8.3 1.2.2.9-.4-.6-1-2.5-1.4-2.5-.6m118.1 1.2c0 1.1.3 1.4.6.6.3-.7.2-1.6-.1-1.9-.3-.4-.6.2-.5 1.3m-284 1c0 1.1.3 1.4.6.6.3-.7.2-1.6-.1-1.9-.3-.4-.6.2-.5 1.3m88.2 2.9c0 2.7.2 3.8.4 2.2.2-1.5.2-3.7 0-5-.2-1.2-.4 0-.4 2.8m192.8-2.9c0 1.1.3 1.4.6.6.3-.7.2-1.6-.1-1.9-.3-.4-.6.2-.5 1.3m-139.3.1c.7.3 1.6.2 1.9-.1.4-.3-.2-.6-1.3-.5-1.1 0-1.4.3-.6.6m-143.7 2.9c0 1.1.3 1.4.6.6.3-.7.2-1.6-.1-1.9-.3-.4-.6.2-.5 1.3m113.5.1c-.6 1.4-.5 1.5.5.6.7-.7 1-1.5.7-1.8s-.9.2-1.2 1.2m170.5 3.9c0 1.1.3 1.4.6.6.3-.7.2-1.6-.1-1.9-.3-.4-.6.2-.5 1.3M176 306.5c0 .5.5 1.7 1 2.5s1 1 1 .5c0-.6-.5-1.7-1-2.5s-1-1.1-1-.5m17 25.9c0 .2.8 1 1.8 1.7 1.5 1.3 1.6 1.2.3-.4s-2.1-2.1-2.1-1.3m3 4c0 .2.8 1 1.8 1.7 1.5 1.3 1.6 1.2.3-.4s-2.1-2.1-2.1-1.3m229.9 1.3c-1.3 1.6-1.2 1.7.4.4.9-.7 1.7-1.5 1.7-1.7 0-.8-.8-.3-2.1 1.3m-231.9.7c0 .2.8 1 1.8 1.7 1.5 1.3 1.6 1.2.3-.4s-2.1-2.1-2.1-1.3m233.9 1.3c-1.3 1.6-1.2 1.7.4.4.9-.7 1.7-1.5 1.7-1.7 0-.8-.8-.3-2.1 1.3M201.5 343c1 1.1 2 2 2.3 2s-.3-.9-1.3-2-2-2-2.3-2 .3.9 1.3 2m220.4-.3c-1.3 1.6-1.2 1.7.4.4s2.1-2.1 1.3-2.1c-.2 0-1 .8-1.7 1.7m-223.9.7c0 .2.8 1 1.8 1.7 1.5 1.3 1.6 1.2.3-.4s-2.1-2.1-2.1-1.3m225.9 1.3c-1.3 1.6-1.2 1.7.4.4s2.1-2.1 1.3-2.1c-.2 0-1 .8-1.7 1.7M199 349.3c0 .2 1.5 1.6 3.3 3.3l3.2 2.9-2.9-3.3c-2.8-3-3.6-3.7-3.6-2.9m222.4 2.9-2.9 3.3 3.3-2.9c3-2.8 3.7-3.6 2.9-3.6-.2 0-1.6 1.5-3.3 3.2m-7.5-.5c-1.3 1.6-1.2 1.7.4.4s2.1-2.1 1.3-2.1c-.2 0-1 .8-1.7 1.7M208 354.5c1.3 1.4 2.6 2.5 2.8 2.5.3 0-.5-1.1-1.8-2.5s-2.6-2.5-2.8-2.5c-.3 0 .5 1.1 1.8 2.5m207.4-.3-1.9 2.3 2.3-1.9c1.2-1.1 2.2-2.1 2.2-2.3 0-.8-.8-.2-2.6 1.9M210 360.5c1.3 1.4 2.6 2.5 2.8 2.5.3 0-.5-1.1-1.8-2.5s-2.6-2.5-2.8-2.5c-.3 0 .5 1.1 1.8 2.5m8.5-.5c1 1.1 2 2 2.3 2s-.3-.9-1.3-2-2-2-2.3-2 .3.9 1.3 2m194.4.7-2.4 2.8 2.8-2.4c1.5-1.4 2.7-2.6 2.7-2.8 0-.8-.8-.1-3.1 2.4m-9 0c-1.3 1.6-1.2 1.7.4.4.9-.7 1.7-1.5 1.7-1.7 0-.8-.8-.3-2.1 1.3m-187.9.7c0 .2.8 1 1.8 1.7 1.5 1.3 1.6 1.2.3-.4s-2.1-2.1-2.1-1.3m82.8 32.3c.6.2 1.8.2 2.5 0 .6-.3.1-.5-1.3-.5s-1.9.2-1.2.5m25 0c.7.3 1.6.2 1.9-.1.4-.3-.2-.6-1.3-.5-1.1 0-1.4.3-.6.6m0 3c.7.3 1.6.2 1.9-.1.4-.3-.2-.6-1.3-.5-1.1 0-1.4.3-.6.6m-25 3c.7.3 1.6.2 1.9-.1.4-.3-.2-.6-1.3-.5-1.1 0-1.4.3-.6.6m25 0c.7.3 1.6.2 1.9-.1.4-.3-.2-.6-1.3-.5-1.1 0-1.4.3-.6.6"/><g fill="#404040" stroke-width="0"><path d="M302.3 100.7c.9.2 2.3.2 3 0 .6-.3-.1-.5-1.8-.5-1.6 0-2.2.2-1.2.5m17.5 0c.6.2 1.8.2 2.5 0 .6-.3.1-.5-1.3-.5s-1.9.2-1.2.5m-28 1c.7.3 1.6.2 1.9-.1.4-.3-.2-.6-1.3-.5-1.1 0-1.4.3-.6.6m5 2c.7.3 1.6.2 1.9-.1.4-.3-.2-.6-1.3-.5-1.1 0-1.4.3-.6.6m6 3c.7.3 1.6.2 1.9-.1.4-.3-.2-.6-1.3-.5-1.1 0-1.4.3-.6.6m17 0c.6.2 1.8.2 2.5 0 .6-.3.1-.5-1.3-.5s-1.9.2-1.2.5m-99.9 25c-1.3 1.6-1.2 1.7.4.4.9-.7 1.7-1.5 1.7-1.7 0-.8-.8-.3-2.1 1.3m-5 4c-1.3 1.6-1.2 1.7.4.4s2.1-2.1 1.3-2.1c-.2 0-1 .8-1.7 1.7m192.1-1.3c0 .2.8 1 1.8 1.7 1.5 1.3 1.6 1.2.3-.4s-2.1-2.1-2.1-1.3m3 6.1c1.3 1.4 2.6 2.5 2.8 2.5.3 0-.5-1.1-1.8-2.5s-2.6-2.5-2.8-2.5c-.3 0 .5 1.1 1.8 2.5m-197.6.7-1.9 2.3 2.3-1.9c2.1-1.8 2.7-2.6 1.9-2.6-.2 0-1.2 1-2.3 2.2m-2.4 7.3c-4.1 4.1-7.2 7.5-6.9 7.5.2 0 3.8-3.4 7.9-7.5s7.2-7.5 6.9-7.5c-.2 0-3.8 3.4-7.9 7.5m196-7.2c0 .2 1.5 1.6 3.3 3.3l3.2 2.9-2.9-3.3c-2.8-3-3.6-3.7-3.6-2.9m-203.6 9.9-2.9 3.3 3.3-2.9c3-2.8 3.7-3.6 2.9-3.6-.2 0-1.6 1.5-3.3 3.2m217.6-.7c1.3 1.4 2.6 2.5 2.8 2.5.3 0-.5-1.1-1.8-2.5s-2.6-2.5-2.8-2.5c-.3 0 .5 1.1 1.8 2.5m-2 3c1.9 1.9 3.6 3.5 3.9 3.5s-1-1.6-2.9-3.5-3.6-3.5-3.9-3.5 1 1.6 2.9 3.5m7.5-.5c1 1.1 2 2 2.3 2s-.3-.9-1.3-2-2-2-2.3-2 .3.9 1.3 2m-228.6.7c-1.3 1.6-1.2 1.7.4.4.9-.7 1.7-1.5 1.7-1.7 0-.8-.8-.3-2.1 1.3m-4 5c-1.3 1.6-1.2 1.7.4.4.9-.7 1.7-1.5 1.7-1.7 0-.8-.8-.3-2.1 1.3m3 0c-1.3 1.6-1.2 1.7.4.4.9-.7 1.7-1.5 1.7-1.7 0-.8-.8-.3-2.1 1.3m233.1-1.3c0 .2.8 1 1.8 1.7 1.5 1.3 1.6 1.2.3-.4s-2.1-2.1-2.1-1.3m-119.2 52.3c2.3.2 6.1.2 8.5 0 2.3-.2.4-.4-4.3-.4s-6.6.2-4.2.4m-5.7 3c-.1 3.1-.3 3.2-4.8 3.6l-4.8.3 4.8.2c5.1.2 6.2-.8 5.4-5-.3-1.8-.5-1.6-.6.9m4.4 1.2c-.8 1.4.2 3.1 1.8 3q1.35 0 0-.6c-2.8-1.1-1.1-2.3 3.1-2.3 4.4 0 4.5.1 4.9 3.5l.4 3.5-.1-3.7c-.1-3.8-.1-3.8-4.8-4.1-2.5-.2-4.9.2-5.3.7m-136.4 1.7c0 1.1.3 1.4.6.6.3-.7.2-1.6-.1-1.9-.3-.4-.6.2-.5 1.3m279 0c0 1.1.3 1.4.6.6.3-.7.2-1.6-.1-1.9-.3-.4-.6.2-.5 1.3"/><path d="M313.5 219c1 1.1 2 2 2.3 2s-.3-.9-1.3-2-2-2-2.3-2 .3.9 1.3 2m-148.4.6c0 1.1.3 1.4.6.6.3-.7.2-1.6-.1-1.9-.3-.4-.6.2-.5 1.3m128.3 14.9c0 9.3.2 13.3.3 8.8.2-4.5.2-12.2 0-17-.1-4.8-.3-1.2-.3 8.2m37-3.5c0 7.4.1 10.5.3 6.7.2-3.7.2-9.7 0-13.5-.2-3.7-.3-.6-.3 6.8m121.7-11.4c0 1.1.3 1.4.6.6.3-.7.2-1.6-.1-1.9-.3-.4-.6.2-.5 1.3m6 0c0 1.1.3 1.4.6.6.3-.7.2-1.6-.1-1.9-.3-.4-.6.2-.5 1.3m-155.8 1.1c4.6.4 4.7.5 4.7 3.8 0 1.9.4 3.6.8 3.9.5.3.6-1.4.3-3.7l-.6-4.2-5-.1-5-.1zm9.5 2.5 2.4 2.6-2.4.5c-2.1.4-2 .4.5.6 1.5 0 2.7-.3 2.7-.7 0-.5-1.2-1.9-2.7-3.3l-2.8-2.4zm-147.7 1.4c0 1.1.3 1.4.6.6.3-.7.2-1.6-.1-1.9-.3-.4-.6.2-.5 1.3m295 0c0 1.1.3 1.4.6.6.3-.7.2-1.6-.1-1.9-.3-.4-.6.2-.5 1.3m-289 1c0 1.1.3 1.4.6.6.3-.7.2-1.6-.1-1.9-.3-.4-.6.2-.5 1.3m283 0c0 1.1.3 1.4.6.6.3-.7.2-1.6-.1-1.9-.3-.4-.6.2-.5 1.3m-287 1c0 1.1.3 1.4.6.6.3-.7.2-1.6-.1-1.9-.3-.4-.6.2-.5 1.3m153.2 6.4c0 4.7.2 6.6.4 4.2.2-2.3.2-6.1 0-8.5-.2-2.3-.4-.4-.4 4.3m137.8-6.4c0 1.1.3 1.4.6.6.3-.7.2-1.6-.1-1.9-.3-.4-.6.2-.5 1.3m-293.9 4.9c0 1.6.2 2.2.5 1.2.2-.9.2-2.3 0-3-.3-.6-.5.1-.5 1.8m152 6.7-.2 9.7-8.2.4-8.3.3 8.3.2c6.1.1 8.4-.1 8.8-1.1.3-.8.3-5.4.1-10.3l-.3-8.9zm-146-6.2c0 1.4.2 1.9.5 1.2.2-.6.2-1.8 0-2.5-.3-.6-.5-.1-.5 1.3m291 0c0 1.4.2 1.9.5 1.2.2-.6.2-1.8 0-2.5-.3-.6-.5-.1-.5 1.3m-6.1.6c0 1.1.3 1.4.6.6.3-.7.2-1.6-.1-1.9-.3-.4-.6.2-.5 1.3M165.2 234c0 1.4.2 1.9.5 1.2.2-.6.2-1.8 0-2.5-.3-.6-.5-.1-.5 1.3m293 0c0 1.4.2 1.9.5 1.2.2-.6.2-1.8 0-2.5-.3-.6-.5-.1-.5 1.3m-289.8 16c0 6.3.1 8.9.3 5.7.2-3.1.2-8.3 0-11.5-.2-3.1-.3-.5-.3 5.8m287-.5c0 6 .1 8.4.3 5.2s.2-8.1 0-11-.3-.3-.3 5.8m6 0c0 6 .1 8.4.3 5.2s.2-8.1 0-11-.3-.3-.3 5.8m-299 1.5c0 6.3.1 8.9.3 5.7.2-3.1.2-8.3 0-11.5-.2-3.1-.3-.5-.3 5.8m296.9-1c0 3.6.2 5 .4 3.2.2-1.7.2-4.7 0-6.5-.2-1.7-.4-.3-.4 3.3m-139.9-3.6c-.3.8-.4 2.3-.1 3.3q.45 1.8.6-.9c.1-2.4.5-2.7 4.4-3.1l4.2-.4-4.3-.1c-2.9-.1-4.4.3-4.8 1.2M164.3 252c0 3.6.2 5 .4 3.2.2-1.7.2-4.7 0-6.5-.2-1.7-.4-.3-.4 3.3m136.5.7c2.8.2 7.6.2 10.5 0 2.8-.2.5-.3-5.3-.3s-8.1.1-5.2.3m62.3 10.9c0 1.1.3 1.4.6.6.3-.7.2-1.6-.1-1.9-.3-.4-.6.2-.5 1.3M165.2 266c0 1.4.2 1.9.5 1.2.2-.6.2-1.8 0-2.5-.3-.6-.5-.1-.5 1.3m89.2-.9c-.3.6-.1 1.6.6 2.2 1 .9 1.1.9.5-.2-.4-.8-.2-1.7.6-2.2.9-.6 1-.9.2-.9-.6 0-1.5.5-1.9 1.1m33.1-.1c-.3.6.1.7.9.4 1.8-.7 2.1-1.4.7-1.4-.6 0-1.3.4-1.6 1m51.3-.3c.7.3 1.6.2 1.9-.1.4-.3-.2-.6-1.3-.5-1.1 0-1.4.3-.6.6m55.6.6c-1 2.8.1 17 1.4 17.3.7.1.8 0 .2-.3-1.5-.7-1.3-17 .3-17.6.9-.4.9-.6-.1-.6-.7-.1-1.5.5-1.8 1.2m63.8.7c0 1.4.2 1.9.5 1.2.2-.6.2-1.8 0-2.5-.3-.6-.5-.1-.5 1.3m-98.1.6c0 1.1.3 1.4.6.6.3-.7.2-1.6-.1-1.9-.3-.4-.6.2-.5 1.3m26.9-1.2c0 .2.8 1 1.8 1.7 1.5 1.3 1.6 1.2.3-.4s-2.1-2.1-2.1-1.3M169.2 268c0 1.4.2 1.9.5 1.2.2-.6.2-1.8 0-2.5-.3-.6-.5-.1-.5 1.3m285 0c0 1.4.2 1.9.5 1.2.2-.6.2-1.8 0-2.5-.3-.6-.5-.1-.5 1.3m-291 1c0 1.4.2 1.9.5 1.2.2-.6.2-1.8 0-2.5-.3-.6-.5-.1-.5 1.3m56.3-.9c-.4.6-.5 1.2-.2 1.5.2.3.7-.2 1-1.1.7-1.7.1-2-.8-.4m129.9 0c-.3.6-.2 1.5.3 2s.9.1.9-1.1c0-2.3-.2-2.4-1.2-.9m110.7.5c0 1.1.3 1.4.6.6.3-.7.2-1.6-.1-1.9-.3-.4-.6.2-.5 1.3m-96.8 4.9c0 3.3.2 4.5.4 2.7s.2-4.5 0-6-.4 0-.4 3.3m-115.7-3.2c.3 1 .9 1.5 1.2 1.2s0-1.1-.7-1.8c-1-.9-1.1-.8-.5.6m60.7 3.2c0 2.7.2 3.8.4 2.2.2-1.5.2-3.7 0-5-.2-1.2-.4 0-.4 2.8m28.7.2c-.3 2.9-.1 4.8.3 4.4.5-.5.7-2.8.5-5.2l-.3-4.4zm53.2-1.7c0 1.9.2 2.7.5 1.7.2-.9.2-2.5 0-3.5-.3-.9-.5-.1-.5 1.8m-168.1-.4c0 1.1.3 1.4.6.6.3-.7.2-1.6-.1-1.9-.3-.4-.6.2-.5 1.3m12 0c0 1.1.3 1.4.6.6.3-.7.2-1.6-.1-1.9-.3-.4-.6.2-.5 1.3m18.1 1.4c0 1.9.2 2.7.5 1.7.2-.9.2-2.5 0-3.5-.3-.9-.5-.1-.5 1.8m20.1.5c0 2.2.2 3 .4 1.7.2-1.2.2-3 0-4-.3-.9-.5.1-.4 2.3m51.8-1.9c0 1.1.3 1.4.6.6.3-.7.2-1.6-.1-1.9-.3-.4-.6.2-.5 1.3m-2.9 1.9c0 1.6.2 2.2.5 1.2.2-.9.2-2.3 0-3-.3-.6-.5.1-.5 1.8m53 .5c0 1.9.2 2.7.5 1.7.2-.9.2-2.5 0-3.5-.3-.9-.5-.1-.5 1.8m-208.1-.4c0 1.1.3 1.4.6.6.3-.7.2-1.6-.1-1.9-.3-.4-.6.2-.5 1.3m52.1.4c0 1.4.2 1.9.5 1.2.2-.6.2-1.8 0-2.5-.3-.6-.5-.1-.5 1.3m238.9-.4c0 1.1.3 1.4.6.6.3-.7.2-1.6-.1-1.9-.3-.4-.6.2-.5 1.3m-287 1c0 1.1.3 1.4.6.6.3-.7.2-1.6-.1-1.9-.3-.4-.6.2-.5 1.3m-6 1c0 1.1.3 1.4.6.6.3-.7.2-1.6-.1-1.9-.3-.4-.6.2-.5 1.3m57.9-.2c0 .8.4 1.7.9 2 .5.4.7-.3.4-1.4-.6-2.3-1.3-2.6-1.3-.6m12.1.2c0 1.1.3 1.4.6.6.3-.7.2-1.6-.1-1.9-.3-.4-.6.2-.5 1.3m83 0c0 1.1.3 1.4.6.6.3-.7.2-1.6-.1-1.9-.3-.4-.6.2-.5 1.3m142 0c0 1.1.3 1.4.6.6.3-.7.2-1.6-.1-1.9-.3-.4-.6.2-.5 1.3m-221.1.3c0 .6.4 1.3 1 1.6s.7-.1.4-.9c-.7-1.8-1.4-2.1-1.4-.7m21 .5c0 .8.4 1.7.9 2 .5.4.7-.3.4-1.4-.6-2.3-1.3-2.6-1.3-.6m65 0c0 .8.4 1.7.9 2 .5.4.7-.3.4-1.4-.6-2.3-1.3-2.6-1.3-.6m-41.5.6c-.3.5-.1 1 .4 1 .6 0 1.1-.5 1.1-1 0-.6-.2-1-.4-1-.3 0-.8.4-1.1 1m-63.5.9c0 .6.4 1.3 1 1.6s.7-.1.4-.9c-.7-1.8-1.4-2.1-1.4-.7m30.4 2.3-1.9 2.3 2.3-1.9c2.1-1.8 2.7-2.6 1.9-2.6-.2 0-1.2 1-2.3 2.2m-84.3.4c0 1.1.3 1.4.6.6.3-.7.2-1.6-.1-1.9-.3-.4-.6.2-.5 1.3m207.1-.2c.7.8 1.5 1.2 1.7 1.1.5-.6-1-2.5-2-2.5-.5 0-.4.6.3 1.4m85.9.2c0 1.1.3 1.4.6.6.3-.7.2-1.6-.1-1.9-.3-.4-.6.2-.5 1.3M341 282c-.9.6-1 1-.3 1 .6 0 1.5-.5 1.8-1 .8-1.2.4-1.2-1.5 0m-172.9 1.6c0 1.1.3 1.4.6.6.3-.7.2-1.6-.1-1.9-.3-.4-.6.2-.5 1.3m140.2 2.4c0 2.5.2 3.5.4 2.2.2-1.2.2-3.2 0-4.5-.2-1.2-.4-.2-.4 2.3m142.8-1.4c0 1.1.3 1.4.6.6.3-.7.2-1.6-.1-1.9-.3-.4-.6.2-.5 1.3m-169.7 3.6-1.9 2.3 2.3-1.9c1.2-1.1 2.2-2.1 2.2-2.3 0-.8-.8-.2-2.6 1.9m172.7-.6c0 1.1.3 1.4.6.6.3-.7.2-1.6-.1-1.9-.3-.4-.6.2-.5 1.3m-180.4.1c-.4.3-.7 1.1-.7 1.7 0 .7.3.7.8 0 .4-.7 1.6-1.4 2.7-1.7 1.9-.5 1.9-.5-.1-.6-1.1 0-2.4.2-2.7.6m176.4.9c0 1.1.3 1.4.6.6.3-.7.2-1.6-.1-1.9-.3-.4-.6.2-.5 1.3m-174.3 2.1c.7.3 1.6.2 1.9-.1.4-.3-.2-.6-1.3-.5-1.1 0-1.4.3-.6.6m169.8 10.8c-.9 2.6-.7 3.2.5 1.2.6-1 .9-2.1.6-2.3-.2-.3-.7.2-1.1 1.1m-12.7 36.2c-1.3 1.6-1.2 1.7.4.4.9-.7 1.7-1.5 1.7-1.7 0-.8-.8-.3-2.1 1.3M199 339.4c0 .2.8 1 1.8 1.7 1.5 1.3 1.6 1.2.3-.4s-2.1-2.1-2.1-1.3m-7 1c0 .2.8 1 1.8 1.7 1.5 1.3 1.6 1.2.3-.4s-2.1-2.1-2.1-1.3m234.9 1.3c-1.3 1.6-1.2 1.7.4.4.9-.7 1.7-1.5 1.7-1.7 0-.8-.8-.3-2.1 1.3m3 0c-1.3 1.6-1.2 1.7.4.4.9-.7 1.7-1.5 1.7-1.7 0-.8-.8-.3-2.1 1.3m-13 6-3.4 3.8 3.8-3.4c2-1.9 3.7-3.6 3.7-3.8 0-.8-.8 0-4.1 3.4m-219.4-.7c1 1.1 2 2 2.3 2s-.3-.9-1.3-2-2-2-2.3-2 .3.9 1.3 2m12.5 4.5c3.5 3.6 6.7 6.5 6.9 6.5.3 0-2.4-2.9-5.9-6.5s-6.7-6.5-6.9-6.5c-.3 0 2.4 2.9 5.9 6.5m215.4-4.3-1.9 2.3 2.3-1.9c1.2-1.1 2.2-2.1 2.2-2.3 0-.8-.8-.2-2.6 1.9m-223.9.8c1 1.1 2 2 2.3 2s-.3-.9-1.3-2-2-2-2.3-2 .3.9 1.3 2m218.9 1.2-2.9 3.3 3.3-2.9c3-2.8 3.7-3.6 2.9-3.6-.2 0-1.6 1.5-3.3 3.2m-12 7-2.9 3.3 3.3-2.9c3-2.8 3.7-3.6 2.9-3.6-.2 0-1.6 1.5-3.3 3.2M212.5 359c1 1.1 2 2 2.3 2s-.3-.9-1.3-2-2-2-2.3-2 .3.9 1.3 2m196.9 1.2-1.9 2.3 2.3-1.9c1.2-1.1 2.2-2.1 2.2-2.3 0-.8-.8-.2-2.6 1.9M221 361.4c0 .2.8 1 1.8 1.7 1.5 1.3 1.6 1.2.3-.4s-2.1-2.1-2.1-1.3m-7 2c0 .2.8 1 1.8 1.7 1.5 1.3 1.6 1.2.3-.4s-2.1-2.1-2.1-1.3m193.9 1.3c-1.3 1.6-1.2 1.7.4.4.9-.7 1.7-1.5 1.7-1.7 0-.8-.8-.3-2.1 1.3M219 367.4c0 .2.8 1 1.8 1.7 1.5 1.3 1.6 1.2.3-.4s-2.1-2.1-2.1-1.3m100.8 26.3c.6.2 1.8.2 2.5 0 .6-.3.1-.5-1.3-.5s-1.9.2-1.2.5m-23 3c.7.3 1.6.2 1.9-.1.4-.3-.2-.6-1.3-.5-1.1 0-1.4.3-.6.6m-5 2c.7.3 1.6.2 1.9-.1.4-.3-.2-.6-1.3-.5-1.1 0-1.4.3-.6.6m10.5 1c.9.2 2.3.2 3 0 .6-.3-.1-.5-1.8-.5-1.6 0-2.2.2-1.2.5m17.5 0c.6.2 1.8.2 2.5 0 .6-.3.1-.5-1.3-.5s-1.9.2-1.2.5"/></g><g stroke-width="0"><path d="M302.5 100.6c-32.5 3.2-56.2 12-79.5 29.3-29.1 21.7-49 52.9-57.2 89.2-2 9-2.3 13.1-2.3 30.9s.3 21.9 2.3 30.9c10.2 45.6 38.8 82.5 79.7 103 45.3 22.6 99.4 20.7 142.6-5.2 36-21.5 60.7-56 70.1-97.8 2-9 2.3-13.1 2.3-30.9 0-22.6-1.5-32.2-7.7-49.9-15.4-44.2-53.7-80.6-98.4-93.5-15.8-4.6-38.9-7.3-51.9-6m34.7 4.3c61.4 10.6 109.8 59 120.4 120.6 2.3 13.3 2.3 35.7 0 49-11 63.6-62.3 113.1-126.3 121.6-12.3 1.6-39.3.6-50.3-1.9-80.8-18.7-130.6-96.1-113.1-175.9 11.2-51.4 50.9-94.2 101.2-109.3 20.3-6.1 46.8-7.7 68.1-4.1"/><path d="M297.5 107c-25 2.8-49.4 12.2-69.7 26.8-11.5 8.2-27.5 25.1-35.7 37.7-15.6 24-23.1 49.3-23.1 78.4 0 38.3 13.4 71.8 39.8 99.3 15.7 16.3 33.7 28.3 53.7 35.6 51.9 19 110.2 6.5 149.4-32 20.1-19.8 32.7-42.1 39.7-70 3.4-13.7 4.4-40.3 2-54.8-4-24.6-13.7-47.2-28.7-66.6-6.3-8.2-20.7-22-29.9-28.6-16.2-11.6-38.4-20.8-58.1-24.2-11.3-2-29.4-2.7-39.4-1.6m28.7 106.7 4.8 4.7v12.8c0 14.3-.3 14.8-7.4 14.8-3.2 0-3.6.3-3.6 2.5 0 3.5-3.2 4.5-14.1 4.5-13.6 0-12.9.9-12.9-18.3 0-11.4.4-16.7 1.2-17.5.7-.7 3.1-1.2 5.5-1.2 4.1 0 4.3-.1 4.3-2.9 0-3.6.7-3.9 10-4l7.4-.1zm40.6 48.6c.3 2.1.9 2.7 2.8 2.7 1.5 0 2.4.6 2.4 1.5s-.9 1.5-2.5 1.5c-2.3 0-2.5.3-2.5 4.9 0 5.1 1.6 7.6 4.3 6.5 2-.7 3.4 1.6 1.6 2.7-2.4 1.5-5.8 1-7.9-1.1-1.5-1.5-2-3.3-2-7.5s-.3-5.5-1.5-5.5c-.8 0-1.5-.7-1.5-1.5s.6-1.5 1.4-1.5 1.7-1.4 2.1-3.1c.8-3.6 2.9-3.3 3.3.4m-135.4 2.3c2.6 1 .7 3.4-2.2 2.8-4.4-.9-6.7 2-6.3 7.8.2 2.9 3.2 5 6.2 4.4 3.1-.6 5 1.1 2.8 2.5-2.7 1.7-7.7 1-10.6-1.5-2.4-2.1-2.8-3.1-2.7-7.2.1-3.8.6-5.2 2.8-7.1 2.6-2.2 6.8-2.9 10-1.7m18.8 2.4c2.7 2.7 3 3.6 2.5 7.2-.7 5.2-3.3 7.8-8.5 8.5-3.6.5-4.5.2-7.2-2.5-4.1-4.2-4.2-9.2-.1-13.3s9.1-4 13.3.1m9.3-1.8c.6-.1 2.3-.4 3.8-.8 8.3-2 13.1 9.4 6.7 15.8-2.6 2.6-3.6 3-6.5 2.5-3.5-.6-3.5-.6-3.5 3.4 0 3.2-.3 3.9-2 3.9-1.9 0-2-.7-2-10.8 0-6.6-.4-11.2-1.1-11.9-1.5-1.5-.1-3.6 2-2.7.9.3 2.1.6 2.6.6m20.1 5.3c1.6 3.6 3.1 6.1 3.5 5.7.3-.4 1.4-3 2.4-5.7 2.3-6.2 3.1-7.3 4.7-5.7.9.9.2 3.6-2.6 11.4-2.1 5.7-4.5 11.1-5.5 12-2 2.1-6.2 3.1-8 1.9-1.9-1.2-.5-3.1 2.4-3.1 4.6 0 5-3.3 1.4-10.8-5.3-11.2-5.3-11.7-1.8-12.1.4-.1 2 2.8 3.5 6.4m30.3-5.5c3.1-1.6 5.8-1.2 8.8 1.4 2.3 2 2.8 3.2 2.8 7.1s-.5 5.1-2.9 7.2c-2.3 2-3.7 2.4-6.3 2-3.3-.6-3.3-.5-3.3 3.4 0 3.2-.3 3.9-2 3.9-1.9 0-2-.7-2-10.8 0-6.6-.4-11.2-1.1-11.9-1.8-1.8-.1-3.5 2.2-2.3 1.3.7 2.5.7 3.8 0m31.1 6.5c0 4.2.5 7.6 1.2 8.3 1.8 1.8-.4 3.7-2.9 2.4-1.2-.7-2.5-.7-3.4-.1-2.6 1.7-6.6.9-9.3-1.7-3.7-3.8-3.6-9.5.3-13.4 2.5-2.6 3.5-2.9 8.5-2.8l5.6.2zm16.7-6.7c2 1.3 0 2.8-3.7 2.8-4.7-.1-4.5 1.9.5 4.7 4.9 2.8 5.9 6.6 2.3 9.1-2.6 1.8-7 2.1-9.9.6-3.3-1.8-2.1-3 2.8-2.7 6.6.3 6.9-2.1.8-5.1-3.7-1.8-4.5-2.7-4.5-4.8 0-1.5.8-3.3 1.8-4 1.9-1.5 8-1.8 9.9-.6m30.8 1.7c1.6 1.5 2.5 3.6 2.5 5.4v3l-6.7.3-6.8.3 2.3 2.3c1.9 1.9 3 2.3 5.8 1.7 2.6-.4 3.4-.2 3.4.8 0 1.8-2.1 2.7-6.2 2.7q-3 0-6-3c-2.7-2.8-3-3.6-2.5-7.3 1.1-7.9 9.1-11.4 14.2-6.2m9-1.5c.4.7 1.2.7 2.5 0 1-.5 2.8-1 4-1 1.8 0 1.9.3 1 2-.6 1.1-1.9 2-3 2-2.7 0-3.4 1.6-4 8.5-.4 4.4-.9 6-2 6-1.2 0-1.6-1.7-1.8-7.9-.2-4.4-.1-8.5.2-9.3.6-1.5 2.2-1.7 3.1-.3"/><path d="M309 214.9c0 .5.9 1.2 1.9 1.6 1.1.3 3.5 2.5 5.5 5 3.4 4.1 3.6 4.7 3.6 11.9v7.6h6v-20h-4c-3.9 0-4-.1-4-3.5 0-3.5 0-3.5-4.5-3.5-2.5 0-4.5.4-4.5.9"/><path d="M321 217c0 1.4.7 2 2.2 2 2 0 2.1-.1.3-2-1-1.1-2-2-2.2-2-.1 0-.3.9-.3 2m-23 17.5V248h17v-18.9l-3.7-.3c-3.6-.3-3.8-.5-4.1-4.1-.3-3.7-.4-3.7-4.8-3.7H298z"/><path d="M310 224c0 1.4.7 2 2.2 2 2 0 2.1-.1.3-2-1-1.1-2-2-2.2-2-.1 0-.3.9-.3 2m-70.6 45.5c-1.8 2.8-1.3 6.4 1.2 8.9 2.1 2.1 4 2 6.4-.4 2.3-2.3 2.5-4.2.9-7.3-2.4-4.4-6-4.9-8.5-1.2m21.7-1.1c-1.8 2.1-1 9.7 1.2 11 2.2 1.4 4.9-.2 6.2-3.8 1.8-5.3-4.2-11.1-7.4-7.2m49.2-.8c-.8.4-1.3 2.6-1.3 5.9 0 4.5.3 5.5 2 6 4.6 1.5 8.1-4.3 5.7-9.5-1.2-2.4-3.9-3.4-6.4-2.4m19.3 1.6c-2.2 3.1-2 6.4.4 8.8 4 4 7 1.8 7-5.1 0-3.3-.5-4.9-1.6-5.3-2.8-1.1-4.2-.7-5.8 1.6m50 0c-1.6 2.3-1.6 2.3 2.5 2.6 4.8.4 5.7-.2 4.3-2.6-1.7-2.6-5-2.6-6.8 0"/></g></svg>