<svg xmlns="http://www.w3.org/2000/svg" version="1.0" viewBox="0 0 640 640"><path fill-opacity=".9" d="m111.4 105.2-1.9 2.3 2.3-1.9c2.1-1.8 2.7-2.6 1.9-2.6-.2 0-1.2 1-2.3 2.2m416.1-.2c1 1.1 2 2 2.3 2s-.3-.9-1.3-2-2-2-2.3-2 .3.9 1.3 2m-423.1 7.2-1.9 2.3 2.3-1.9c2.1-1.8 2.7-2.6 1.9-2.6-.2 0-1.2 1-2.3 2.2m430.1-.2c1 1.1 2 2 2.3 2s-.3-.9-1.3-2-2-2-2.3-2 .3.9 1.3 2m-430 416c1 1.1 2 2 2.3 2s-.3-.9-1.3-2-2-2-2.3-2 .3.9 1.3 2m429.9.2-1.9 2.3 2.3-1.9c1.2-1.1 2.2-2.1 2.2-2.3 0-.8-.8-.2-2.6 1.9M111.5 535c1 1.1 2 2 2.3 2s-.3-.9-1.3-2-2-2-2.3-2 .3.9 1.3 2m415.9.2-1.9 2.3 2.3-1.9c1.2-1.1 2.2-2.1 2.2-2.3 0-.8-.8-.2-2.6 1.9"/><g stroke-width="0"><path d="M209 64.6c-39.6 2.4-73.7 17.3-100.4 44-23 23-37.8 52.7-42.8 85.9-1.9 13.1-1.9 237.9 0 251 10.1 67.6 61.1 118.6 128.7 128.7 13.1 1.9 237.9 1.9 251 0 67.6-10.1 118.6-61.1 128.7-128.7 1.9-13.1 1.9-237.9 0-251-9.9-66.4-58.5-116.2-125.2-128.2-7.3-1.3-25-1.6-121.5-1.8-62.1-.1-115.5 0-118.5.1m243 21.8c26.3 6.2 45.8 16.7 64.1 34.3 19.7 19.1 31.8 41 37.6 68.3 1.7 7.9 1.8 16.5 1.8 131s-.1 123.1-1.8 131c-5.8 27.3-17.9 49.2-37.6 68.3-18.6 18-39.2 28.9-65.1 34.4-7.9 1.7-16.5 1.8-131 1.8s-123.1-.1-131-1.8c-25.9-5.5-46.5-16.4-65.1-34.4-19.7-19.1-31.8-41-37.6-68.3-1.7-7.9-1.8-16.5-1.8-131 0-136-.4-127.8 6.7-148.5 13.6-40 48.3-72.4 89.2-83.1 16-4.2 15.9-4.2 142.6-4 112.5.2 122.1.3 129 2"/><path d="M201.7 109.1c-35.1 3.7-67.2 26.7-82.8 59.4-5.7 12-8.5 21.7-9.9 34.5-1.3 12.7-1.3 221.3 0 234 3.9 36.6 26.2 68.2 59.5 84.1 20 9.6 31.9 11.2 78.7 10.7l31.8-.3 2.6-2.7c3.7-3.7 3.7-9.9 0-13.6l-2.6-2.7-40.3-.6c-37.1-.5-40.7-.7-47.2-2.7-26.5-8-47.3-26.4-57.1-50.6-6.6-16.4-6.4-11.4-6.4-138.6s-.2-122.2 6.4-138.7c8.4-20.5 26.5-38.6 47-46.9 16.4-6.6 11.4-6.4 138.6-6.4s122.2-.2 138.7 6.4c20.5 8.4 38.6 26.5 46.9 47 6.6 16.4 6.4 11.4 6.4 138.6s.2 122.2-6.4 138.6c-10.6 26-34.9 46.1-62.8 51.8-6.2 1.3-14.8 1.6-42.9 1.6-29.6 0-35.6.2-38.4 1.5-7.3 3.5-7.3 13.5 0 17 2.8 1.2 8.4 1.5 34.7 1.5 45.5 0 55.7-1.5 75.3-10.9 22.3-10.7 39.3-27.7 50-50.2 5.4-11.5 8.2-21.4 9.5-33.9 1.3-12.7 1.3-221.3 0-234-3.9-36.6-26.2-68.2-59.5-84.1-12-5.7-21.7-8.5-34.5-9.9-11.5-1.2-223.9-1.1-235.3.1"/><path d="M442.7 152c-10.7 2.7-21 11.2-25.6 21-2.3 4.8-2.6 6.8-2.6 15.5 0 8.9.3 10.7 2.8 16.1 3.6 7.7 10.4 14.5 18.2 18.1 5.3 2.5 7.1 2.8 16 2.8 8.7 0 10.7-.3 15.5-2.6 7.6-3.6 14.5-10.6 18.3-18.7 2.8-5.9 3.2-7.7 3.1-15.2-.1-11.9-2.8-18.6-10.8-26.6-4.5-4.5-7.7-6.7-12.1-8.3-6.8-2.5-17.2-3.5-22.8-2.1m17.7 21.4c9.5 5.5 11.6 19.5 4.3 27.5-2.9 3.2-9.4 6.1-13.6 6.1-8.3 0-16.7-7.4-17.8-15.8-1-7.3 3.7-16 10.2-18.8 4.9-2.2 12.2-1.7 16.9 1M311 182.7c-19.5 1.1-50.6 10.6-56.9 17.4-3 3.2-2.8 9.2.3 12.4 3.7 3.7 7.1 4.1 13 1.5 18.2-8.1 35.5-12 52.6-12 65 0 118 53 118 118 0 80.4-79.1 137.3-155.4 111.9-67.6-22.5-99.7-99.6-68.5-164.1 2.1-4.5 3.9-9.6 3.9-11.4 0-6.9-7.5-11.3-13.9-8-2.4 1.3-4.2 3.9-8 11.9-6 12.5-8.6 20.4-11 33.3-4 20.6-3.5 39 1.4 59.1 12.1 49.8 51 88.7 100.8 100.8 73.9 18 148.3-27.1 166.2-100.8 18-73.9-27.1-148.3-100.8-166.2-9.2-2.3-29.1-4.8-34.2-4.3-1.1.1-4.5.3-7.5.5"/><path d="M226.7 219c-7.6 6-3.6 17.6 6.1 17.3 4.9-.1 9.2-4.8 9.2-9.9 0-7.6-9.3-12.1-15.3-7.4m81.8 12.1c-29.2 3.7-55.6 22.6-68.9 49.5-21.8 44.3-3.4 97.8 41.2 119.9 24.5 12.1 53.9 12.1 78.4 0 34.1-16.9 54.2-53.3 49.8-90.2-5.1-42.2-36.9-74.2-79-79.3-9.5-1.1-11.6-1.1-21.5.1m32.8 22.2c21.4 7 38.2 23.8 45.5 45.4 2.3 6.9 2.6 9.4 2.6 21.3s-.3 14.4-2.6 21.3c-7.3 21.6-23.9 38.2-45.5 45.5-6.9 2.3-9.4 2.6-21.3 2.6s-14.4-.3-21.3-2.6c-41.2-13.8-60.5-60-41.2-98.4 9-17.9 25.5-31.1 45.5-36.4 10.7-2.9 27.4-2.3 38.3 1.3m-23.9 259.4c-6.5 1.2-9 11.1-4.1 16 1.9 1.9 3.6 2.6 6.7 2.6 5.8 0 9.3-3.5 9.3-9.3 0-6.4-5.3-10.5-11.9-9.3"/></g><path fill="#400040" d="M205.8 108.7c.7.3 1.6.2 1.9-.1.4-.3-.2-.6-1.3-.5-1.1 0-1.4.3-.6.6m227 0c.7.3 1.6.2 1.9-.1.4-.3-.2-.6-1.3-.5-1.1 0-1.4.3-.6.6m-324.7 97.9c0 1.1.3 1.4.6.6.3-.7.2-1.6-.1-1.9-.3-.4-.6.2-.5 1.3m423 0c0 1.1.3 1.4.6.6.3-.7.2-1.6-.1-1.9-.3-.4-.6.2-.5 1.3m-423 227c0 1.1.3 1.4.6.6.3-.7.2-1.6-.1-1.9-.3-.4-.6.2-.5 1.3m423 0c0 1.1.3 1.4.6.6.3-.7.2-1.6-.1-1.9-.3-.4-.6.2-.5 1.3m-325.3 98.1c.7.3 1.6.2 1.9-.1.4-.3-.2-.6-1.3-.5-1.1 0-1.4.3-.6.6m227 0c.7.3 1.6.2 1.9-.1.4-.3-.2-.6-1.3-.5-1.1 0-1.4.3-.6.6"/><path fill="#404040" d="M456.8 151.7c.7.3 1.6.2 1.9-.1.4-.3-.2-.6-1.3-.5-1.1 0-1.4.3-.6.6m31.3 30.9c0 1.1.3 1.4.6.6.3-.7.2-1.6-.1-1.9-.3-.4-.6.2-.5 1.3m-175.3.1c.6.2 1.8.2 2.5 0 .6-.3.1-.5-1.3-.5s-1.9.2-1.2.5m13.5 0c.9.2 2.3.2 3 0 .6-.3-.1-.5-1.8-.5-1.6 0-2.2.2-1.2.5m86.9 5.8c0 1.6.2 2.2.5 1.2.2-.9.2-2.3 0-3-.3-.6-.5.1-.5 1.8m37.1 38.2c.9.2 2.3.2 3 0 .6-.3-.1-.5-1.8-.5-1.6 0-2.2.2-1.2.5m-180.4 44-2.4 2.8 2.8-2.4c2.5-2.3 3.2-3.1 2.4-3.1-.2 0-1.4 1.2-2.8 2.7m99.1-.2c1.3 1.4 2.6 2.5 2.8 2.5.3 0-.5-1.1-1.8-2.5s-2.6-2.5-2.8-2.5c-.3 0 .5 1.1 1.8 2.5m-186.9 40.1c0 1.1.3 1.4.6.6.3-.7.2-1.6-.1-1.9-.3-.4-.6.2-.5 1.3m275.1 1.9c0 1.6.2 2.2.5 1.2.2-.9.2-2.3 0-3-.3-.6-.5.1-.5 1.8m-275 15c0 1.6.2 2.2.5 1.2.2-.9.2-2.3 0-3-.3-.6-.5.1-.5 1.8m275 0c0 1.6.2 2.2.5 1.2.2-.9.2-2.3 0-3-.3-.6-.5.1-.5 1.8m-187.2 42c1.3 1.4 2.6 2.5 2.8 2.5.3 0-.5-1.1-1.8-2.5s-2.6-2.5-2.8-2.5c-.3 0 .5 1.1 1.8 2.5m98.9.2-2.4 2.8 2.8-2.4c2.5-2.3 3.2-3.1 2.4-3.1-.2 0-1.4 1.2-2.8 2.7m-57.6 88c.9.2 2.3.2 3 0 .6-.3-.1-.5-1.8-.5-1.6 0-2.2.2-1.2.5m15 0c.9.2 2.3.2 3 0 .6-.3-.1-.5-1.8-.5-1.6 0-2.2.2-1.2.5"/><path fill="#804040" d="M205.8 84.7c.7.3 1.6.2 1.9-.1.4-.3-.2-.6-1.3-.5-1.1 0-1.4.3-.6.6m227 0c.7.3 1.6.2 1.9-.1.4-.3-.2-.6-1.3-.5-1.1 0-1.4.3-.6.6M84.1 206.6c0 1.1.3 1.4.6.6.3-.7.2-1.6-.1-1.9-.3-.4-.6.2-.5 1.3m471 0c0 1.1.3 1.4.6.6.3-.7.2-1.6-.1-1.9-.3-.4-.6.2-.5 1.3m-471 227c0 1.1.3 1.4.6.6.3-.7.2-1.6-.1-1.9-.3-.4-.6.2-.5 1.3m471 0c0 1.1.3 1.4.6.6.3-.7.2-1.6-.1-1.9-.3-.4-.6.2-.5 1.3M205.8 555.7c.7.3 1.6.2 1.9-.1.4-.3-.2-.6-1.3-.5-1.1 0-1.4.3-.6.6m227 0c.7.3 1.6.2 1.9-.1.4-.3-.2-.6-1.3-.5-1.1 0-1.4.3-.6.6"/><path fill="#804080" d="M208.8 84.7c.7.3 1.6.2 1.9-.1.4-.3-.2-.6-1.3-.5-1.1 0-1.4.3-.6.6m221 0c.7.3 1.6.2 1.9-.1.4-.3-.2-.6-1.3-.5-1.1 0-1.4.3-.6.6m-302.9 33c-1.3 1.6-1.2 1.7.4.4.9-.7 1.7-1.5 1.7-1.7 0-.8-.8-.3-2.1 1.3m384.1-1.3c0 .2.8 1 1.8 1.7 1.5 1.3 1.6 1.2.3-.4s-2.1-2.1-2.1-1.3m-394.1 11.3c-1.3 1.6-1.2 1.7.4.4s2.1-2.1 1.3-2.1c-.2 0-1 .8-1.7 1.7m404.1-1.3c0 .2.8 1 1.8 1.7 1.5 1.3 1.6 1.2.3-.4s-2.1-2.1-2.1-1.3m-382.6 12.8-1.9 2.3 2.3-1.9c2.1-1.8 2.7-2.6 1.9-2.6-.2 0-1.2 1-2.3 2.2m362.1-.2c1 1.1 2 2 2.3 2s-.3-.9-1.3-2-2-2-2.3-2 .3.9 1.3 2M84.1 209.6c0 1.1.3 1.4.6.6.3-.7.2-1.6-.1-1.9-.3-.4-.6.2-.5 1.3m471 0c0 1.1.3 1.4.6.6.3-.7.2-1.6-.1-1.9-.3-.4-.6.2-.5 1.3m-471 221c0 1.1.3 1.4.6.6.3-.7.2-1.6-.1-1.9-.3-.4-.6.2-.5 1.3m471 0c0 1.1.3 1.4.6.6.3-.7.2-1.6-.1-1.9-.3-.4-.6.2-.5 1.3M138.5 501c1 1.1 2 2 2.3 2s-.3-.9-1.3-2-2-2-2.3-2 .3.9 1.3 2m361.9.2-1.9 2.3 2.3-1.9c2.1-1.8 2.7-2.6 1.9-2.6-.2 0-1.2 1-2.3 2.2M116 511.4c0 .2.8 1 1.8 1.7 1.5 1.3 1.6 1.2.3-.4s-2.1-2.1-2.1-1.3m405.9 1.3c-1.3 1.6-1.2 1.7.4.4.9-.7 1.7-1.5 1.7-1.7 0-.8-.8-.3-2.1 1.3M126 521.4c0 .2.8 1 1.8 1.7 1.5 1.3 1.6 1.2.3-.4s-2.1-2.1-2.1-1.3m385.9 1.3c-1.3 1.6-1.2 1.7.4.4s2.1-2.1 1.3-2.1c-.2 0-1 .8-1.7 1.7m-303.1 33c.7.3 1.6.2 1.9-.1.4-.3-.2-.6-1.3-.5-1.1 0-1.4.3-.6.6m221 0c.7.3 1.6.2 1.9-.1.4-.3-.2-.6-1.3-.5-1.1 0-1.4.3-.6.6"/><path fill="#BF8080" d="M203.5 85c-52.3 4.6-95.9 39-112.5 88.8-6.7 20.3-6.5 15.1-6.5 146.2 0 110.2.1 119.2 1.8 128 10.4 54.7 51 95.3 105.7 105.7 8.8 1.7 17.8 1.8 128 1.8s119.2-.1 128-1.8c54.7-10.4 95.3-51 105.7-105.7 1.7-8.8 1.8-17.8 1.8-128s-.1-119.2-1.8-128c-10.4-54.4-50.8-95-105.2-105.6-8.2-1.6-18.7-1.8-122.5-2-62.4-.1-117.5.2-122.5.6m248.7 25.8c38.9 11.2 66.4 38.9 77 77.5l2.3 8.2v247l-2.3 8.2c-10.6 38.6-38.4 66.6-77 77.5-7.2 2-10.3 2.2-48.8 2.5l-41.1.4-3.1-2.6c-1.7-1.4-3.2-3.6-3.4-4.8-.3-2.1-.7-2.2-13-2.5-12.4-.3-12.8-.2-12.8 1.8 0 1.2-1.3 3.5-2.9 5.1-4.1 4.1-10.1 4.1-14.2 0-1.6-1.6-2.9-3.9-2.9-5 0-2-.5-2.1-12.5-2.1s-12.5.1-12.5 2.1c0 1.1-1.3 3.4-3 5l-3 3-41.7-.4c-39.2-.3-42.3-.5-49.5-2.5-38.6-10.9-66.4-38.9-77-77.5l-2.3-8.2v-247l2.3-8.2c10.6-38.6 39.8-67.8 77-77.2 4.2-1.1 9.1-2.2 10.7-2.4 1.7-.2 57.7-.4 124.5-.3l121.5.2z"/><path fill="#400000" d="M437 200.4c0 .2.8 1 1.8 1.7 1.5 1.3 1.6 1.2.3-.4s-2.1-2.1-2.1-1.3m-129.2 2.3c.6.2 1.8.2 2.5 0 .6-.3.1-.5-1.3-.5s-1.9.2-1.2.5m23 0c.7.3 1.6.2 1.9-.1.4-.3-.2-.6-1.3-.5-1.1 0-1.4.3-.6.6m-19 28c.6.2 1.8.2 2.5 0 .6-.3.1-.5-1.3-.5s-1.9.2-1.2.5m14 0c.6.2 1.8.2 2.5 0 .6-.3.1-.5-1.3-.5s-1.9.2-1.2.5m76.2 4.7c0 .2.8 1 1.8 1.7 1.5 1.3 1.6 1.2.3-.4s-2.1-2.1-2.1-1.3m-146.1 21.3-2.4 2.8 2.8-2.4c2.5-2.3 3.2-3.1 2.4-3.1-.2 0-1.4 1.2-2.8 2.7m127.1-.2c1.3 1.4 2.6 2.5 2.8 2.5.3 0-.5-1.1-1.8-2.5s-2.6-2.5-2.8-2.5c-.3 0 .5 1.1 1.8 2.5m54.1 52.1c0 1.1.3 1.4.6.6.3-.7.2-1.6-.1-1.9-.3-.4-.6.2-.5 1.3M202.2 310c0 1.4.2 1.9.5 1.2.2-.6.2-1.8 0-2.5-.3-.6-.5-.1-.5 1.3m28 3c0 1.4.2 1.9.5 1.2.2-.6.2-1.8 0-2.5-.3-.6-.5-.1-.5 1.3m179 0c0 1.4.2 1.9.5 1.2.2-.6.2-1.8 0-2.5-.3-.6-.5-.1-.5 1.3m-179 14c0 1.4.2 1.9.5 1.2.2-.6.2-1.8 0-2.5-.3-.6-.5-.1-.5 1.3m179 0c0 1.4.2 1.9.5 1.2.2-.6.2-1.8 0-2.5-.3-.6-.5-.1-.5 1.3m-207.1 4.6c0 1.1.3 1.4.6.6.3-.7.2-1.6-.1-1.9-.3-.4-.6.2-.5 1.3m235 0c0 1.1.3 1.4.6.6.3-.7.2-1.6-.1-1.9-.3-.4-.6.2-.5 1.3M256 383.5c1.3 1.4 2.6 2.5 2.8 2.5.3 0-.5-1.1-1.8-2.5s-2.6-2.5-2.8-2.5c-.3 0 .5 1.1 1.8 2.5m126.9.2-2.4 2.8 2.8-2.4c2.5-2.3 3.2-3.1 2.4-3.1-.2 0-1.4 1.2-2.8 2.7M235 402.4c0 .2.8 1 1.8 1.7 1.5 1.3 1.6 1.2.3-.4s-2.1-2.1-2.1-1.3m167.9 1.3c-1.3 1.6-1.2 1.7.4.4s2.1-2.1 1.3-2.1c-.2 0-1 .8-1.7 1.7m-91.1 6c.6.2 1.8.2 2.5 0 .6-.3.1-.5-1.3-.5s-1.9.2-1.2.5m14 0c.6.2 1.8.2 2.5 0 .6-.3.1-.5-1.3-.5s-1.9.2-1.2.5m-18 28c.7.3 1.6.2 1.9-.1.4-.3-.2-.6-1.3-.5-1.1 0-1.4.3-.6.6m23 0c.7.3 1.6.2 1.9-.1.4-.3-.2-.6-1.3-.5-1.1 0-1.4.3-.6.6"/><path fill="gray" d="M205.8 128.7c.6.2 1.8.2 2.5 0 .6-.3.1-.5-1.3-.5s-1.9.2-1.2.5m226 0c.6.2 1.8.2 2.5 0 .6-.3.1-.5-1.3-.5s-1.9.2-1.2.5m-274.9 21c-1.3 1.6-1.2 1.7.4.4.9-.7 1.7-1.5 1.7-1.7 0-.8-.8-.3-2.1 1.3m324.1-1.3c0 .2.8 1 1.8 1.7 1.5 1.3 1.6 1.2.3-.4s-2.1-2.1-2.1-1.3m-332.1 9.3c-1.3 1.6-1.2 1.7.4.4.9-.7 1.7-1.5 1.7-1.7 0-.8-.8-.3-2.1 1.3m340.1-1.3c0 .2.8 1 1.8 1.7 1.5 1.3 1.6 1.2.3-.4s-2.1-2.1-2.1-1.3m-180.7 26.3c.9.2 2.3.2 3 0 .6-.3-.1-.5-1.8-.5-1.6 0-2.2.2-1.2.5m22.5 0c.6.2 1.8.2 2.5 0 .6-.3.1-.5-1.3-.5s-1.9.2-1.2.5m82.3 9.9c0 1.1.3 1.4.6.6.3-.7.2-1.6-.1-1.9-.3-.4-.6.2-.5 1.3M128.2 207c0 1.4.2 1.9.5 1.2.2-.6.2-1.8 0-2.5-.3-.6-.5-.1-.5 1.3m383 0c0 1.4.2 1.9.5 1.2.2-.6.2-1.8 0-2.5-.3-.6-.5-.1-.5 1.3M414 219.4c0 .2.8 1 1.8 1.7 1.5 1.3 1.6 1.2.3-.4s-2.1-2.1-2.1-1.3m4 4c0 .2.8 1 1.8 1.7 1.5 1.3 1.6 1.2.3-.4s-2.1-2.1-2.1-1.3m28.8 3.3c.7.3 1.6.2 1.9-.1.4-.3-.2-.6-1.3-.5-1.1 0-1.4.3-.6.6m-134 24c.7.3 1.6.2 1.9-.1.4-.3-.2-.6-1.3-.5-1.1 0-1.4.3-.6.6m13 0c.7.3 1.6.2 1.9-.1.4-.3-.2-.6-1.3-.5-1.1 0-1.4.3-.6.6m-143.7 56.9c0 1.1.3 1.4.6.6.3-.7.2-1.6-.1-1.9-.3-.4-.6.2-.5 1.3m275.1.4c0 1.4.2 1.9.5 1.2.2-.6.2-1.8 0-2.5-.3-.6-.5-.1-.5 1.3m-207.1 5.6c0 1.1.3 1.4.6.6.3-.7.2-1.6-.1-1.9-.3-.4-.6.2-.5 1.3m139 0c0 1.1.3 1.4.6.6.3-.7.2-1.6-.1-1.9-.3-.4-.6.2-.5 1.3m-139 13c0 1.1.3 1.4.6.6.3-.7.2-1.6-.1-1.9-.3-.4-.6.2-.5 1.3m139 0c0 1.1.3 1.4.6.6.3-.7.2-1.6-.1-1.9-.3-.4-.6.2-.5 1.3M182.2 332c0 1.4.2 1.9.5 1.2.2-.6.2-1.8 0-2.5-.3-.6-.5-.1-.5 1.3m275 0c0 1.4.2 1.9.5 1.2.2-.6.2-1.8 0-2.5-.3-.6-.5-.1-.5 1.3m-144.4 57.7c.7.3 1.6.2 1.9-.1.4-.3-.2-.6-1.3-.5-1.1 0-1.4.3-.6.6m13 0c.7.3 1.6.2 1.9-.1.4-.3-.2-.6-1.3-.5-1.1 0-1.4.3-.6.6M219 414.4c0 .2.8 1 1.8 1.7 1.5 1.3 1.6 1.2.3-.4s-2.1-2.1-2.1-1.3m199.9 1.3c-1.3 1.6-1.2 1.7.4.4s2.1-2.1 1.3-2.1c-.2 0-1 .8-1.7 1.7M223 418.4c0 .2.8 1 1.8 1.7 1.5 1.3 1.6 1.2.3-.4s-2.1-2.1-2.1-1.3m191.9 1.3c-1.3 1.6-1.2 1.7.4.4s2.1-2.1 1.3-2.1c-.2 0-1 .8-1.7 1.7M128.2 433c0 1.4.2 1.9.5 1.2.2-.6.2-1.8 0-2.5-.3-.6-.5-.1-.5 1.3m383 0c0 1.4.2 1.9.5 1.2.2-.6.2-1.8 0-2.5-.3-.6-.5-.1-.5 1.3m-204.4 24.7c.6.2 1.8.2 2.5 0 .6-.3.1-.5-1.3-.5s-1.9.2-1.2.5m24 0c.6.2 1.8.2 2.5 0 .6-.3.1-.5-1.3-.5s-1.9.2-1.2.5M148 481.4c0 .2.8 1 1.8 1.7 1.5 1.3 1.6 1.2.3-.4s-2.1-2.1-2.1-1.3m341.9 1.3c-1.3 1.6-1.2 1.7.4.4.9-.7 1.7-1.5 1.7-1.7 0-.8-.8-.3-2.1 1.3M156 489.4c0 .2.8 1 1.8 1.7 1.5 1.3 1.6 1.2.3-.4s-2.1-2.1-2.1-1.3m325.9 1.3c-1.3 1.6-1.2 1.7.4.4s2.1-2.1 1.3-2.1c-.2 0-1 .8-1.7 1.7m-276.1 21c.6.2 1.8.2 2.5 0 .6-.3.1-.5-1.3-.5s-1.9.2-1.2.5m226 0c.6.2 1.8.2 2.5 0 .6-.3.1-.5-1.3-.5s-1.9.2-1.2.5"/><path fill="#BFBFBF" d="M210.3 128.7c.9.2 2.3.2 3 0 .6-.3-.1-.5-1.8-.5-1.6 0-2.2.2-1.2.5m217 0c.9.2 2.3.2 3 0 .6-.3-.1-.5-1.8-.5-1.6 0-2.2.2-1.2.5m23 22c.9.2 2.3.2 3 0 .6-.3-.1-.5-1.8-.5-1.6 0-2.2.2-1.2.5m-297.4 3-2.4 2.8 2.8-2.4c2.5-2.3 3.2-3.1 2.4-3.1-.2 0-1.4 1.2-2.8 2.7m333.1-.2c1.3 1.4 2.6 2.5 2.8 2.5.3 0-.5-1.1-1.8-2.5s-2.6-2.5-2.8-2.5c-.3 0 .5 1.1 1.8 2.5m-62.6 8.7-2.9 3.3 3.3-2.9c3-2.8 3.7-3.6 2.9-3.6-.2 0-1.6 1.5-3.3 3.2m-10.3 20.4c0 1.1.3 1.4.6.6.3-.7.2-1.6-.1-1.9-.3-.4-.6.2-.5 1.3m-109.3.1c.6.2 1.8.2 2.5 0 .6-.3.1-.5-1.3-.5s-1.9.2-1.2.5m185.4 5.8c0 1.6.2 2.2.5 1.2.2-.9.2-2.3 0-3-.3-.6-.5.1-.5 1.8m-361 23c0 1.6.2 2.2.5 1.2.2-.9.2-2.3 0-3-.3-.6-.5.1-.5 1.8m383 0c0 1.6.2 2.2.5 1.2.2-.9.2-2.3 0-3-.3-.6-.5.1-.5 1.8m-92.2-1.1c0 .2.8 1 1.8 1.7 1.5 1.3 1.6 1.2.3-.4s-2.1-2.1-2.1-1.3m-11 2.9c0 .2 1.5 1.6 3.3 3.3l3.2 2.9-2.9-3.3c-2.8-3-3.6-3.7-3.6-2.9m69.4 2.9-2.9 3.3 3.3-2.9c1.7-1.7 3.2-3.1 3.2-3.3 0-.8-.8-.1-3.6 2.9m-50.4 2.2c0 .2.8 1 1.8 1.7 1.5 1.3 1.6 1.2.3-.4s-2.1-2.1-2.1-1.3m-204.5 3.7c-.4.6-.5 1.2-.2 1.5.2.3.7-.2 1-1.1.7-1.7.1-2-.8-.4m198.5 4.2c0 .2 1.5 1.6 3.3 3.3l3.2 2.9-2.9-3.3c-2.8-3-3.6-3.7-3.6-2.9m35.8.4c.7.3 1.6.2 1.9-.1.4-.3-.2-.6-1.3-.5-1.1 0-1.4.3-.6.6m-256.4 23.5-1.9 2.3 2.3-1.9c2.1-1.8 2.7-2.6 1.9-2.6-.2 0-1.2 1-2.3 2.2m116.9.5c1.5.2 3.9.2 5.5 0 1.5-.2.2-.4-2.8-.4s-4.3.2-2.7.4m-46.8 20.5-5 5.3 5.3-5c4.8-4.6 5.7-5.5 4.9-5.5-.1 0-2.5 2.4-5.2 5.2m98-.2c2.7 2.7 5.1 5 5.4 5s-1.7-2.3-4.4-5c-2.7-2.8-5.1-5-5.4-5s1.7 2.2 4.4 5m-118.2 49c0 3 .2 4.3.4 2.7.2-1.5.2-3.9 0-5.5-.2-1.5-.4-.2-.4 2.8m139 0c0 3 .2 4.3.4 2.7.2-1.5.2-3.9 0-5.5-.2-1.5-.4-.2-.4 2.8m-118.8 49c2.7 2.7 5.1 5 5.4 5s-1.7-2.3-4.4-5c-2.7-2.8-5.1-5-5.4-5s1.7 2.2 4.4 5m98 .2-5 5.3 5.3-5c4.8-4.6 5.7-5.5 4.9-5.5-.1 0-2.5 2.4-5.2 5.2m-51.2 20.5c1.5.2 3.9.2 5.5 0 1.5-.2.2-.4-2.8-.4s-4.3.2-2.7.4M213 408.3c0 .2 1.5 1.6 3.3 3.3l3.2 2.9-2.9-3.3c-2.8-3-3.6-3.7-3.6-2.9m210.4 2.9-2.9 3.3 3.3-2.9c1.7-1.7 3.2-3.1 3.2-3.3 0-.8-.8-.1-3.6 2.9M226 421.3c0 .2 1.5 1.6 3.3 3.3l3.2 2.9-2.9-3.3c-2.8-3-3.6-3.7-3.6-2.9m184.4 2.9-2.9 3.3 3.3-2.9c3-2.8 3.7-3.6 2.9-3.6-.2 0-1.6 1.5-3.3 3.2m-282.2 4.3c0 1.6.2 2.2.5 1.2.2-.9.2-2.3 0-3-.3-.6-.5.1-.5 1.8m383 0c0 1.6.2 2.2.5 1.2.2-.9.2-2.3 0-3-.3-.6-.5.1-.5 1.8m-358.2 58c1.3 1.4 2.6 2.5 2.8 2.5.3 0-.5-1.1-1.8-2.5s-2.6-2.5-2.8-2.5c-.3 0 .5 1.1 1.8 2.5m332.9.2-2.4 2.8 2.8-2.4c1.5-1.4 2.7-2.6 2.7-2.8 0-.8-.8-.1-3.1 2.4m-275.6 25c.9.2 2.3.2 3 0 .6-.3-.1-.5-1.8-.5-1.6 0-2.2.2-1.2.5m217 0c.9.2 2.3.2 3 0 .6-.3-.1-.5-1.8-.5-1.6 0-2.2.2-1.2.5"/><g fill="#FFF" stroke-width="0"><path d="M206.4 129c-15 1.5-27 5.8-39.3 14-19 12.8-31.5 31-36.9 54.1-1.6 6.8-1.7 16.8-1.7 122.9s.1 116.1 1.7 122.9c8 34.1 32.8 59 66.3 66.7 5.5 1.3 15.2 1.7 45.2 2.1l38.3.5 2.5 2.5c1.4 1.4 2.5 3.6 2.5 4.9 0 2.4 0 2.4 12.5 2.4s12.5 0 12.5-2.4c0-1.3 1.2-3.5 2.6-5 3.8-3.7 11-3.7 14.8 0 1.4 1.5 2.6 3.7 2.6 5 0 2.4 0 2.4 12.4 2.4h12.4l1.2-3.4c2.1-6.4 1.7-6.3 43-6.9 40.3-.5 44.3-1 58.4-6.3 3.8-1.5 10.8-5.3 15.5-8.4 19-12.8 31.5-31 36.9-54.1 1.6-6.8 1.7-16.8 1.7-122.9s-.1-116.1-1.7-122.9c-8-34.1-32.3-58.6-66.3-66.8-6.3-1.5-18-1.7-118-1.9-61-.1-114.6.2-119.1.6m258.9 24c14.6 5.5 24 19.4 23.9 35.5 0 22.9-17.5 39.6-40.3 38.3-29.2-1.7-45.7-34.2-29.8-59 9.6-14.9 29.2-21.1 46.2-14.8m-122.6 30.5c15.7 2.5 34.7 9.4 47.8 17.3 24.2 14.5 45 37.8 55.8 62.7 8.3 19 11.7 35.4 11.7 56.5s-3.4 37.5-11.7 56.5c-13.1 30.1-39.7 56.7-69.8 69.8-19 8.3-35.4 11.7-56.5 11.7-31.9 0-59.1-9.1-84-28.1-28.2-21.5-47.1-53.2-52.7-88.2-1.9-12.4-1.3-39.3 1.2-50.4 3.8-17.2 13.2-39.7 17.8-42.7 2.3-1.5 7.8-2.3 10.3-1.5.7.2 3.5-2.7 6.3-6.4 4.2-5.6 4.9-7.2 4.1-8.7-.5-1-1-3.6-1-5.7 0-7.3 8.4-12.3 15-8.9 3.5 1.7 3.4 1.7 10.2-3.2 4.3-3.2 4.6-3.6 4.1-7.2q-.6-3.75 1.2-6.3c3.2-4.9 23.5-13 42-16.7 11.6-2.3 35.5-2.6 48.2-.5"/><path d="M303.5 252.6c-3.3.8-9.8 3.3-14.5 5.6-6.9 3.4-10.2 5.9-17.5 13.3-7.4 7.3-9.9 10.6-13.3 17.5-5.3 10.8-7.2 19-7.2 31s1.9 20.2 7.2 31c3.4 6.9 5.9 10.2 13.3 17.5 7.3 7.4 10.6 9.9 17.5 13.3 10.8 5.3 19 7.2 31 7.2s20.2-1.9 31-7.2c6.9-3.4 10.2-5.9 17.5-13.3 7.4-7.3 9.9-10.6 13.3-17.5 5.3-10.8 7.2-19 7.2-31s-1.9-20.2-7.2-31c-3.4-6.9-5.9-10.2-13.3-17.5-14.4-14.5-28.9-20.5-49-20.4-5.5 0-12.7.7-16 1.5"/></g><path fill="maroon" d="M311.8 202.7c.6.2 1.8.2 2.5 0 .6-.3.1-.5-1.3-.5s-1.9.2-1.2.5m15 0c.6.2 1.8.2 2.5 0 .6-.3.1-.5-1.3-.5s-1.9.2-1.2.5m-84.7 23.9c0 1.1.3 1.4.6.6.3-.7.2-1.6-.1-1.9-.3-.4-.6.2-.5 1.3M437.2 312c0 1.4.2 1.9.5 1.2.2-.6.2-1.8 0-2.5-.3-.6-.5-.1-.5 1.3m-235.1 1.6c0 1.1.3 1.4.6.6.3-.7.2-1.6-.1-1.9-.3-.4-.6.2-.5 1.3m.1 14.4c0 1.4.2 1.9.5 1.2.2-.6.2-1.8 0-2.5-.3-.6-.5-.1-.5 1.3m235 0c0 1.4.2 1.9.5 1.2.2-.6.2-1.8 0-2.5-.3-.6-.5-.1-.5 1.3M310.8 437.7c.6.2 1.8.2 2.5 0 .6-.3.1-.5-1.3-.5s-1.9.2-1.2.5m16 0c.6.2 1.8.2 2.5 0 .6-.3.1-.5-1.3-.5s-1.9.2-1.2.5"/><path fill="#BF4040" d="M436 198.3c0 .2 1.5 1.6 3.3 3.3l3.2 2.9-2.9-3.3c-2.8-3-3.6-3.7-3.6-2.9m-117.7 4.4c1.5.2 3.7.2 5 0 1.2-.2 0-.4-2.8-.4-2.7 0-3.8.2-2.2.4m84.2 34.3c2.7 2.7 5.1 5 5.4 5s-1.7-2.3-4.4-5c-2.7-2.8-5.1-5-5.4-5s1.7 2.2 4.4 5m-139.6 12.7c-1.3 1.6-1.2 1.7.4.4s2.1-2.1 1.3-2.1c-.2 0-1 .8-1.7 1.7m112.1-1.3c0 .2.8 1 1.8 1.7 1.5 1.3 1.6 1.2.3-.4s-2.1-2.1-2.1-1.3m-119.6 7.8-1.9 2.3 2.3-1.9c2.1-1.8 2.7-2.6 1.9-2.6-.2 0-1.2 1-2.3 2.2m128.1-.2c1 1.1 2 2 2.3 2s-.3-.9-1.3-2-2-2-2.3-2 .3.9 1.3 2m-134.6 7.7c-1.3 1.6-1.2 1.7.4.4.9-.7 1.7-1.5 1.7-1.7 0-.8-.8-.3-2.1 1.3m140.1-1.3c0 .2.8 1 1.8 1.7 1.5 1.3 1.6 1.2.3-.4s-2.1-2.1-2.1-1.3m48.3 57.6c0 3 .2 4.3.4 2.7.2-1.5.2-3.9 0-5.5-.2-1.5-.4-.2-.4 2.8m-235 .5c0 2.7.2 3.8.4 2.2.2-1.5.2-3.7 0-5-.2-1.2-.4 0-.4 2.8m45.7 54.9c0 .2.8 1 1.8 1.7 1.5 1.3 1.6 1.2.3-.4s-2.1-2.1-2.1-1.3m141.9 1.3c-1.3 1.6-1.2 1.7.4.4s2.1-2.1 1.3-2.1c-.2 0-1 .8-1.7 1.7M255.5 384c1 1.1 2 2 2.3 2s-.3-.9-1.3-2-2-2-2.3-2 .3.9 1.3 2m127.9.2-1.9 2.3 2.3-1.9c1.2-1.1 2.2-2.1 2.2-2.3 0-.8-.8-.2-2.6 1.9M262 389.4c0 .2.8 1 1.8 1.7 1.5 1.3 1.6 1.2.3-.4s-2.1-2.1-2.1-1.3m113.9 1.3c-1.3 1.6-1.2 1.7.4.4s2.1-2.1 1.3-2.1c-.2 0-1 .8-1.7 1.7M236.5 403c2.7 2.7 5.1 5 5.4 5s-1.7-2.3-4.4-5c-2.7-2.8-5.1-5-5.4-5s1.7 2.2 4.4 5m166 .2-5 5.3 5.3-5c2.8-2.7 5.2-5.1 5.2-5.2 0-.8-.9.1-5.5 4.9m-85.2 34.5c1.5.2 3.9.2 5.5 0 1.5-.2.2-.4-2.8-.4s-4.3.2-2.7.4"/><path fill="#FF4040" d="M445.7 172.4c-12.4 4.5-15.6 19.9-6.1 28.8 9.7 9 25 4.5 28.4-8.3 3.4-12.6-10.1-24.9-22.3-20.5m-147 32.2c-8.6 1.7-17 4.4-27.8 8.8-9.1 3.8-12.8 3.8-17 0-1.7-1.5-2.1-1.4-7.3 2.2-3.9 2.7-5.4 4.4-5 5.4 2.3 5.4 1.6 9.5-2.2 13.3-2.9 2.9-8.7 3.7-12.6 1.6-2.2-1.2-3.4-.2-9.4 8.3l-2.6 3.7 2.1 2.7c3 3.8 2.6 7.9-1.5 16.4-16.5 34.1-16.7 72.2-.7 104.5 16.7 33.5 48.8 57.7 84.7 64 11.3 1.9 29.9 1.9 41.2 0 47.5-8.3 86.6-47.4 94.9-94.9 1.9-11.3 1.9-29.9 0-41.2-8.3-47.5-47.4-86.6-94.9-94.9-10.8-1.8-32.4-1.8-41.9.1m44.8 27.9c3.3.9 9.7 3.4 14.1 5.5 20.7 9.6 34.8 23.7 44.4 44.4 6.4 13.6 7.5 18.9 7.5 37.6s-1.1 24-7.5 37.6c-9.6 20.7-23.7 34.8-44.4 44.4-13.6 6.4-18.9 7.5-37.6 7.5s-24-1.1-37.6-7.5c-20.7-9.6-34.8-23.7-44.4-44.4-5.6-12-7.1-18.4-7.7-33.7-.8-20.3 2.8-35 12.9-51.5 12-19.9 34.2-35.7 57.3-40.8 9.3-2.1 34.4-1.5 43 .9"/><path fill="#FFBFBF" d="M249.4 212.6c-1.8 1.4-1.8 1.5.4.4 1.2-.6 2.2-1.3 2.2-1.5 0-.8-.5-.6-2.6 1.1m-27.5 24.1-2.4 2.8 2.8-2.4c2.5-2.3 3.2-3.1 2.4-3.1-.2 0-1.4 1.2-2.8 2.7"/><path fill="#FF8080" d="M220.9 238.7c-1.3 1.6-1.2 1.7.4.4.9-.7 1.7-1.5 1.7-1.7 0-.8-.8-.3-2.1 1.3"/></svg>