<svg xmlns="http://www.w3.org/2000/svg" version="1.0" viewBox="0 0 640 640"><path fill="#00BF00" fill-opacity=".9" d="M64.1 110.6c0 1.1.3 1.4.6.6.3-.7.2-1.6-.1-1.9-.3-.4-.6.2-.5 1.3"/><g fill="#00BF00" stroke-width="0"><path d="M105.1 65.1c-21 2.7-37.6 20.1-40.1 42-.6 4.8-1 46.9-1 98.6V296h98.5l1.7-8.8c2.5-13.1 7.2-26.3 13.8-39.7 21.6-43.3 61.8-74.1 110.4-84.7 8.7-1.9 13.1-2.2 31.6-2.2s22.9.3 31.6 2.2c34.7 7.5 66.5 26 88 51 18.1 20.9 31.1 47.4 36.1 73l1.8 9.2H576v-90.3c0-51.7-.4-93.8-1-98.6-2.6-22.4-19-39.2-41-42.1-9.3-1.2-419.6-1.1-428.9.1"/><path d="M302.5 196c-40.6 6.4-75 31.2-93 67-4.2 8.4-8.6 20.6-10.4 28.7l-.9 4.3h42.3v-12.7c0-12.1.2-13.1 2.9-18.7 3.1-6.3 14.2-18.8 18.7-21.2 1.6-.8 4.4-1.4 6.3-1.4 6 0 8.6 3.4 16.6 21.2 8.1 18.2 8.7 21.8 4.8 27-1.3 1.8-2.8 3.9-3.2 4.5-.6 1 15.1 1.3 77.2 1.3h78l-.9-4.3c-10-45.8-47.3-83.1-93.9-93.8-9.9-2.3-35.1-3.3-44.5-1.9"/></g><path fill="#40BF40" d="M304.8 160.7c.7.3 1.6.2 1.9-.1.4-.3-.2-.6-1.3-.5-1.1 0-1.4.3-.6.6m29 0c.7.3 1.6.2 1.9-.1.4-.3-.2-.6-1.3-.5-1.1 0-1.4.3-.6.6m98.2 45.5c4.1 4.5 5 5.3 5 4.5 0-.2-2.1-2.3-4.7-4.7l-4.8-4.5zm-224.6 0-2.9 3.3 3.3-2.9c3-2.8 3.7-3.6 2.9-3.6-.2 0-1.6 1.5-3.3 3.2m32.5 17.5c-1.3 1.6-1.2 1.7.4.4s2.1-2.1 1.3-2.1c-.2 0-1 .8-1.7 1.7m-78.8 83.9c0 1.1.3 1.4.6.6.3-.7.2-1.6-.1-1.9-.3-.4-.6.2-.5 1.3m282 0c0 1.1.3 1.4.6.6.3-.7.2-1.6-.1-1.9-.3-.4-.6.2-.5 1.3m35 0c0 1.1.3 1.4.6.6.3-.7.2-1.6-.1-1.9-.3-.4-.6.2-.5 1.3M290 321.3c0 .2 1.5 1.6 3.3 3.3l3.2 2.9-2.9-3.3c-2.8-3-3.6-3.7-3.6-2.9M161.2 330c0 1.4.2 1.9.5 1.2.2-.6.2-1.8 0-2.5-.3-.6-.5-.1-.5 1.3m281.9-.4c0 1.1.3 1.4.6.6.3-.7.2-1.6-.1-1.9-.3-.4-.6.2-.5 1.3m35 0c0 1.1.3 1.4.6.6.3-.7.2-1.6-.1-1.9-.3-.4-.6.2-.5 1.3m-282 1c0 1.1.3 1.4.6.6.3-.7.2-1.6-.1-1.9-.3-.4-.6.2-.5 1.3m104.9 1.9c1.3 1.4 2.6 2.5 2.8 2.5.3 0-.5-1.1-1.8-2.5s-2.6-2.5-2.8-2.5c-.3 0 .5 1.1 1.8 2.5m49.5 18.7-5 5.3 5.3-5c4.8-4.6 5.7-5.5 4.9-5.5-.1 0-2.5 2.4-5.2 5.2m-64.5 9.2c0 .2.8 1 1.8 1.7 1.5 1.3 1.6 1.2.3-.4s-2.1-2.1-2.1-1.3m106.9 23.3-2.4 2.8 2.8-2.4c2.5-2.3 3.2-3.1 2.4-3.1-.2 0-1.4 1.2-2.8 2.7m17.5 19.5-1.9 2.3 2.3-1.9c1.2-1.1 2.2-2.1 2.2-2.3 0-.8-.8-.2-2.6 1.9m-6.5 6.5c-1.3 1.6-1.2 1.7.4.4.9-.7 1.7-1.5 1.7-1.7 0-.8-.8-.3-2.1 1.3m34 15c-1.3 1.6-1.2 1.7.4.4s2.1-2.1 1.3-2.1c-.2 0-1 .8-1.7 1.7m-125.1 18c.6.2 1.8.2 2.5 0 .6-.3.1-.5-1.3-.5s-1.9.2-1.2.5m12 0c.6.2 1.8.2 2.5 0 .6-.3.1-.5-1.3-.5s-1.9.2-1.2.5m-163.7 30.9c0 1.1.3 1.4.6.6.3-.7.2-1.6-.1-1.9-.3-.4-.6.2-.5 1.3m155.2 4.1c2 .2 5.4.2 7.5 0 2-.2.3-.4-3.8-.4s-5.8.2-3.7.4"/><path fill="#80BF80" d="M308.8 160.7c.7.3 1.6.2 1.9-.1.4-.3-.2-.6-1.3-.5-1.1 0-1.4.3-.6.6m20.5 0c.9.2 2.3.2 3 0 .6-.3-.1-.5-1.8-.5-1.6 0-2.2.2-1.2.5m-13.5 34c2.3.2 6.1.2 8.5 0 2.3-.2.4-.4-4.3-.4s-6.6.2-4.2.4m-13 1c.7.3 1.6.2 1.9-.1.4-.3-.2-.6-1.3-.5-1.1 0-1.4.3-.6.6m33 0c.7.3 1.6.2 1.9-.1.4-.3-.2-.6-1.3-.5-1.1 0-1.4.3-.6.6m86.2 1.7c0 .2.8 1 1.8 1.7 1.5 1.3 1.6 1.2.3-.4s-2.1-2.1-2.1-1.3m-190 33.1c-2.4 2.5-4.2 4.5-3.9 4.5s2.5-2 4.9-4.5 4.2-4.5 3.9-4.5-2.5 2-4.9 4.5m175.5.5c2.7 2.7 5.1 5 5.4 5s-1.7-2.3-4.4-5c-2.7-2.8-5.1-5-5.4-5s1.7 2.2 4.4 5m-153 19.2-4 4.3 4.3-4c3.9-3.6 4.7-4.5 3.9-4.5-.2 0-2.1 1.9-4.2 4.2m-58.4 54.4c0 1.1.3 1.4.6.6.3-.7.2-1.6-.1-1.9-.3-.4-.6.2-.5 1.3m247 0c0 1.1.3 1.4.6.6.3-.7.2-1.6-.1-1.9-.3-.4-.6.2-.5 1.3M161.4 319c0 5.2.1 7.4.3 4.7.2-2.6.2-6.8 0-9.5-.2-2.6-.3-.4-.3 4.8m317 0c0 5.2.1 7.4.3 4.7.2-2.6.2-6.8 0-9.5-.2-2.6-.3-.4-.3 4.8m-123.6 76.7c.7.3 1.6.2 1.9-.1.4-.3-.2-.6-1.3-.5-1.1 0-1.4.3-.6.6m77.2 34.8c-2.4 2.5-4.2 4.5-3.9 4.5s2.5-2 4.9-4.5 4.2-4.5 3.9-4.5-2.5 2-4.9 4.5m-123.2 12.2c.7.3 1.6.2 1.9-.1.4-.3-.2-.6-1.3-.5-1.1 0-1.4.3-.6.6m20 0c.6.2 1.8.2 2.5 0 .6-.3.1-.5-1.3-.5s-1.9.2-1.2.5m-26 34c.7.3 1.6.2 1.9-.1.4-.3-.2-.6-1.3-.5-1.1 0-1.4.3-.6.6"/><path fill="#BFBFBF" d="M315.8 160.7c2.3.2 6.1.2 8.5 0 2.3-.2.4-.4-4.3-.4s-6.6.2-4.2.4m22 1c.7.3 1.6.2 1.9-.1.4-.3-.2-.6-1.3-.5-1.1 0-1.4.3-.6.6m-29 33c.6.2 1.8.2 2.5 0 .6-.3.1-.5-1.3-.5s-1.9.2-1.2.5m20 0c.6.2 1.8.2 2.5 0 .6-.3.1-.5-1.3-.5s-1.9.2-1.2.5m-109.9 2c-1.3 1.6-1.2 1.7.4.4s2.1-2.1 1.3-2.1c-.2 0-1 .8-1.7 1.7M431.5 207c3.8 3.8 7.2 7 7.4 7 .3 0-2.6-3.2-6.4-7-3.8-3.9-7.2-7-7.4-7-.3 0 2.6 3.1 6.4 7m-224 .2-6 6.3 6.3-6c3.4-3.3 6.2-6.1 6.2-6.2 0-.8-1 .1-6.5 5.9m-10.1 11-1.9 2.3 2.3-1.9c2.1-1.8 2.7-2.6 1.9-2.6-.2 0-1.2 1-2.3 2.2m243.6-.8c0 .2.8 1 1.8 1.7 1.5 1.3 1.6 1.2.3-.4s-2.1-2.1-2.1-1.3m-197.1 2.3c-1.3 1.6-1.2 1.7.4.4.9-.7 1.7-1.5 1.7-1.7 0-.8-.8-.3-2.1 1.3m150.1-1.3c0 .2.8 1 1.8 1.7 1.5 1.3 1.6 1.2.3-.4s-2.1-2.1-2.1-1.3m-155.6 5.8-1.9 2.3 2.3-1.9c2.1-1.8 2.7-2.6 1.9-2.6-.2 0-1.2 1-2.3 2.2m162.1-.2c1 1.1 2 2 2.3 2s-.3-.9-1.3-2-2-2-2.3-2 .3.9 1.3 2m44.5-1.6c0 .2.8 1 1.8 1.7 1.5 1.3 1.6 1.2.3-.4s-2.1-2.1-2.1-1.3m-220.6 15.8-1.9 2.3 2.3-1.9c2.1-1.8 2.7-2.6 1.9-2.6-.2 0-1.2 1-2.3 2.2m190.1-.2c1 1.1 2 2 2.3 2s-.3-.9-1.3-2-2-2-2.3-2 .3.9 1.3 2m-165.6 18.7c-1.3 1.6-1.2 1.7.4.4.9-.7 1.7-1.5 1.7-1.7 0-.8-.8-.3-2.1 1.3m-8.6 24.8c0 3.3.2 4.5.4 2.7s.2-4.5 0-6-.4 0-.4 3.3m-78.2 21.1c0 1.1.3 1.4.6.6.3-.7.2-1.6-.1-1.9-.3-.4-.6.2-.5 1.3m315 0c0 1.1.3 1.4.6.6.3-.7.2-1.6-.1-1.9-.3-.4-.6.2-.5 1.3m-196.9 2.9c0 1.6.2 2.2.5 1.2.2-.9.2-2.3 0-3-.3-.6-.5.1-.5 1.8m-84.9 8.5c0 2.5.2 3.5.4 2.2.2-1.2.2-3.2 0-4.5-.2-1.2-.4-.2-.4 2.3m249 5c0 4.7.2 6.6.4 4.2.2-2.3.2-6.1 0-8.5-.2-2.3-.4-.4-.4 4.3M285 316.4c0 .2.8 1 1.8 1.7 1.5 1.3 1.6 1.2.3-.4s-2.1-2.1-2.1-1.3m-89.7 6.6c0 2.5.2 3.5.4 2.2.2-1.2.2-3.2 0-4.5-.2-1.2-.4-.2-.4 2.3m93.7-1.7c0 .1 3.5 3.6 7.8 7.7l7.7 7.5-7.5-7.8c-6.9-7.1-8-8.2-8-7.4m-29 11.1c0 .2.8 1 1.8 1.7 1.5 1.3 1.6 1.2.3-.4s-2.1-2.1-2.1-1.3m-97.9 2.2c0 1.1.3 1.4.6.6.3-.7.2-1.6-.1-1.9-.3-.4-.6.2-.5 1.3m315 0c0 1.1.3 1.4.6.6.3-.7.2-1.6-.1-1.9-.3-.4-.6.2-.5 1.3m-281 1c0 1.1.3 1.4.6.6.3-.7.2-1.6-.1-1.9-.3-.4-.6.2-.5 1.3m247 0c0 1.1.3 1.4.6.6.3-.7.2-1.6-.1-1.9-.3-.4-.6.2-.5 1.3M265.5 339c1 1.1 2 2 2.3 2s-.3-.9-1.3-2-2-2-2.3-2 .3.9 1.3 2m43 1c1 1.1 2 2 2.3 2s-.3-.9-1.3-2-2-2-2.3-2 .3.9 1.3 2M276 350.5c3.5 3.6 6.7 6.5 6.9 6.5.3 0-2.4-2.9-5.9-6.5s-6.7-6.5-6.9-6.5c-.3 0 2.4 2.9 5.9 6.5m75.5.7-5 5.3 5.3-5c4.8-4.6 5.7-5.5 4.9-5.5-.1 0-2.5 2.4-5.2 5.2m49 4.8c1 1.1 2 2 2.3 2s-.3-.9-1.3-2-2-2-2.3-2 .3.9 1.3 2m-63.2 2.7c.9.2 2.5.2 3.5 0 .9-.3.1-.5-1.8-.5s-2.7.2-1.7.5m-49.3 2.8c1.3 1.4 2.6 2.5 2.8 2.5.3 0-.5-1.1-1.8-2.5s-2.6-2.5-2.8-2.5c-.3 0 .5 1.1 1.8 2.5m6 4.9c0 .2.8 1 1.8 1.7 1.5 1.3 1.6 1.2.3-.4s-2.1-2.1-2.1-1.3m98 17.1c-2.4 2.5-4.2 4.5-3.9 4.5s2.5-2 4.9-4.5 4.2-4.5 3.9-4.5-2.5 2-4.9 4.5m-32.7 12.2c1.5.2 3.9.2 5.5 0 1.5-.2.2-.4-2.8-.4s-4.3.2-2.7.4m56.6 2c-1.3 1.6-1.2 1.7.4.4.9-.7 1.7-1.5 1.7-1.7 0-.8-.8-.3-2.1 1.3m-8.4 9.5-5 5.3 5.3-5c2.8-2.7 5.2-5.1 5.2-5.2 0-.8-.9.1-5.5 4.9m39.4 5.5c-1.3 1.6-1.2 1.7.4.4.9-.7 1.7-1.5 1.7-1.7 0-.8-.8-.3-2.1 1.3m-49 3c-1.3 1.6-1.2 1.7.4.4.9-.7 1.7-1.5 1.7-1.7 0-.8-.8-.3-2.1 1.3m40.5 7.5-1.9 2.3 2.3-1.9c2.1-1.8 2.7-2.6 1.9-2.6-.2 0-1.2 1-2.3 2.2m-14.5 14.5-2.4 2.8 2.8-2.4c2.5-2.3 3.2-3.1 2.4-3.1-.2 0-1.4 1.2-2.8 2.7m-118.1 5c.7.3 1.6.2 1.9-.1.4-.3-.2-.6-1.3-.5-1.1 0-1.4.3-.6.6m27 0c.7.3 1.6.2 1.9-.1.4-.3-.2-.6-1.3-.5-1.1 0-1.4.3-.6.6M162 476.4c0 .2.8 1 1.8 1.7 1.5 1.3 1.6 1.2.3-.4s-2.1-2.1-2.1-1.3m143.8.3c.6.2 1.8.2 2.5 0 .6-.3.1-.5-1.3-.5s-1.9.2-1.2.5m26 0c.7.3 1.6.2 1.9-.1.4-.3-.2-.6-1.3-.5-1.1 0-1.4.3-.6.6m-165 3c.6.2 1.8.2 2.5 0 .6-.3.1-.5-1.3-.5s-1.9.2-1.2.5"/><g fill="#FFF" stroke-width="0"><path d="M292.7 163.1c-31.9 5.6-60.7 20.8-84.2 44.3-22.8 22.9-36.7 48.6-43.7 80.9-3 13.8-3.2 45.6-.5 58.7 2.6 12.2 7.3 27.3 11.4 36.1l3.5 7.6-8.7 42.2c-8.4 40.5-8.6 42.3-7 44.2 1 1 3 1.9 4.4 1.9s20.3-4.2 42-9.4l39.5-9.3 6.4 2.8c10.1 4.6 23.1 8.6 35.4 11.1 16 3.2 41.5 3.2 57.4 0 64.9-12.9 113.6-61.2 126.6-125.5 3.3-16.1 3.2-45.4-.1-60.7-6.4-30.1-20.2-56.5-40.5-77.7-24.4-25.6-54-41.5-88.3-47.3-15.3-2.6-38.5-2.6-53.6.1m54.3 33.8c23.4 5.4 42.2 15.5 59.1 31.8 14.4 13.9 22.7 26.1 29.9 44 6 15.2 8.3 27.8 8.3 46.3 0 16.9-1.3 24.9-6.3 40.2-14.2 42.5-51.7 74.5-96.7 82.3-11.1 1.9-31.7 1.9-42.9 0-11.5-2.1-24-6.3-35.5-12l-9.1-4.6-24.4 5.7c-13.4 3.2-24.6 5.5-24.9 5.2s1.7-11.6 4.5-25.1l5.1-24.5-4.6-9.2c-9.8-19.4-13.8-36-13.9-57.5 0-16.3 1.4-26.2 6-40.2 13.8-42.5 52.9-76.3 96.4-83.3 4.1-.6 8.2-1.3 9-1.5 4.4-1.1 32.2.6 40 2.4"/><path d="M259.1 247c-5.5 4.3-11.6 11.9-15.3 19-2.1 4-2.3 5.8-2.2 17 0 11.6.3 13.1 3.3 21.2 13.7 36.5 62.5 80 99.7 88.9 7.2 1.7 11 2 19.9 1.7 14.1-.6 18.3-2.5 28.5-12.7 8.5-8.6 12.5-15.5 11.5-19.9-1.2-5.8-4.8-7.7-23.8-13.1-20.6-5.9-20.1-5.9-29.3 2.9-8.3 8-11.4 8.6-20.9 3.7-17.3-9-48.3-38.6-50-48-.8-4.1.5-7.5 5.5-14.1 7.2-9.5 7.2-9.1-1.6-29.1-8.3-19-10.3-21.5-16.7-21.5-2.6 0-4.9 1.1-8.6 4"/></g><path fill="#40BF00" d="M296 327.4c0 .2.8 1 1.8 1.7 1.5 1.3 1.6 1.2.3-.4s-2.1-2.1-2.1-1.3m-22 22c0 .2.8 1 1.8 1.7 1.5 1.3 1.6 1.2.3-.4s-2.1-2.1-2.1-1.3"/><g fill="green" stroke-width="0"><path d="M64 410.2c0 67.3.4 117.8 1 122.7 2.5 22.3 19 39.2 41 42.1 10.2 1.3 417.8 1.3 428 0 21.9-2.9 38.5-19.8 41-42.1.6-4.9 1-55.4 1-122.7V296h-97.5v20.7c0 17.7-.3 22.5-2.3 32-18.7 92.5-110.2 148.5-200.5 122.7-4.9-1.3-12.8-4.2-17.7-6.3l-8.9-3.8-39.3 9.3c-21.6 5.2-40.5 9.4-42 9.4-2.7 0-6.8-3-6.8-4.9 0-.6 3.9-19.7 8.6-42.7l8.6-41.6-3.1-6.8c-4.7-10.1-8.9-23.2-11.4-35.5-1.9-9.3-2.2-14.2-2.2-31.8V296H64z"/><path d="M197.3 301.7c-.4 3.2-.8 11.6-.7 18.8.1 19.8 3.7 34.8 13.5 55.5l4.9 10.5-4.9 24c-2.7 13.2-4.8 24.1-4.6 24.3s11.2-2.1 24.3-5.3l24-5.6 9.1 4.6c18.9 9.4 36 13.5 57.1 13.5 34.5 0 64.7-12.7 88.7-37.2 16.9-17.3 27.8-38.1 32.9-62.8 1.9-9.3 2.5-30.5 1.1-40.3l-.8-5.7h-78.2l-78.2.1-1.8 2.5c-3.6 4.8-3.3 8.3 1.2 15 7.9 11.9 34.7 35.6 47.5 42.1 7.3 3.7 10.3 2.9 18.6-5.2 6.2-6 7.2-6.5 11.1-6.5 5.6 0 36.3 8.7 39.4 11.2 1.4 1.1 2.9 3.7 3.5 5.9.9 3.3.8 4.6-.8 8.2-3 6.5-11 15.6-17.9 20.3-7.2 4.9-13 6.4-25.1 6.4-26.5 0-55.7-15.6-85.6-45.6-16.3-16.5-28.2-34-32.7-48.4l-1.7-5.5-21.5-.3-21.6-.2z"/></g><path fill="#408000" d="M319.8 442.7c.7.3 1.6.2 1.9-.1.4-.3-.2-.6-1.3-.5-1.1 0-1.4.3-.6.6"/><path fill="#408040" d="M406.9 406.7c-1.3 1.6-1.2 1.7.4.4.9-.7 1.7-1.5 1.7-1.7 0-.8-.8-.3-2.1 1.3m-90.1 36c.7.3 1.6.2 1.9-.1.4-.3-.2-.6-1.3-.5-1.1 0-1.4.3-.6.6"/><path fill="green" fill-opacity=".9" d="M64.1 529.6c0 1.1.3 1.4.6.6.3-.7.2-1.6-.1-1.9-.3-.4-.6.2-.5 1.3"/><path fill="green" fill-opacity=".8" d="M107.8 575.7c.7.3 1.6.2 1.9-.1.4-.3-.2-.6-1.3-.5-1.1 0-1.4.3-.6.6m423 0c.7.3 1.6.2 1.9-.1.4-.3-.2-.6-1.3-.5-1.1 0-1.4.3-.6.6"/></svg>